jost-ThinItalic.ufo
<glyph name="exclam" format="2">
  <advance width="492"/>
  <unicode hex="0021"/>
  <outline>
    <contour>
      <point x="211" y="402" type="line"/>
      <point x="223" y="402" type="line"/>
      <point x="435" y="1398" type="line"/>
      <point x="407" y="1398" type="line"/>
    </contour>
    <contour>
      <point x="138" y="-20" type="curve" smooth="yes"/>
      <point x="148" y="-20"/>
      <point x="158" y="-14"/>
      <point x="158" y="-1" type="curve" smooth="yes"/>
      <point x="158" y="13"/>
      <point x="146" y="24"/>
      <point x="132" y="24" type="curve" smooth="yes"/>
      <point x="121" y="24"/>
      <point x="113" y="17"/>
      <point x="113" y="6" type="curve" smooth="yes"/>
      <point x="113" y="-8"/>
      <point x="124" y="-20"/>
    </contour>
  </outline>
</glyph>
<glyph name="quotedbl" format="2">
  <advance width="758"/>
  <unicode hex="0022"/>
  <outline>
    <contour>
      <point x="576" y="842" type="line"/>
      <point x="590" y="842" type="line"/>
      <point x="798" y="1398" type="line"/>
      <point x="772" y="1398" type="line"/>
    </contour>
    <contour>
      <point x="238" y="842" type="line"/>
      <point x="252" y="842" type="line"/>
      <point x="458" y="1398" type="line"/>
      <point x="432" y="1398" type="line"/>
    </contour>
  </outline>
</glyph>
<glyph name="numbersign" format="2">
  <advance width="1074"/>
  <unicode hex="0023"/>
  <outline>
    <contour>
      <point x="58" y="0" type="line"/>
      <point x="80" y="2" type="line"/>
      <point x="290" y="480" type="line"/>
      <point x="660" y="480" type="line"/>
      <point x="452" y="0" type="line"/>
      <point x="474" y="0" type="line"/>
      <point x="683" y="480" type="line"/>
      <point x="923" y="480" type="line"/>
      <point x="926" y="502" type="line"/>
      <point x="693" y="502" type="line"/>
      <point x="869" y="908" type="line"/>
      <point x="1083" y="908" type="line"/>
      <point x="1088" y="930" type="line"/>
      <point x="879" y="930" type="line"/>
      <point x="1082" y="1398" type="line"/>
      <point x="1060" y="1398" type="line"/>
      <point x="853" y="930" type="line"/>
      <point x="481" y="930" type="line"/>
      <point x="686" y="1398" type="line"/>
      <point x="664" y="1398" type="line"/>
      <point x="462" y="930" type="line"/>
      <point x="220" y="930" type="line"/>
      <point x="215" y="908" type="line"/>
      <point x="452" y="908" type="line"/>
      <point x="276" y="502" type="line"/>
      <point x="58" y="502" type="line"/>
      <point x="53" y="480" type="line"/>
      <point x="266" y="480" type="line"/>
    </contour>
    <contour>
      <point x="298" y="502" type="line"/>
      <point x="472" y="908" type="line"/>
      <point x="844" y="908" type="line"/>
      <point x="672" y="502" type="line"/>
    </contour>
  </outline>
</glyph>
<glyph name="dollar" format="2">
  <advance width="1090"/>
  <unicode hex="0024"/>
  <outline>
    <contour>
      <point x="362" y="-224" type="line"/>
      <point x="382" y="-224" type="line"/>
      <point x="421" y="-14" type="line"/>
      <point x="670" y="-5"/>
      <point x="833" y="171"/>
      <point x="833" y="395" type="curve" smooth="yes"/>
      <point x="833" y="527"/>
      <point x="776" y="613"/>
      <point x="567" y="736" type="curve" smooth="yes"/>
      <point x="412" y="827"/>
      <point x="280" y="879"/>
      <point x="280" y="1048" type="curve" smooth="yes"/>
      <point x="280" y="1249"/>
      <point x="467" y="1395"/>
      <point x="643" y="1392" type="curve" smooth="yes"/>
      <point x="791" y="1389"/>
      <point x="889" y="1284"/>
      <point x="922" y="1096" type="curve"/>
      <point x="942" y="1100" type="line"/>
      <point x="909" y="1296"/>
      <point x="804" y="1408"/>
      <point x="652" y="1414" type="curve"/>
      <point x="695" y="1634" type="line"/>
      <point x="675" y="1634" type="line"/>
      <point x="632" y="1414" type="line"/>
      <point x="341" y="1375"/>
      <point x="258" y="1241"/>
      <point x="258" y="952" type="curve" smooth="yes"/>
      <point x="258" y="895"/>
      <point x="266" y="920"/>
      <point x="555" y="718" type="curve" smooth="yes"/>
      <point x="799" y="548"/>
      <point x="813" y="518"/>
      <point x="813" y="437" type="curve" smooth="yes"/>
      <point x="813" y="146"/>
      <point x="631" y="8"/>
      <point x="432" y="8" type="curve" smooth="yes"/>
      <point x="244" y="8"/>
      <point x="135" y="131"/>
      <point x="93" y="394" type="curve"/>
      <point x="72" y="386" type="line"/>
      <point x="113" y="132"/>
      <point x="227" y="-7"/>
      <point x="403" y="-14" type="curve"/>
    </contour>
  </outline>
</glyph>
<glyph name="percent" format="2">
  <advance width="1318"/>
  <unicode hex="0025"/>
  <outline>
    <contour>
      <point x="403" y="822" type="curve" smooth="yes"/>
      <point x="573" y="820"/>
      <point x="711" y="964"/>
      <point x="741" y="1119" type="curve" smooth="yes"/>
      <point x="768" y="1266"/>
      <point x="686" y="1416"/>
      <point x="519" y="1418" type="curve" smooth="yes"/>
      <point x="351" y="1421"/>
      <point x="207" y="1272"/>
      <point x="180" y="1120" type="curve" smooth="yes"/>
      <point x="155" y="978"/>
      <point x="231" y="824"/>
    </contour>
    <contour>
      <point x="402" y="840" type="curve" smooth="yes"/>
      <point x="245" y="843"/>
      <point x="175" y="985"/>
      <point x="200" y="1118" type="curve" smooth="yes"/>
      <point x="226" y="1258"/>
      <point x="361" y="1400"/>
      <point x="519" y="1398" type="curve" smooth="yes"/>
      <point x="671" y="1396"/>
      <point x="747" y="1259"/>
      <point x="721" y="1122" type="curve" smooth="yes"/>
      <point x="695" y="982"/>
      <point x="561" y="838"/>
    </contour>
    <contour>
      <point x="865" y="-18" type="curve" smooth="yes"/>
      <point x="1037" y="-21"/>
      <point x="1176" y="131"/>
      <point x="1203" y="279" type="curve" smooth="yes"/>
      <point x="1230" y="430"/>
      <point x="1146" y="575"/>
      <point x="981" y="578" type="curve" smooth="yes"/>
      <point x="805" y="581"/>
      <point x="668" y="425"/>
      <point x="642" y="280" type="curve" smooth="yes"/>
      <point x="616" y="135"/>
      <point x="696" y="-16"/>
    </contour>
    <contour>
      <point x="862" y="0" type="curve" smooth="yes"/>
      <point x="703" y="3"/>
      <point x="636" y="149"/>
      <point x="663" y="282" type="curve" smooth="yes"/>
      <point x="692" y="425"/>
      <point x="828" y="561"/>
      <point x="982" y="558" type="curve" smooth="yes"/>
      <point x="1135" y="555"/>
      <point x="1209" y="417"/>
      <point x="1183" y="282" type="curve" smooth="yes"/>
      <point x="1156" y="141"/>
      <point x="1021" y="-2"/>
    </contour>
    <contour>
      <point x="106" y="0" type="line"/>
      <point x="132" y="0" type="line"/>
      <point x="1276" y="1396" type="line"/>
      <point x="1252" y="1396" type="line"/>
    </contour>
  </outline>
</glyph>
<glyph name="ampersand" format="2">
  <advance width="1270"/>
  <unicode hex="0026"/>
  <outline>
    <contour>
      <point x="391" y="-18" type="curve" smooth="yes"/>
      <point x="622" y="-38"/>
      <point x="722" y="80"/>
      <point x="1189" y="618" type="curve"/>
      <point x="1173" y="630" type="line"/>
      <point x="643" y="20"/>
      <point x="618" y="0"/>
      <point x="390" y="2" type="curve" smooth="yes"/>
      <point x="223" y="17"/>
      <point x="77" y="93"/>
      <point x="77" y="302" type="curve" smooth="yes"/>
      <point x="77" y="502"/>
      <point x="210" y="586"/>
      <point x="557" y="799" type="curve" smooth="yes"/>
      <point x="757" y="922"/>
      <point x="893" y="1027"/>
      <point x="893" y="1188" type="curve" smooth="yes"/>
      <point x="893" y="1315"/>
      <point x="808" y="1412"/>
      <point x="673" y="1420" type="curve" smooth="yes"/>
      <point x="493" y="1431"/>
      <point x="336" y="1272"/>
      <point x="336" y="1096" type="curve" smooth="yes"/>
      <point x="336" y="991"/>
      <point x="392" y="893"/>
      <point x="418" y="854" type="curve" smooth="yes"/>
      <point x="984" y="0" type="line"/>
      <point x="1008" y="0" type="line"/>
      <point x="434" y="870" type="line" smooth="yes"/>
      <point x="412" y="904"/>
      <point x="357" y="994"/>
      <point x="357" y="1096" type="curve" smooth="yes"/>
      <point x="357" y="1261"/>
      <point x="500" y="1400"/>
      <point x="658" y="1400" type="curve" smooth="yes"/>
      <point x="785" y="1400"/>
      <point x="873" y="1310"/>
      <point x="873" y="1188" type="curve" smooth="yes"/>
      <point x="873" y="1020"/>
      <point x="708" y="914"/>
      <point x="544" y="815" type="curve" smooth="yes"/>
      <point x="232" y="626"/>
      <point x="57" y="527"/>
      <point x="57" y="298" type="curve" smooth="yes"/>
      <point x="57" y="77"/>
      <point x="221" y="-4"/>
    </contour>
  </outline>
</glyph>
<glyph name="quotesingle" format="2">
  <advance width="418"/>
  <unicode hex="0027"/>
  <outline>
    <contour>
      <point x="238" y="842" type="line"/>
      <point x="252" y="842" type="line"/>
      <point x="458" y="1398" type="line"/>
      <point x="432" y="1398" type="line"/>
    </contour>
  </outline>
</glyph>
<glyph name="parenleft" format="2">
  <advance width="450"/>
  <unicode hex="0028"/>
  <outline>
    <contour>
      <point x="250" y="-400" type="curve"/>
      <point x="260" y="-400" type="line"/>
      <point x="177" y="-69"/>
      <point x="163" y="260"/>
      <point x="216" y="580" type="curve" smooth="yes"/>
      <point x="271" y="913"/>
      <point x="396" y="1247"/>
      <point x="591" y="1558" type="curve"/>
      <point x="581" y="1558" type="line"/>
      <point x="385" y="1270"/>
      <point x="255" y="937"/>
      <point x="196" y="583" type="curve" smooth="yes"/>
      <point x="139" y="241"/>
      <point x="157" y="-89"/>
    </contour>
  </outline>
</glyph>
<glyph name="parenright" format="2">
  <advance width="450"/>
  <unicode hex="0029"/>
  <outline>
    <contour>
      <point x="-82" y="-398" type="curve"/>
      <point x="-72" y="-398" type="line"/>
      <point x="125" y="-108"/>
      <point x="254" y="224"/>
      <point x="313" y="580" type="curve" smooth="yes"/>
      <point x="369" y="919"/>
      <point x="352" y="1248"/>
      <point x="259" y="1560" type="curve"/>
      <point x="249" y="1560" type="line"/>
      <point x="331" y="1232"/>
      <point x="344" y="901"/>
      <point x="291" y="582" type="curve" smooth="yes"/>
      <point x="235" y="244"/>
      <point x="109" y="-90"/>
    </contour>
  </outline>
</glyph>
<glyph name="asterisk" format="2">
  <advance width="1114"/>
  <unicode hex="002A"/>
  <outline>
    <contour>
      <point x="787" y="760" type="line"/>
      <point x="807" y="774" type="line"/>
      <point x="665" y="1048" type="line"/>
      <point x="995" y="1144" type="line"/>
      <point x="994" y="1168" type="line"/>
      <point x="664" y="1061" type="line"/>
      <point x="746" y="1398" type="line"/>
      <point x="722" y="1398" type="line"/>
      <point x="652" y="1061" type="line"/>
      <point x="372" y="1168" type="line"/>
      <point x="361" y="1146" type="line"/>
      <point x="650" y="1049" type="line"/>
      <point x="397" y="778" type="line"/>
      <point x="415" y="764" type="line"/>
      <point x="656" y="1038" type="line"/>
    </contour>
  </outline>
</glyph>
<glyph name="plus" format="2">
  <advance width="1034"/>
  <unicode hex="002B"/>
  <outline>
    <contour>
      <point x="400" y="62" type="line"/>
      <point x="420" y="62" type="line"/>
      <point x="511" y="500" type="line"/>
      <point x="886" y="500" type="line"/>
      <point x="891" y="520" type="line"/>
      <point x="514" y="520" type="line"/>
      <point x="606" y="958" type="line"/>
      <point x="586" y="958" type="line"/>
      <point x="494" y="520" type="line"/>
      <point x="117" y="520" type="line"/>
      <point x="114" y="500" type="line"/>
      <point x="491" y="500" type="line"/>
    </contour>
  </outline>
</glyph>
<glyph name="comma" format="2">
  <advance width="518"/>
  <unicode hex="002C"/>
  <outline>
    <contour>
      <point x="-33" y="-318" type="line"/>
      <point x="281" y="174" type="line"/>
      <point x="262" y="184" type="line"/>
      <point x="-46" y="-314" type="line"/>
    </contour>
  </outline>
</glyph>
<glyph name="period" format="2">
  <advance width="488"/>
  <unicode hex="002E"/>
  <outline>
    <contour>
      <point x="139" y="-20" type="curve" smooth="yes"/>
      <point x="150" y="-20"/>
      <point x="158" y="-11"/>
      <point x="158" y="-1" type="curve" smooth="yes"/>
      <point x="158" y="12"/>
      <point x="146" y="24"/>
      <point x="133" y="24" type="curve" smooth="yes"/>
      <point x="122" y="24"/>
      <point x="114" y="15"/>
      <point x="114" y="5" type="curve" smooth="yes"/>
      <point x="114" y="-8"/>
      <point x="127" y="-20"/>
    </contour>
  </outline>
</glyph>
<glyph name="slash" format="2">
  <advance width="892"/>
  <unicode hex="002F"/>
  <outline>
    <contour>
      <point x="-144" y="-297" type="line"/>
      <point x="-120" y="-297" type="line"/>
      <point x="1042" y="1396" type="line"/>
      <point x="1018" y="1398" type="line"/>
    </contour>
  </outline>
</glyph>
<glyph name="zero" format="2">
  <advance width="1034"/>
  <unicode hex="0030"/>
  <outline>
    <contour>
      <point x="403" y="-18" type="curve" smooth="yes"/>
      <point x="721" y="-18"/>
      <point x="993" y="457"/>
      <point x="993" y="946" type="curve" smooth="yes"/>
      <point x="993" y="1271"/>
      <point x="873" y="1418"/>
      <point x="696" y="1418" type="curve" smooth="yes"/>
      <point x="378" y="1418"/>
      <point x="106" y="944"/>
      <point x="106" y="454" type="curve" smooth="yes"/>
      <point x="106" y="130"/>
      <point x="225" y="-18"/>
    </contour>
    <contour>
      <point x="403" y="0" type="curve" smooth="yes"/>
      <point x="239" y="0"/>
      <point x="126" y="139"/>
      <point x="126" y="450" type="curve" smooth="yes"/>
      <point x="126" y="929"/>
      <point x="393" y="1398"/>
      <point x="696" y="1398" type="curve" smooth="yes"/>
      <point x="862" y="1398"/>
      <point x="973" y="1257"/>
      <point x="973" y="949" type="curve" smooth="yes"/>
      <point x="973" y="472"/>
      <point x="706" y="0"/>
    </contour>
  </outline>
</glyph>
<glyph name="one" format="2">
  <advance width="770"/>
  <unicode hex="0031"/>
  <outline>
    <contour>
      <point x="388" y="0" type="line"/>
      <point x="406" y="0" type="line"/>
      <point x="694" y="1410" type="line"/>
      <point x="337" y="1332" type="line"/>
      <point x="332" y="1310" type="line"/>
      <point x="668" y="1380" type="line"/>
    </contour>
  </outline>
</glyph>
<glyph name="two" format="2">
  <advance width="966"/>
  <unicode hex="0032"/>
  <outline>
    <contour>
      <point x="-22" y="0" type="line"/>
      <point x="834" y="0" type="line"/>
      <point x="837" y="20" type="line"/>
      <point x="31" y="22" type="line"/>
      <point x="708" y="657" type="line" smooth="yes"/>
      <point x="793" y="736"/>
      <point x="959" y="899"/>
      <point x="959" y="1105" type="curve" smooth="yes"/>
      <point x="959" y="1285"/>
      <point x="833" y="1416"/>
      <point x="660" y="1420" type="curve" smooth="yes"/>
      <point x="448" y="1425"/>
      <point x="266" y="1236"/>
      <point x="184" y="922" type="curve"/>
      <point x="204" y="922" type="line"/>
      <point x="287" y="1225"/>
      <point x="457" y="1403"/>
      <point x="661" y="1400" type="curve" smooth="yes"/>
      <point x="820" y="1397"/>
      <point x="940" y="1279"/>
      <point x="940" y="1106" type="curve" smooth="yes"/>
      <point x="940" y="914"/>
      <point x="792" y="765"/>
      <point x="689" y="669" type="curve" smooth="yes"/>
    </contour>
  </outline>
</glyph>
<glyph name="three" format="2">
  <advance width="1036"/>
  <unicode hex="0033"/>
  <outline>
    <contour>
      <point x="519" y="-32" type="curve" smooth="yes"/>
      <point x="773" y="-32"/>
      <point x="954" y="136"/>
      <point x="954" y="358" type="curve" smooth="yes"/>
      <point x="954" y="580"/>
      <point x="776" y="700"/>
      <point x="578" y="729" type="curve"/>
      <point x="815" y="765"/>
      <point x="964" y="914"/>
      <point x="964" y="1108" type="curve" smooth="yes"/>
      <point x="964" y="1295"/>
      <point x="825" y="1432"/>
      <point x="625" y="1435" type="curve" smooth="yes"/>
      <point x="412" y="1438"/>
      <point x="247" y="1285"/>
      <point x="232" y="1060" type="curve"/>
      <point x="252" y="1060" type="line"/>
      <point x="265" y="1271"/>
      <point x="424" y="1417"/>
      <point x="624" y="1414" type="curve" smooth="yes"/>
      <point x="810" y="1411"/>
      <point x="943" y="1281"/>
      <point x="943" y="1107" type="curve" smooth="yes"/>
      <point x="943" y="901"/>
      <point x="755" y="742"/>
      <point x="512" y="742" type="curve"/>
      <point x="510" y="722" type="line"/>
      <point x="778" y="692"/>
      <point x="934" y="566"/>
      <point x="934" y="363" type="curve" smooth="yes"/>
      <point x="934" y="147"/>
      <point x="757" y="-12"/>
      <point x="518" y="-12" type="curve" smooth="yes"/>
      <point x="289" y="-12"/>
      <point x="132" y="133"/>
      <point x="147" y="366" type="curve"/>
      <point x="127" y="366" type="line"/>
      <point x="113" y="129"/>
      <point x="273" y="-32"/>
    </contour>
  </outline>
</glyph>
<glyph name="four" format="2">
  <advance width="1040"/>
  <unicode hex="0034"/>
  <outline>
    <contour>
      <point x="638" y="0" type="line"/>
      <point x="658" y="0" type="line"/>
      <point x="715" y="280" type="line"/>
      <point x="922" y="280" type="line"/>
      <point x="925" y="300" type="line"/>
      <point x="719" y="300" type="line"/>
      <point x="945" y="1398" type="line"/>
      <point x="941" y="1398" type="line"/>
      <point x="-6" y="282" type="line"/>
      <point x="697" y="280" type="line"/>
    </contour>
    <contour>
      <point x="35" y="300" type="line"/>
      <point x="909" y="1326" type="line"/>
      <point x="699" y="300" type="line"/>
    </contour>
  </outline>
</glyph>
<glyph name="five" format="2">
  <advance width="1048"/>
  <unicode hex="0035"/>
  <outline>
    <contour>
      <point x="426" y="-18" type="curve" smooth="yes"/>
      <point x="702" y="-19"/>
      <point x="936" y="244"/>
      <point x="936" y="526" type="curve" smooth="yes"/>
      <point x="936" y="738"/>
      <point x="804" y="890"/>
      <point x="609" y="890" type="curve" smooth="yes"/>
      <point x="488" y="890"/>
      <point x="358" y="832"/>
      <point x="240" y="720" type="curve"/>
      <point x="510" y="1378" type="line"/>
      <point x="1116" y="1380" type="line"/>
      <point x="1119" y="1400" type="line"/>
      <point x="499" y="1400" type="line"/>
      <point x="197" y="658" type="line"/>
      <point x="342" y="798"/>
      <point x="479" y="870"/>
      <point x="609" y="870" type="curve" smooth="yes"/>
      <point x="794" y="870"/>
      <point x="917" y="724"/>
      <point x="917" y="526" type="curve" smooth="yes"/>
      <point x="917" y="255"/>
      <point x="687" y="0"/>
      <point x="425" y="2" type="curve" smooth="yes"/>
      <point x="266" y="3"/>
      <point x="156" y="97"/>
      <point x="98" y="284" type="curve"/>
      <point x="81" y="274" type="line"/>
      <point x="139" y="82"/>
      <point x="256" y="-17"/>
    </contour>
  </outline>
</glyph>
<glyph name="six" format="2">
  <advance width="1008"/>
  <unicode hex="0036"/>
  <outline>
    <contour>
      <point x="434" y="-18" type="curve" smooth="yes"/>
      <point x="688" y="-22"/>
      <point x="925" y="225"/>
      <point x="925" y="498" type="curve" smooth="yes"/>
      <point x="925" y="711"/>
      <point x="781" y="874"/>
      <point x="584" y="874" type="curve" smooth="yes"/>
      <point x="473" y="874"/>
      <point x="358" y="823"/>
      <point x="234" y="712" type="curve"/>
      <point x="238" y="708" type="line"/>
      <point x="816" y="1407" type="line"/>
      <point x="790" y="1407" type="line"/>
      <point x="255" y="758" type="line" smooth="yes"/>
      <point x="144" y="623"/>
      <point x="90" y="488"/>
      <point x="90" y="357" type="curve" smooth="yes"/>
      <point x="90" y="142"/>
      <point x="234" y="-15"/>
    </contour>
    <contour>
      <point x="433" y="2" type="curve" smooth="yes"/>
      <point x="245" y="7"/>
      <point x="110" y="160"/>
      <point x="110" y="358" type="curve" smooth="yes"/>
      <point x="110" y="615"/>
      <point x="337" y="852"/>
      <point x="580" y="852" type="curve" smooth="yes"/>
      <point x="775" y="852"/>
      <point x="907" y="699"/>
      <point x="907" y="502" type="curve" smooth="yes"/>
      <point x="907" y="226"/>
      <point x="661" y="-4"/>
    </contour>
  </outline>
</glyph>
<glyph name="seven" format="2">
  <advance width="968"/>
  <unicode hex="0037"/>
  <outline>
    <contour>
      <point x="162" y="0" type="line"/>
      <point x="184" y="0" type="line"/>
      <point x="1120" y="1398" type="line"/>
      <point x="231" y="1400" type="line"/>
      <point x="228" y="1380" type="line"/>
      <point x="1082" y="1378" type="line"/>
    </contour>
  </outline>
</glyph>
<glyph name="eight" format="2">
  <advance width="970"/>
  <unicode hex="0038"/>
  <outline>
    <contour>
      <point x="375" y="-18" type="curve" smooth="yes"/>
      <point x="603" y="-21"/>
      <point x="822" y="198"/>
      <point x="822" y="428" type="curve" smooth="yes"/>
      <point x="822" y="587"/>
      <point x="717" y="719"/>
      <point x="561" y="740" type="curve"/>
      <point x="753" y="757"/>
      <point x="928" y="951"/>
      <point x="928" y="1141" type="curve" smooth="yes"/>
      <point x="928" y="1296"/>
      <point x="812" y="1415"/>
      <point x="661" y="1418" type="curve" smooth="yes"/>
      <point x="464" y="1422"/>
      <point x="263" y="1226"/>
      <point x="263" y="1026" type="curve" smooth="yes"/>
      <point x="263" y="885"/>
      <point x="363" y="759"/>
      <point x="490" y="741" type="curve"/>
      <point x="272" y="724"/>
      <point x="78" y="509"/>
      <point x="78" y="290" type="curve" smooth="yes"/>
      <point x="78" y="112"/>
      <point x="201" y="-16"/>
    </contour>
    <contour>
      <point x="374" y="2" type="curve" smooth="yes"/>
      <point x="213" y="4"/>
      <point x="97" y="121"/>
      <point x="97" y="286" type="curve" smooth="yes"/>
      <point x="97" y="513"/>
      <point x="316" y="732"/>
      <point x="526" y="728" type="curve" smooth="yes"/>
      <point x="686" y="725"/>
      <point x="802" y="596"/>
      <point x="802" y="431" type="curve" smooth="yes"/>
      <point x="802" y="212"/>
      <point x="596" y="-1"/>
    </contour>
    <contour>
      <point x="533" y="752" type="curve" smooth="yes"/>
      <point x="393" y="752"/>
      <point x="281" y="875"/>
      <point x="281" y="1022" type="curve" smooth="yes"/>
      <point x="281" y="1212"/>
      <point x="469" y="1403"/>
      <point x="662" y="1398" type="curve" smooth="yes"/>
      <point x="805" y="1394"/>
      <point x="908" y="1283"/>
      <point x="908" y="1144" type="curve" smooth="yes"/>
      <point x="908" y="951"/>
      <point x="711" y="752"/>
    </contour>
  </outline>
</glyph>
<glyph name="colon" format="2">
  <advance width="564"/>
  <unicode hex="003A"/>
  <outline>
    <contour>
      <point x="279" y="676" type="curve" smooth="yes"/>
      <point x="290" y="676"/>
      <point x="299" y="684"/>
      <point x="299" y="695" type="curve" smooth="yes"/>
      <point x="299" y="708"/>
      <point x="286" y="720"/>
      <point x="273" y="720" type="curve" smooth="yes"/>
      <point x="262" y="720"/>
      <point x="254" y="711"/>
      <point x="254" y="701" type="curve" smooth="yes"/>
      <point x="254" y="688"/>
      <point x="267" y="676"/>
    </contour>
    <contour>
      <point x="139" y="-20" type="curve" smooth="yes"/>
      <point x="150" y="-20"/>
      <point x="158" y="-11"/>
      <point x="158" y="-1" type="curve" smooth="yes"/>
      <point x="158" y="12"/>
      <point x="146" y="24"/>
      <point x="133" y="24" type="curve" smooth="yes"/>
      <point x="122" y="24"/>
      <point x="114" y="15"/>
      <point x="114" y="5" type="curve" smooth="yes"/>
      <point x="114" y="-8"/>
      <point x="127" y="-20"/>
    </contour>
  </outline>
</glyph>
<glyph name="semicolon" format="2">
  <advance width="518"/>
  <unicode hex="003B"/>
  <outline>
    <contour>
      <point x="-33" y="-318" type="line"/>
      <point x="281" y="174" type="line"/>
      <point x="262" y="184" type="line"/>
      <point x="-46" y="-314" type="line"/>
    </contour>
    <contour>
      <point x="335" y="676" type="curve" smooth="yes"/>
      <point x="346" y="676"/>
      <point x="354" y="685"/>
      <point x="354" y="695" type="curve" smooth="yes"/>
      <point x="354" y="708"/>
      <point x="341" y="720"/>
      <point x="329" y="720" type="curve" smooth="yes"/>
      <point x="318" y="720"/>
      <point x="310" y="711"/>
      <point x="310" y="701" type="curve" smooth="yes"/>
      <point x="310" y="688"/>
      <point x="322" y="676"/>
    </contour>
  </outline>
</glyph>
<glyph name="equal" format="2">
  <advance width="1156"/>
  <unicode hex="003D"/>
  <outline>
    <contour>
      <point x="139" y="620" type="line"/>
      <point x="1051" y="620" type="line"/>
      <point x="1056" y="640" type="line"/>
      <point x="142" y="640" type="line"/>
    </contour>
    <contour>
      <point x="88" y="370" type="line"/>
      <point x="1002" y="370" type="line"/>
      <point x="1005" y="390" type="line"/>
      <point x="91" y="390" type="line"/>
    </contour>
  </outline>
</glyph>
<glyph name="greater" format="2">
  <advance width="1204"/>
  <unicode hex="003E"/>
  <outline>
    <contour>
      <point x="31" y="92" type="line"/>
      <point x="1076" y="510" type="line"/>
      <point x="1079" y="522" type="line"/>
      <point x="202" y="938" type="line"/>
      <point x="197" y="920" type="line"/>
      <point x="1045" y="516" type="line"/>
      <point x="34" y="112" type="line"/>
    </contour>
  </outline>
</glyph>
<glyph name="question" format="2">
  <advance width="1018"/>
  <unicode hex="003F"/>
  <outline>
    <contour>
      <point x="384" y="342" type="line"/>
      <point x="400" y="342" type="line"/>
      <point x="470" y="674" type="line"/>
      <point x="692" y="702"/>
      <point x="924" y="810"/>
      <point x="972" y="1040" type="curve" smooth="yes"/>
      <point x="1014" y="1246"/>
      <point x="879" y="1415"/>
      <point x="671" y="1418" type="curve" smooth="yes"/>
      <point x="487" y="1421"/>
      <point x="350" y="1297"/>
      <point x="249" y="1190" type="curve"/>
      <point x="265" y="1178" type="line"/>
      <point x="371" y="1290"/>
      <point x="497" y="1400"/>
      <point x="672" y="1398" type="curve" smooth="yes"/>
      <point x="881" y="1394"/>
      <point x="990" y="1224"/>
      <point x="952" y="1040" type="curve" smooth="yes"/>
      <point x="905" y="813"/>
      <point x="667" y="702"/>
      <point x="449" y="702" type="curve" smooth="yes"/>
      <point x="447" y="702" type="line"/>
    </contour>
    <contour>
      <point x="317" y="-20" type="curve" smooth="yes"/>
      <point x="328" y="-20"/>
      <point x="336" y="-11"/>
      <point x="336" y="-1" type="curve" smooth="yes"/>
      <point x="336" y="12"/>
      <point x="325" y="24"/>
      <point x="313" y="24" type="curve" smooth="yes"/>
      <point x="302" y="24"/>
      <point x="294" y="13"/>
      <point x="294" y="4" type="curve" smooth="yes"/>
      <point x="294" y="-9"/>
      <point x="304" y="-20"/>
    </contour>
  </outline>
</glyph>
<glyph name="at" format="2">
  <advance width="1448"/>
  <unicode hex="0040"/>
  <outline>
    <contour>
      <point x="576" y="-342" type="curve" smooth="yes"/>
      <point x="708" y="-342"/>
      <point x="866" y="-305"/>
      <point x="1047" y="-228" type="curve"/>
      <point x="1039" y="-208" type="line"/>
      <point x="852" y="-288"/>
      <point x="702" y="-323"/>
      <point x="558" y="-320" type="curve" smooth="yes"/>
      <point x="267" y="-314"/>
      <point x="91" y="-115"/>
      <point x="91" y="180" type="curve" smooth="yes"/>
      <point x="91" y="648"/>
      <point x="525" y="1066"/>
      <point x="931" y="1066" type="curve" smooth="yes"/>
      <point x="1219" y="1066"/>
      <point x="1421" y="856"/>
      <point x="1421" y="575" type="curve" smooth="yes"/>
      <point x="1421" y="302"/>
      <point x="1230" y="-3"/>
      <point x="1027" y="-3" type="curve" smooth="yes"/>
      <point x="956" y="-3"/>
      <point x="907" y="35"/>
      <point x="907" y="126" type="curve" smooth="yes"/>
      <point x="907" y="160"/>
      <point x="914" y="201"/>
      <point x="932" y="249" type="curve" smooth="yes"/>
      <point x="1106" y="710" type="line"/>
      <point x="1082" y="710" type="line"/>
      <point x="910" y="254" type="line"/>
      <point x="914" y="252" type="line"/>
      <point x="896" y="184"/>
      <point x="888" y="137"/>
      <point x="888" y="104" type="curve" smooth="yes"/>
      <point x="888" y="18"/>
      <point x="939" y="-24"/>
      <point x="1020" y="-24" type="curve" smooth="yes"/>
      <point x="1241" y="-24"/>
      <point x="1443" y="284"/>
      <point x="1443" y="575" type="curve" smooth="yes"/>
      <point x="1443" y="866"/>
      <point x="1242" y="1076"/>
      <point x="955" y="1088" type="curve" smooth="yes"/>
      <point x="552" y="1105"/>
      <point x="69" y="683"/>
      <point x="69" y="179" type="curve" smooth="yes"/>
      <point x="69" y="-135"/>
      <point x="265" y="-342"/>
    </contour>
    <contour>
      <point x="597" y="0" type="curve" smooth="yes"/>
      <point x="795" y="-2"/>
      <point x="988" y="249"/>
      <point x="988" y="490" type="curve" smooth="yes"/>
      <point x="988" y="636"/>
      <point x="917" y="726"/>
      <point x="797" y="726" type="curve" smooth="yes"/>
      <point x="599" y="726"/>
      <point x="398" y="482"/>
      <point x="398" y="245" type="curve" smooth="yes"/>
      <point x="398" y="95"/>
      <point x="478" y="1"/>
    </contour>
    <contour>
      <point x="601" y="22" type="curve" smooth="yes"/>
      <point x="491" y="22"/>
      <point x="419" y="108"/>
      <point x="419" y="245" type="curve" smooth="yes"/>
      <point x="419" y="467"/>
      <point x="607" y="705"/>
      <point x="794" y="705" type="curve" smooth="yes"/>
      <point x="905" y="705"/>
      <point x="971" y="620"/>
      <point x="971" y="487" type="curve" smooth="yes"/>
      <point x="971" y="265"/>
      <point x="787" y="22"/>
    </contour>
  </outline>
</glyph>
<glyph name="A" format="2">
  <advance width="1128"/>
  <unicode hex="0041"/>
  <anchor x="564" y="0" name="bottom"/>
  <anchor x="992" y="0" name="ogonek"/>
  <anchor x="770" y="1400" name="top"/>
  <outline>
    <contour>
      <point x="-84" y="0" type="line"/>
      <point x="-60" y="0" type="line"/>
      <point x="257" y="546" type="line"/>
      <point x="260" y="554" type="line"/>
      <point x="737" y="1376" type="line"/>
      <point x="878" y="552" type="line"/>
      <point x="879" y="546" type="line"/>
      <point x="968" y="0" type="line"/>
      <point x="992" y="0" type="line"/>
      <point x="745" y="1430" type="line"/>
    </contour>
    <contour>
      <point x="244" y="544" type="line"/>
      <point x="890" y="544" type="line"/>
      <point x="893" y="564" type="line"/>
      <point x="247" y="564" type="line"/>
    </contour>
  </outline>
</glyph>
<glyph name="B" format="2">
  <advance width="930"/>
  <unicode hex="0042"/>
  <anchor x="288" y="0" name="bottom"/>
  <anchor x="547" y="1400" name="top"/>
  <outline>
    <contour>
      <point x="58" y="0" type="line"/>
      <point x="288" y="0" type="line" smooth="yes"/>
      <point x="537" y="0"/>
      <point x="762" y="166"/>
      <point x="792" y="400" type="curve" smooth="yes"/>
      <point x="820" y="617"/>
      <point x="667" y="784"/>
      <point x="460" y="784" type="curve" smooth="yes"/>
      <point x="230" y="784" type="line"/>
      <point x="228" y="768" type="line"/>
      <point x="442" y="768" type="line" smooth="yes"/>
      <point x="647" y="768"/>
      <point x="800" y="612"/>
      <point x="770" y="401" type="curve" smooth="yes"/>
      <point x="740" y="185"/>
      <point x="534" y="22"/>
      <point x="289" y="22" type="curve" smooth="yes"/>
      <point x="83" y="22" type="line"/>
      <point x="358" y="1378" type="line"/>
      <point x="546" y="1378" type="line" smooth="yes"/>
      <point x="735" y="1378"/>
      <point x="873" y="1264"/>
      <point x="836" y="1079" type="curve" smooth="yes"/>
      <point x="798" y="889"/>
      <point x="614" y="792"/>
      <point x="423" y="792" type="curve" smooth="yes"/>
      <point x="231" y="792" type="line"/>
      <point x="230" y="776" type="line"/>
      <point x="444" y="776" type="line" smooth="yes"/>
      <point x="639" y="776"/>
      <point x="824" y="884"/>
      <point x="859" y="1080" type="curve" smooth="yes"/>
      <point x="895" y="1283"/>
      <point x="736" y="1400"/>
      <point x="547" y="1400" type="curve" smooth="yes"/>
      <point x="343" y="1400" type="line"/>
    </contour>
  </outline>
</glyph>
<glyph name="C" format="2">
  <advance width="1288"/>
  <unicode hex="0043"/>
  <anchor x="557" y="-3" name="bottom"/>
  <anchor x="948" y="1406" name="top"/>
  <outline>
    <contour>
      <point x="606" y="-14" type="curve" smooth="yes"/>
      <point x="777" y="-17"/>
      <point x="927" y="52"/>
      <point x="1060" y="142" type="curve"/>
      <point x="1068" y="172" type="line"/>
      <point x="935" y="78"/>
      <point x="784" y="7"/>
      <point x="607" y="10" type="curve" smooth="yes"/>
      <point x="226" y="18"/>
      <point x="92" y="379"/>
      <point x="150" y="699" type="curve" smooth="yes"/>
      <point x="211" y="1038"/>
      <point x="497" y="1388"/>
      <point x="889" y="1392" type="curve" smooth="yes"/>
      <point x="1042" y="1393"/>
      <point x="1168" y="1343"/>
      <point x="1278" y="1228" type="curve"/>
      <point x="1284" y="1258" type="line"/>
      <point x="1166" y="1366"/>
      <point x="1041" y="1418"/>
      <point x="889" y="1416" type="curve" smooth="yes"/>
      <point x="486" y="1412"/>
      <point x="197" y="1064"/>
      <point x="126" y="700" type="curve" smooth="yes"/>
      <point x="66" y="363"/>
      <point x="213" y="-9"/>
    </contour>
  </outline>
</glyph>
<glyph name="D" format="2">
  <advance width="1194"/>
  <unicode hex="0044"/>
  <anchor x="597" y="0" name="bottom"/>
  <anchor x="499" y="700" name="center"/>
  <anchor x="801" y="1400" name="top"/>
  <outline>
    <contour>
      <point x="58" y="0" type="line"/>
      <point x="364" y="0" type="line" smooth="yes"/>
      <point x="774" y="0"/>
      <point x="1069" y="339"/>
      <point x="1134" y="701" type="curve" smooth="yes"/>
      <point x="1203" y="1089"/>
      <point x="1002" y="1400"/>
      <point x="641" y="1400" type="curve" smooth="yes"/>
      <point x="344" y="1400" type="line"/>
    </contour>
    <contour>
      <point x="85" y="22" type="line"/>
      <point x="361" y="1378" type="line"/>
      <point x="640" y="1378" type="line" smooth="yes"/>
      <point x="991" y="1378"/>
      <point x="1181" y="1075"/>
      <point x="1112" y="701" type="curve" smooth="yes"/>
      <point x="1045" y="340"/>
      <point x="757" y="22"/>
      <point x="365" y="22" type="curve" smooth="yes"/>
    </contour>
  </outline>
</glyph>
<glyph name="E" format="2">
  <advance width="958"/>
  <unicode hex="0045"/>
  <anchor x="441" y="0" name="bottom"/>
  <anchor x="511" y="10" name="ogonek"/>
  <anchor x="750" y="1400" name="top"/>
  <anchor x="-177" y="1400" name="topleft"/>
  <outline>
    <contour>
      <point x="58" y="0" type="line"/>
      <point x="702" y="0" type="line"/>
      <point x="705" y="20" type="line"/>
      <point x="84" y="20" type="line"/>
      <point x="237" y="768" type="line"/>
      <point x="818" y="768" type="line"/>
      <point x="821" y="788" type="line"/>
      <point x="241" y="788" type="line"/>
      <point x="362" y="1380" type="line"/>
      <point x="978" y="1380" type="line"/>
      <point x="981" y="1400" type="line"/>
      <point x="343" y="1400" type="line"/>
    </contour>
  </outline>
</glyph>
<glyph name="F" format="2">
  <advance width="846"/>
  <unicode hex="0046"/>
  <anchor x="423" y="0" name="bottom"/>
  <anchor x="226" y="1400" name="top"/>
  <outline>
    <contour>
      <point x="58" y="0" type="line"/>
      <point x="80" y="0" type="line"/>
      <point x="232" y="746" type="line"/>
      <point x="757" y="746" type="line"/>
      <point x="760" y="766" type="line"/>
      <point x="236" y="766" type="line"/>
      <point x="361" y="1378" type="line"/>
      <point x="902" y="1378" type="line"/>
      <point x="907" y="1400" type="line"/>
      <point x="344" y="1400" type="line"/>
    </contour>
  </outline>
</glyph>
<glyph name="G" format="2">
  <advance width="1438"/>
  <unicode hex="0047"/>
  <anchor x="617" y="1" name="bottom"/>
  <anchor x="907" y="1416" name="top"/>
  <outline>
    <contour>
      <point x="631" y="-14" type="curve" smooth="yes"/>
      <point x="1025" y="-14"/>
      <point x="1277" y="347"/>
      <point x="1365" y="678" type="curve"/>
      <point x="819" y="680" type="line"/>
      <point x="816" y="660" type="line"/>
      <point x="1342" y="658" type="line"/>
      <point x="1249" y="347"/>
      <point x="1008" y="8"/>
      <point x="631" y="8" type="curve" smooth="yes"/>
      <point x="239" y="8"/>
      <point x="89" y="375"/>
      <point x="148" y="699" type="curve" smooth="yes"/>
      <point x="209" y="1035"/>
      <point x="513" y="1401"/>
      <point x="908" y="1394" type="curve" smooth="yes"/>
      <point x="1121" y="1390"/>
      <point x="1267" y="1278"/>
      <point x="1354" y="1100" type="curve"/>
      <point x="1374" y="1112" type="line"/>
      <point x="1271" y="1298"/>
      <point x="1123" y="1412"/>
      <point x="907" y="1416" type="curve" smooth="yes"/>
      <point x="514" y="1424"/>
      <point x="190" y="1062"/>
      <point x="126" y="699" type="curve" smooth="yes"/>
      <point x="66" y="357"/>
      <point x="232" y="-14"/>
    </contour>
  </outline>
</glyph>
<glyph name="H" format="2">
  <advance width="1216"/>
  <unicode hex="0048"/>
  <anchor x="608" y="0" name="bottom"/>
  <anchor x="510" y="700" name="center"/>
  <anchor x="799" y="1400" name="top"/>
  <anchor x="-177" y="1400" name="topleft"/>
  <outline>
    <contour>
      <point x="58" y="0" type="line"/>
      <point x="80" y="0" type="line"/>
      <point x="234" y="754" type="line"/>
      <point x="1070" y="754" type="line"/>
      <point x="916" y="0" type="line"/>
      <point x="938" y="0" type="line"/>
      <point x="1224" y="1398" type="line"/>
      <point x="1202" y="1398" type="line"/>
      <point x="1074" y="774" type="line"/>
      <point x="238" y="774" type="line"/>
      <point x="366" y="1398" type="line"/>
      <point x="344" y="1398" type="line"/>
    </contour>
  </outline>
</glyph>
<glyph name="I" format="2">
  <advance width="338"/>
  <unicode hex="0049"/>
  <anchor x="156" y="0" name="bottom"/>
  <anchor x="68" y="0" name="ogonek"/>
  <anchor x="342" y="1400" name="top"/>
  <anchor x="-177" y="1400" name="topleft"/>
  <outline>
    <contour>
      <point x="48" y="0" type="line"/>
      <point x="68" y="0" type="line"/>
      <point x="356" y="1398" type="line"/>
      <point x="336" y="1398" type="line"/>
    </contour>
  </outline>
</glyph>
<glyph name="J" format="2">
  <advance width="848"/>
  <unicode hex="004A"/>
  <anchor x="663" y="0" name="bottom"/>
  <anchor x="864" y="1398" name="top"/>
  <outline>
    <contour>
      <point x="340" y="-12" type="curve" smooth="yes"/>
      <point x="477" y="-16"/>
      <point x="595" y="103"/>
      <point x="636" y="306" type="curve" smooth="yes"/>
      <point x="856" y="1398" type="line"/>
      <point x="834" y="1398" type="line"/>
      <point x="617" y="326" type="line" smooth="yes"/>
      <point x="576" y="124"/>
      <point x="468" y="4"/>
      <point x="337" y="10" type="curve" smooth="yes"/>
      <point x="274" y="13"/>
      <point x="214" y="44"/>
      <point x="151" y="108" type="curve"/>
      <point x="137" y="96" type="line"/>
      <point x="200" y="26"/>
      <point x="267" y="-10"/>
    </contour>
  </outline>
</glyph>
<glyph name="K" format="2">
  <advance width="854"/>
  <unicode hex="004B"/>
  <anchor x="427" y="0" name="bottom"/>
  <anchor x="629" y="1400" name="top"/>
  <outline>
    <contour>
      <point x="688" y="0" type="line"/>
      <point x="714" y="0" type="line"/>
      <point x="242" y="742" type="line"/>
      <point x="974" y="1396" type="line"/>
      <point x="942" y="1396" type="line"/>
      <point x="217" y="746" type="line"/>
    </contour>
    <contour>
      <point x="48" y="0" type="line"/>
      <point x="70" y="0" type="line"/>
      <point x="356" y="1398" type="line"/>
      <point x="336" y="1398" type="line"/>
    </contour>
  </outline>
</glyph>
<glyph name="L" format="2">
  <advance width="808"/>
  <unicode hex="004C"/>
  <anchor x="404" y="0" name="bottom"/>
  <anchor x="214" y="700" name="center"/>
  <anchor x="657" y="1400" name="top"/>
  <anchor x="591" y="1400" name="topright"/>
  <outline>
    <contour>
      <point x="60" y="0" type="line"/>
      <point x="664" y="0" type="line"/>
      <point x="667" y="20" type="line"/>
      <point x="83" y="20" type="line"/>
      <point x="364" y="1398" type="line"/>
      <point x="344" y="1398" type="line"/>
    </contour>
  </outline>
</glyph>
<glyph name="M" format="2">
  <advance width="1560"/>
  <unicode hex="004D"/>
  <anchor x="671" y="256" name="bottom"/>
  <anchor x="960" y="1116" name="top"/>
  <outline>
    <contour>
      <point x="2" y="0" type="line"/>
      <point x="22" y="0" type="line"/>
      <point x="433" y="1348" type="line"/>
      <point x="715" y="208" type="line"/>
      <point x="1461" y="1344" type="line"/>
      <point x="1318" y="0" type="line"/>
      <point x="1338" y="0" type="line"/>
      <point x="1491" y="1432" type="line"/>
      <point x="723" y="264" type="line"/>
      <point x="435" y="1430" type="line"/>
    </contour>
  </outline>
</glyph>
<glyph name="N" format="2">
  <advance width="1250"/>
  <unicode hex="004E"/>
  <anchor x="434" y="0" name="bottom"/>
  <anchor x="800" y="1400" name="top"/>
  <outline>
    <contour>
      <point x="1004" y="-30" type="line"/>
      <point x="1296" y="1398" type="line"/>
      <point x="1274" y="1398" type="line"/>
      <point x="995" y="34" type="line"/>
      <point x="273" y="1430" type="line"/>
      <point x="-18" y="0" type="line"/>
      <point x="4" y="0" type="line"/>
      <point x="281" y="1356" type="line"/>
    </contour>
  </outline>
</glyph>
<glyph name="O" format="2">
  <advance width="1456"/>
  <unicode hex="004F"/>
  <anchor x="728" y="0" name="bottom"/>
  <anchor x="630" y="700" name="center"/>
  <anchor x="1309" y="10" name="ogonek"/>
  <anchor x="901" y="1416" name="top"/>
  <anchor x="-166" y="1400" name="topleft"/>
  <anchor x="1240" y="1400" name="topright"/>
  <outline>
    <contour>
      <point x="621" y="-16" type="curve" smooth="yes"/>
      <point x="1017" y="-20"/>
      <point x="1410" y="394"/>
      <point x="1410" y="847" type="curve" smooth="yes"/>
      <point x="1410" y="1181"/>
      <point x="1196" y="1413"/>
      <point x="901" y="1416" type="curve" smooth="yes"/>
      <point x="500" y="1420"/>
      <point x="112" y="1002"/>
      <point x="112" y="555" type="curve" smooth="yes"/>
      <point x="112" y="230"/>
      <point x="317" y="-13"/>
    </contour>
    <contour>
      <point x="620" y="6" type="curve" smooth="yes"/>
      <point x="331" y="9"/>
      <point x="133" y="236"/>
      <point x="133" y="552" type="curve" smooth="yes"/>
      <point x="133" y="991"/>
      <point x="516" y="1398"/>
      <point x="902" y="1394" type="curve" smooth="yes"/>
      <point x="1188" y="1391"/>
      <point x="1389" y="1165"/>
      <point x="1389" y="846" type="curve" smooth="yes"/>
      <point x="1389" y="410"/>
      <point x="1012" y="2"/>
    </contour>
  </outline>
</glyph>
<glyph name="P" format="2">
  <advance width="902"/>
  <unicode hex="0050"/>
  <anchor x="451" y="0" name="bottom"/>
  <anchor x="575" y="1400" name="top"/>
  <outline>
    <contour>
      <point x="58" y="0" type="line"/>
      <point x="80" y="0" type="line"/>
      <point x="200" y="588" type="line"/>
      <point x="415" y="588" type="line" smooth="yes"/>
      <point x="678" y="588"/>
      <point x="911" y="814"/>
      <point x="911" y="1070" type="curve" smooth="yes"/>
      <point x="911" y="1262"/>
      <point x="779" y="1400"/>
      <point x="575" y="1400" type="curve" smooth="yes"/>
      <point x="343" y="1400" type="line"/>
    </contour>
    <contour>
      <point x="205" y="608" type="line"/>
      <point x="362" y="1380" type="line"/>
      <point x="574" y="1380" type="line" smooth="yes"/>
      <point x="764" y="1380"/>
      <point x="889" y="1255"/>
      <point x="889" y="1071" type="curve" smooth="yes"/>
      <point x="889" y="823"/>
      <point x="664" y="608"/>
      <point x="417" y="608" type="curve" smooth="yes"/>
    </contour>
  </outline>
</glyph>
<glyph name="Q" format="2">
  <advance width="1450"/>
  <unicode hex="0051"/>
  <anchor x="725" y="0" name="bottom"/>
  <anchor x="528" y="1400" name="top"/>
  <outline>
    <contour>
      <point x="620" y="-16" type="curve" smooth="yes"/>
      <point x="1014" y="-20"/>
      <point x="1409" y="381"/>
      <point x="1409" y="842" type="curve" smooth="yes"/>
      <point x="1409" y="1181"/>
      <point x="1196" y="1412"/>
      <point x="901" y="1416" type="curve" smooth="yes"/>
      <point x="507" y="1421"/>
      <point x="112" y="1020"/>
      <point x="112" y="558" type="curve" smooth="yes"/>
      <point x="112" y="219"/>
      <point x="325" y="-13"/>
    </contour>
    <contour>
      <point x="1248" y="0" type="line"/>
      <point x="1278" y="0" type="line"/>
      <point x="791" y="600" type="line"/>
      <point x="763" y="600" type="line"/>
    </contour>
    <contour>
      <point x="619" y="6" type="curve" smooth="yes"/>
      <point x="330" y="9"/>
      <point x="133" y="232"/>
      <point x="133" y="555" type="curve" smooth="yes"/>
      <point x="133" y="1007"/>
      <point x="519" y="1398"/>
      <point x="902" y="1394" type="curve" smooth="yes"/>
      <point x="1186" y="1391"/>
      <point x="1388" y="1169"/>
      <point x="1388" y="844" type="curve" smooth="yes"/>
      <point x="1388" y="396"/>
      <point x="1006" y="2"/>
    </contour>
  </outline>
</glyph>
<glyph name="R" format="2">
  <advance width="880"/>
  <unicode hex="0052"/>
  <anchor x="347" y="0" name="bottom"/>
  <anchor x="685" y="1400" name="top"/>
  <outline>
    <contour>
      <point x="58" y="0" type="line"/>
      <point x="80" y="0" type="line"/>
      <point x="208" y="628" type="line"/>
      <point x="396" y="628" type="line"/>
      <point x="682" y="0" type="line"/>
      <point x="706" y="0" type="line"/>
      <point x="418" y="628" type="line"/>
      <point x="706" y="643"/>
      <point x="933" y="848"/>
      <point x="933" y="1087" type="curve" smooth="yes"/>
      <point x="933" y="1278"/>
      <point x="789" y="1400"/>
      <point x="552" y="1400" type="curve" smooth="yes"/>
      <point x="343" y="1400" type="line"/>
    </contour>
    <contour>
      <point x="212" y="648" type="line"/>
      <point x="360" y="1378" type="line"/>
      <point x="556" y="1378" type="line" smooth="yes"/>
      <point x="777" y="1378"/>
      <point x="914" y="1263"/>
      <point x="914" y="1085" type="curve" smooth="yes"/>
      <point x="914" y="857"/>
      <point x="687" y="658"/>
      <point x="405" y="648" type="curve"/>
    </contour>
  </outline>
</glyph>
<glyph name="S" format="2">
  <advance width="918"/>
  <unicode hex="0053"/>
  <anchor x="300" y="-10" name="bottom"/>
  <anchor x="650" y="1414" name="top"/>
  <outline>
    <contour>
      <point x="377" y="-14" type="curve" smooth="yes"/>
      <point x="602" y="-14"/>
      <point x="804" y="194"/>
      <point x="804" y="417" type="curve" smooth="yes"/>
      <point x="804" y="594"/>
      <point x="678" y="669"/>
      <point x="552" y="735" type="curve" smooth="yes"/>
      <point x="443" y="792"/>
      <point x="278" y="881"/>
      <point x="278" y="1047" type="curve" smooth="yes"/>
      <point x="278" y="1221"/>
      <point x="460" y="1394"/>
      <point x="651" y="1392" type="curve" smooth="yes"/>
      <point x="797" y="1390"/>
      <point x="892" y="1285"/>
      <point x="918" y="1096" type="curve"/>
      <point x="938" y="1100" type="line"/>
      <point x="909" y="1301"/>
      <point x="807" y="1412"/>
      <point x="649" y="1414" type="curve" smooth="yes"/>
      <point x="447" y="1416"/>
      <point x="257" y="1235"/>
      <point x="257" y="1054" type="curve" smooth="yes"/>
      <point x="257" y="862"/>
      <point x="471" y="754"/>
      <point x="539" y="718" type="curve" smooth="yes"/>
      <point x="665" y="652"/>
      <point x="781" y="580"/>
      <point x="781" y="415" type="curve" smooth="yes"/>
      <point x="781" y="203"/>
      <point x="591" y="8"/>
      <point x="377" y="8" type="curve" smooth="yes"/>
      <point x="203" y="8"/>
      <point x="98" y="136"/>
      <point x="65" y="394" type="curve"/>
      <point x="46" y="386" type="line"/>
      <point x="80" y="123"/>
      <point x="194" y="-14"/>
    </contour>
  </outline>
</glyph>
<glyph name="T" format="2">
  <advance width="810"/>
  <unicode hex="0054"/>
  <anchor x="227" y="-3" name="bottom"/>
  <anchor x="306" y="700" name="center"/>
  <anchor x="581" y="1400" name="top"/>
  <outline>
    <contour>
      <point x="284" y="0" type="line"/>
      <point x="306" y="0" type="line"/>
      <point x="584" y="1378" type="line"/>
      <point x="942" y="1378" type="line"/>
      <point x="947" y="1400" type="line"/>
      <point x="209" y="1400" type="line"/>
      <point x="206" y="1378" type="line"/>
      <point x="562" y="1378" type="line"/>
    </contour>
  </outline>
</glyph>
<glyph name="U" format="2">
  <advance width="1082"/>
  <unicode hex="0055"/>
  <anchor x="541" y="0" name="bottom"/>
  <anchor x="432" y="-18" name="ogonek"/>
  <anchor x="749" y="1400" name="top"/>
  <anchor x="865" y="1400" name="topright"/>
  <outline>
    <contour>
      <point x="432" y="-18" type="curve" smooth="yes"/>
      <point x="657" y="-20"/>
      <point x="847" y="162"/>
      <point x="904" y="441" type="curve" smooth="yes"/>
      <point x="1099" y="1398" type="line"/>
      <point x="1077" y="1398" type="line"/>
      <point x="879" y="441" type="line" smooth="yes"/>
      <point x="825" y="178"/>
      <point x="641" y="2"/>
      <point x="431" y="4" type="curve" smooth="yes"/>
      <point x="224" y="7"/>
      <point x="113" y="183"/>
      <point x="164" y="439" type="curve" smooth="yes"/>
      <point x="355" y="1398" type="line"/>
      <point x="335" y="1398" type="line"/>
      <point x="144" y="439" type="line" smooth="yes"/>
      <point x="90" y="167"/>
      <point x="211" y="-16"/>
    </contour>
  </outline>
</glyph>
<glyph name="W" format="2">
  <advance width="1786"/>
  <unicode hex="0057"/>
  <anchor x="893" y="0" name="bottom"/>
  <anchor x="1067" y="1432" name="top"/>
  <outline>
    <contour>
      <point x="404" y="-32" type="line"/>
      <point x="1054" y="1352" type="line"/>
      <point x="1232" y="-32" type="line"/>
      <point x="1919" y="1398" type="line"/>
      <point x="1897" y="1398" type="line"/>
      <point x="1244" y="54" type="line"/>
      <point x="1067" y="1432" type="line"/>
      <point x="416" y="54" type="line"/>
      <point x="225" y="1400" type="line"/>
      <point x="203" y="1400" type="line"/>
    </contour>
  </outline>
</glyph>
<glyph name="X" format="2">
  <advance width="940"/>
  <unicode hex="0058"/>
  <anchor x="470" y="0" name="bottom"/>
  <anchor x="273" y="1400" name="top"/>
  <outline>
    <contour>
      <point x="-34" y="0" type="line"/>
      <point x="-6" y="0" type="line"/>
      <point x="528" y="710" type="line"/>
      <point x="810" y="0" type="line"/>
      <point x="836" y="0" type="line"/>
      <point x="541" y="732" type="line"/>
      <point x="1044" y="1396" type="line"/>
      <point x="1016" y="1396" type="line"/>
      <point x="532" y="756" type="line"/>
      <point x="275" y="1400" type="line"/>
      <point x="249" y="1400" type="line"/>
      <point x="519" y="736" type="line"/>
    </contour>
  </outline>
</glyph>
<glyph name="Y" format="2">
  <advance width="954"/>
  <unicode hex="0059"/>
  <anchor x="477" y="0" name="bottom"/>
  <anchor x="657" y="1400" name="top"/>
  <anchor x="-177" y="1400" name="topleft"/>
  <outline>
    <contour>
      <point x="346" y="0" type="line"/>
      <point x="368" y="0" type="line"/>
      <point x="477" y="532" type="line"/>
      <point x="1102" y="1396" type="line"/>
      <point x="1076" y="1396" type="line"/>
      <point x="468" y="564" type="line"/>
      <point x="225" y="1400" type="line"/>
      <point x="201" y="1400" type="line"/>
      <point x="457" y="534" type="line"/>
    </contour>
  </outline>
</glyph>
<glyph name="Z" format="2">
  <advance width="1006"/>
  <unicode hex="005A"/>
  <anchor x="503" y="0" name="bottom"/>
  <anchor x="405" y="700" name="center"/>
  <anchor x="833" y="1400" name="top"/>
  <outline>
    <contour>
      <point x="-74" y="0" type="line"/>
      <point x="852" y="0" type="line"/>
      <point x="857" y="24" type="line"/>
      <point x="-23" y="24" type="line"/>
      <point x="1153" y="1400" type="line"/>
      <point x="247" y="1400" type="line"/>
      <point x="242" y="1378" type="line"/>
      <point x="1104" y="1378" type="line"/>
    </contour>
  </outline>
</glyph>
<glyph name="bracketleft" format="2">
  <advance width="488"/>
  <unicode hex="005B"/>
  <outline>
    <contour>
      <point x="44" y="-440" type="line"/>
      <point x="310" y="-440" type="line"/>
      <point x="313" y="-418" type="line"/>
      <point x="71" y="-418" type="line"/>
      <point x="400" y="1538" type="line"/>
      <point x="642" y="1538" type="line"/>
      <point x="645" y="1560" type="line"/>
      <point x="381" y="1560" type="line"/>
    </contour>
  </outline>
</glyph>
<glyph name="backslash" format="2">
  <advance width="818"/>
  <unicode hex="005C"/>
  <outline>
    <contour>
      <point x="658" y="0" type="line"/>
      <point x="682" y="0" type="line"/>
      <point x="225" y="1400" type="line"/>
      <point x="201" y="1400" type="line"/>
    </contour>
  </outline>
</glyph>
<glyph name="bracketright" format="2">
  <advance width="488"/>
  <unicode hex="005D"/>
  <outline>
    <contour>
      <point x="-104" y="-440" type="line"/>
      <point x="158" y="-440" type="line"/>
      <point x="495" y="1560" type="line"/>
      <point x="231" y="1560" type="line"/>
      <point x="226" y="1538" type="line"/>
      <point x="468" y="1538" type="line"/>
      <point x="141" y="-418" type="line"/>
      <point x="-101" y="-418" type="line"/>
    </contour>
  </outline>
</glyph>
<glyph name="asciicircum" format="2">
  <advance width="958"/>
  <unicode hex="005E"/>
  <outline>
    <contour>
      <point x="194" y="922" type="line"/>
      <point x="224" y="922" type="line"/>
      <point x="650" y="1380" type="line"/>
      <point x="892" y="922" type="line"/>
      <point x="916" y="922" type="line"/>
      <point x="653" y="1416" type="line"/>
      <point x="655" y="1416" type="line"/>
    </contour>
  </outline>
</glyph>
<glyph name="underscore" format="2">
  <advance width="940"/>
  <unicode hex="005F"/>
  <outline>
    <contour>
      <point x="-153" y="-218" type="line"/>
      <point x="789" y="-218" type="line"/>
      <point x="794" y="-196" type="line"/>
      <point x="-148" y="-196" type="line"/>
    </contour>
  </outline>
</glyph>
<glyph name="a" format="2">
  <advance width="818"/>
  <unicode hex="0061"/>
  <anchor x="409" y="0" name="bottom"/>
  <anchor x="576" y="0" name="ogonek"/>
  <anchor x="566" y="938" name="top"/>
  <outline>
    <contour>
      <point x="556" y="0" type="line"/>
      <point x="576" y="0" type="line"/>
      <point x="704" y="641" type="line" smooth="yes"/>
      <point x="740" y="820"/>
      <point x="662" y="933"/>
      <point x="516" y="938" type="curve" smooth="yes"/>
      <point x="425" y="941"/>
      <point x="325" y="901"/>
      <point x="196" y="810" type="curve"/>
      <point x="207" y="792" type="line"/>
      <point x="336" y="883"/>
      <point x="431" y="921"/>
      <point x="517" y="918" type="curve" smooth="yes"/>
      <point x="652" y="913"/>
      <point x="720" y="807"/>
      <point x="686" y="641" type="curve" smooth="yes"/>
    </contour>
    <contour>
      <point x="254" y="-18" type="curve" smooth="yes"/>
      <point x="418" y="-18"/>
      <point x="566" y="110"/>
      <point x="638" y="316" type="curve"/>
      <point x="628" y="316" type="line"/>
      <point x="552" y="122"/>
      <point x="409" y="2"/>
      <point x="252" y="2" type="curve" smooth="yes"/>
      <point x="99" y="2"/>
      <point x="8" y="123"/>
      <point x="40" y="270" type="curve" smooth="yes"/>
      <point x="75" y="429"/>
      <point x="236" y="540"/>
      <point x="418" y="540" type="curve" smooth="yes"/>
      <point x="509" y="540"/>
      <point x="584" y="512"/>
      <point x="657" y="452" type="curve"/>
      <point x="662" y="470" type="line"/>
      <point x="584" y="533"/>
      <point x="512" y="560"/>
      <point x="420" y="560" type="curve" smooth="yes"/>
      <point x="221" y="560"/>
      <point x="55" y="437"/>
      <point x="20" y="273" type="curve" smooth="yes"/>
      <point x="-14" y="117"/>
      <point x="85" y="-18"/>
    </contour>
  </outline>
</glyph>
<glyph name="b" format="2">
  <advance width="1018"/>
  <unicode hex="0062"/>
  <anchor x="509" y="0" name="bottom"/>
  <anchor x="284" y="1600" name="top"/>
  <outline>
    <contour>
      <point x="40" y="0" type="line"/>
      <point x="58" y="0" type="line"/>
      <point x="377" y="1558" type="line"/>
      <point x="357" y="1558" type="line"/>
    </contour>
    <contour>
      <point x="430" y="-18" type="curve" smooth="yes"/>
      <point x="687" y="-18"/>
      <point x="930" y="277"/>
      <point x="930" y="569" type="curve" smooth="yes"/>
      <point x="930" y="789"/>
      <point x="793" y="941"/>
      <point x="610" y="938" type="curve" smooth="yes"/>
      <point x="357" y="934"/>
      <point x="127" y="641"/>
      <point x="127" y="344" type="curve" smooth="yes"/>
      <point x="127" y="129"/>
      <point x="248" y="-18"/>
    </contour>
    <contour>
      <point x="428" y="2" type="curve" smooth="yes"/>
      <point x="257" y="2"/>
      <point x="141" y="142"/>
      <point x="141" y="347" type="curve" smooth="yes"/>
      <point x="141" y="632"/>
      <point x="367" y="914"/>
      <point x="605" y="918" type="curve" smooth="yes"/>
      <point x="780" y="921"/>
      <point x="911" y="775"/>
      <point x="911" y="568" type="curve" smooth="yes"/>
      <point x="911" y="290"/>
      <point x="674" y="2"/>
    </contour>
  </outline>
</glyph>
<glyph name="c" format="2">
  <advance width="918"/>
  <unicode hex="0063"/>
  <anchor x="375" y="-5" name="bottom"/>
  <anchor x="600" y="938" name="top"/>
  <outline>
    <contour>
      <point x="444" y="-18" type="curve" smooth="yes"/>
      <point x="545" y="-18"/>
      <point x="651" y="20"/>
      <point x="754" y="94" type="curve"/>
      <point x="759" y="118" type="line"/>
      <point x="648" y="39"/>
      <point x="545" y="1"/>
      <point x="443" y="2" type="curve" smooth="yes"/>
      <point x="244" y="5"/>
      <point x="95" y="167"/>
      <point x="95" y="386" type="curve" smooth="yes"/>
      <point x="95" y="666"/>
      <point x="337" y="918"/>
      <point x="600" y="918" type="curve" smooth="yes"/>
      <point x="704" y="918"/>
      <point x="793" y="879"/>
      <point x="871" y="800" type="curve"/>
      <point x="876" y="824" type="line"/>
      <point x="793" y="900"/>
      <point x="702" y="937"/>
      <point x="600" y="938" type="curve" smooth="yes"/>
      <point x="329" y="940"/>
      <point x="77" y="680"/>
      <point x="77" y="385" type="curve" smooth="yes"/>
      <point x="77" y="154"/>
      <point x="232" y="-18"/>
    </contour>
  </outline>
</glyph>
<glyph name="d" format="2">
  <advance width="1018"/>
  <unicode hex="0064"/>
  <anchor x="509" y="0" name="bottom"/>
  <anchor x="445" y="460" name="center"/>
  <anchor x="284" y="1600" name="top"/>
  <anchor x="869" y="920" name="topright"/>
  <outline>
    <contour>
      <point x="375" y="-18" type="curve" smooth="yes"/>
      <point x="633" y="-18"/>
      <point x="859" y="265"/>
      <point x="859" y="566" type="curve" smooth="yes"/>
      <point x="859" y="789"/>
      <point x="738" y="938"/>
      <point x="554" y="938" type="curve" smooth="yes"/>
      <point x="302" y="938"/>
      <point x="58" y="661"/>
      <point x="58" y="356" type="curve" smooth="yes"/>
      <point x="58" y="135"/>
      <point x="187" y="-18"/>
    </contour>
    <contour>
      <point x="375" y="2" type="curve" smooth="yes"/>
      <point x="198" y="2"/>
      <point x="79" y="149"/>
      <point x="79" y="356" type="curve" smooth="yes"/>
      <point x="79" y="642"/>
      <point x="305" y="918"/>
      <point x="548" y="918" type="curve" smooth="yes"/>
      <point x="726" y="918"/>
      <point x="843" y="770"/>
      <point x="843" y="560" type="curve" smooth="yes"/>
      <point x="843" y="266"/>
      <point x="612" y="2"/>
    </contour>
    <contour>
      <point x="738" y="0" type="line"/>
      <point x="756" y="0" type="line"/>
      <point x="1075" y="1558" type="line"/>
      <point x="1055" y="1558" type="line"/>
    </contour>
  </outline>
</glyph>
<glyph name="e" format="2">
  <advance width="944"/>
  <unicode hex="0065"/>
  <anchor x="472" y="0" name="bottom"/>
  <anchor x="410" y="-18" name="ogonek"/>
  <anchor x="654" y="920" name="top"/>
  <outline>
    <contour>
      <point x="412" y="-18" type="curve" smooth="yes"/>
      <point x="547" y="-18"/>
      <point x="688" y="61"/>
      <point x="816" y="210" type="curve"/>
      <point x="800" y="224" type="line"/>
      <point x="672" y="77"/>
      <point x="534" y="2"/>
      <point x="410" y="2" type="curve" smooth="yes"/>
      <point x="230" y="2"/>
      <point x="106" y="158"/>
      <point x="106" y="373" type="curve" smooth="yes"/>
      <point x="106" y="653"/>
      <point x="316" y="916"/>
      <point x="559" y="916" type="curve" smooth="yes"/>
      <point x="738" y="916"/>
      <point x="863" y="772"/>
      <point x="863" y="589" type="curve" smooth="yes"/>
      <point x="863" y="543"/>
      <point x="855" y="501"/>
      <point x="839" y="457" type="curve"/>
      <point x="861" y="476" type="line"/>
      <point x="109" y="476" type="line"/>
      <point x="106" y="456" type="line"/>
      <point x="864" y="456" type="line"/>
      <point x="876" y="503"/>
      <point x="883" y="541"/>
      <point x="883" y="585" type="curve" smooth="yes"/>
      <point x="883" y="778"/>
      <point x="750" y="933"/>
      <point x="566" y="938" type="curve" smooth="yes"/>
      <point x="331" y="944"/>
      <point x="85" y="686"/>
      <point x="85" y="373" type="curve" smooth="yes"/>
      <point x="85" y="146"/>
      <point x="218" y="-18"/>
    </contour>
  </outline>
</glyph>
<glyph name="f" format="2">
  <advance width="522"/>
  <unicode hex="0066"/>
  <anchor x="261" y="0" name="bottom"/>
  <anchor x="36" y="1600" name="top"/>
  <outline>
    <contour>
      <point x="68" y="0" type="line"/>
      <point x="88" y="0" type="line"/>
      <point x="271" y="900" type="line"/>
      <point x="534" y="900" type="line"/>
      <point x="537" y="920" type="line"/>
      <point x="275" y="920" type="line"/>
      <point x="355" y="1299" type="line" smooth="yes"/>
      <point x="389" y="1460"/>
      <point x="477" y="1554"/>
      <point x="579" y="1554" type="curve" smooth="yes"/>
      <point x="631" y="1554"/>
      <point x="668" y="1530"/>
      <point x="718" y="1466" type="curve"/>
      <point x="732" y="1480" type="line"/>
      <point x="681" y="1546"/>
      <point x="633" y="1574"/>
      <point x="576" y="1574" type="curve" smooth="yes"/>
      <point x="464" y="1574"/>
      <point x="368" y="1471"/>
      <point x="332" y="1299" type="curve" smooth="yes"/>
      <point x="253" y="920" type="line"/>
      <point x="171" y="920" type="line"/>
      <point x="166" y="900" type="line"/>
      <point x="249" y="900" type="line"/>
    </contour>
  </outline>
</glyph>
<glyph name="g" format="2">
  <advance width="1018"/>
  <unicode hex="0067"/>
  <anchor x="213" y="-448" name="bottom"/>
  <anchor x="769" y="920" name="top"/>
  <outline>
    <contour>
      <point x="276" y="-458" type="curve" smooth="yes"/>
      <point x="505" y="-461"/>
      <point x="708" y="-263"/>
      <point x="765" y="20" type="curve" smooth="yes"/>
      <point x="947" y="918" type="line"/>
      <point x="927" y="918" type="line"/>
      <point x="743" y="20" type="line" smooth="yes"/>
      <point x="688" y="-250"/>
      <point x="492" y="-441"/>
      <point x="275" y="-438" type="curve" smooth="yes"/>
      <point x="87" y="-435"/>
      <point x="-15" y="-288"/>
      <point x="14" y="-60" type="curve"/>
      <point x="-6" y="-60" type="line"/>
      <point x="-31" y="-304"/>
      <point x="78" y="-456"/>
    </contour>
    <contour>
      <point x="374" y="-18" type="curve" smooth="yes"/>
      <point x="626" y="-15"/>
      <point x="860" y="272"/>
      <point x="860" y="566" type="curve" smooth="yes"/>
      <point x="860" y="783"/>
      <point x="734" y="938"/>
      <point x="553" y="938" type="curve" smooth="yes"/>
      <point x="307" y="938"/>
      <point x="57" y="653"/>
      <point x="57" y="353" type="curve" smooth="yes"/>
      <point x="57" y="135"/>
      <point x="189" y="-20"/>
    </contour>
    <contour>
      <point x="379" y="2" type="curve" smooth="yes"/>
      <point x="203" y="0"/>
      <point x="75" y="148"/>
      <point x="75" y="352" type="curve" smooth="yes"/>
      <point x="75" y="642"/>
      <point x="332" y="930"/>
      <point x="568" y="918" type="curve" smooth="yes"/>
      <point x="733" y="910"/>
      <point x="845" y="758"/>
      <point x="845" y="562" type="curve" smooth="yes"/>
      <point x="845" y="284"/>
      <point x="621" y="5"/>
    </contour>
  </outline>
</glyph>
<glyph name="h" format="2">
  <advance width="892"/>
  <unicode hex="0068"/>
  <anchor x="446" y="0" name="bottom"/>
  <anchor x="334" y="800" name="center"/>
  <anchor x="796" y="1400" name="top"/>
  <outline>
    <contour>
      <point x="48" y="0" type="line"/>
      <point x="68" y="0" type="line"/>
      <point x="387" y="1558" type="line"/>
      <point x="367" y="1558" type="line"/>
    </contour>
    <contour>
      <point x="604" y="0" type="line"/>
      <point x="622" y="0" type="line"/>
      <point x="753" y="641" type="line" smooth="yes"/>
      <point x="790" y="820"/>
      <point x="710" y="936"/>
      <point x="562" y="938" type="curve" smooth="yes"/>
      <point x="395" y="940"/>
      <point x="247" y="799"/>
      <point x="169" y="564" type="curve"/>
      <point x="179" y="564" type="line"/>
      <point x="259" y="787"/>
      <point x="406" y="921"/>
      <point x="563" y="918" type="curve" smooth="yes"/>
      <point x="698" y="915"/>
      <point x="766" y="812"/>
      <point x="732" y="641" type="curve" smooth="yes"/>
    </contour>
  </outline>
</glyph>
<glyph name="i" format="2">
  <advance width="352"/>
  <unicode hex="0069"/>
  <anchor x="208" y="0" name="bottom"/>
  <anchor x="68" y="0" name="ogonek"/>
  <anchor x="401" y="920" name="top"/>
  <outline>
    <contour>
      <point x="48" y="0" type="line"/>
      <point x="68" y="0" type="line"/>
      <point x="261" y="920" type="line"/>
      <point x="241" y="920" type="line"/>
    </contour>
    <contour>
      <point x="333" y="1368" type="curve" smooth="yes"/>
      <point x="345" y="1368"/>
      <point x="356" y="1380"/>
      <point x="356" y="1393" type="curve" smooth="yes"/>
      <point x="356" y="1405"/>
      <point x="348" y="1412"/>
      <point x="337" y="1412" type="curve" smooth="yes"/>
      <point x="324" y="1412"/>
      <point x="314" y="1403"/>
      <point x="314" y="1390" type="curve" smooth="yes"/>
      <point x="314" y="1377"/>
      <point x="322" y="1368"/>
    </contour>
  </outline>
</glyph>
<glyph name="j" format="2">
  <advance width="338"/>
  <unicode hex="006A"/>
  <anchor x="333" y="1413" name="top"/>
  <outline>
    <contour>
      <point x="-201" y="-438" type="curve" smooth="yes"/>
      <point x="-95" y="-438"/>
      <point x="-11" y="-343"/>
      <point x="26" y="-164" type="curve" smooth="yes"/>
      <point x="249" y="918" type="line"/>
      <point x="229" y="918" type="line"/>
      <point x="6" y="-163" type="line" smooth="yes"/>
      <point x="-27" y="-323"/>
      <point x="-110" y="-418"/>
      <point x="-204" y="-418" type="curve" smooth="yes"/>
      <point x="-254" y="-418"/>
      <point x="-306" y="-389"/>
      <point x="-358" y="-330" type="curve"/>
      <point x="-374" y="-344" type="line"/>
      <point x="-315" y="-408"/>
      <point x="-259" y="-438"/>
    </contour>
    <contour>
      <point x="329" y="1369" type="curve" smooth="yes"/>
      <point x="342" y="1369"/>
      <point x="352" y="1381"/>
      <point x="352" y="1394" type="curve" smooth="yes"/>
      <point x="352" y="1406"/>
      <point x="344" y="1413"/>
      <point x="333" y="1413" type="curve" smooth="yes"/>
      <point x="320" y="1413"/>
      <point x="310" y="1404"/>
      <point x="310" y="1391" type="curve" smooth="yes"/>
      <point x="310" y="1378"/>
      <point x="319" y="1369"/>
    </contour>
  </outline>
</glyph>
<glyph name="k" format="2">
  <advance width="700"/>
  <unicode hex="006B"/>
  <anchor x="350" y="0" name="bottom"/>
  <anchor x="590" y="1600" name="top"/>
  <outline>
    <contour>
      <point x="40" y="0" type="line"/>
      <point x="58" y="0" type="line"/>
      <point x="377" y="1558" type="line"/>
      <point x="357" y="1558" type="line"/>
    </contour>
    <contour>
      <point x="550" y="0" type="line"/>
      <point x="572" y="0" type="line"/>
      <point x="185" y="544" type="line"/>
      <point x="184" y="535" type="line"/>
      <point x="725" y="916" type="line"/>
      <point x="693" y="916" type="line"/>
      <point x="166" y="542" type="line"/>
    </contour>
  </outline>
</glyph>
<glyph name="l" format="2">
  <advance width="338"/>
  <unicode hex="006C"/>
  <anchor x="169" y="0" name="bottom"/>
  <anchor x="57" y="800" name="center"/>
  <anchor x="367" y="1558" name="top"/>
  <anchor x="432" y="1564" name="topright"/>
  <outline>
    <contour>
      <point x="48" y="0" type="line"/>
      <point x="68" y="0" type="line"/>
      <point x="387" y="1558" type="line"/>
      <point x="367" y="1558" type="line"/>
    </contour>
  </outline>
</glyph>
<glyph name="m" format="2">
  <advance width="1301"/>
  <unicode hex="006D"/>
  <anchor x="471" y="0" name="bottom"/>
  <anchor x="728" y="920" name="top"/>
  <outline>
    <contour>
      <point x="48" y="0" type="line"/>
      <point x="68" y="0" type="line"/>
      <point x="183" y="549" type="line" smooth="yes"/>
      <point x="228" y="764"/>
      <point x="376" y="924"/>
      <point x="525" y="918" type="curve" smooth="yes"/>
      <point x="643" y="913"/>
      <point x="694" y="805"/>
      <point x="660" y="640" type="curve" smooth="yes"/>
      <point x="528" y="0" type="line"/>
      <point x="548" y="0" type="line"/>
      <point x="663" y="561" type="line" smooth="yes"/>
      <point x="703" y="756"/>
      <point x="863" y="924"/>
      <point x="1005" y="918" type="curve" smooth="yes"/>
      <point x="1119" y="913"/>
      <point x="1173" y="799"/>
      <point x="1140" y="640" type="curve" smooth="yes"/>
      <point x="1008" y="0" type="line"/>
      <point x="1028" y="0" type="line"/>
      <point x="1160" y="640" type="line" smooth="yes"/>
      <point x="1196" y="815"/>
      <point x="1134" y="933"/>
      <point x="1004" y="938" type="curve" smooth="yes"/>
      <point x="877" y="943"/>
      <point x="760" y="839"/>
      <point x="680" y="665" type="curve"/>
      <point x="704" y="831"/>
      <point x="646" y="933"/>
      <point x="524" y="938" type="curve" smooth="yes"/>
      <point x="403" y="943"/>
      <point x="286" y="850"/>
      <point x="206" y="664" type="curve"/>
      <point x="259" y="918" type="line"/>
      <point x="239" y="918" type="line"/>
    </contour>
  </outline>
</glyph>
<glyph name="n" format="2">
  <advance width="890"/>
  <unicode hex="006E"/>
  <anchor x="299" y="0" name="bottom"/>
  <anchor x="562" y="938" name="top"/>
  <outline>
    <contour>
      <point x="48" y="0" type="line"/>
      <point x="68" y="0" type="line"/>
      <point x="180" y="538" type="line" smooth="yes"/>
      <point x="224" y="749"/>
      <point x="390" y="918"/>
      <point x="558" y="918" type="curve" smooth="yes"/>
      <point x="695" y="918"/>
      <point x="770" y="803"/>
      <point x="736" y="640" type="curve" smooth="yes"/>
      <point x="604" y="0" type="line"/>
      <point x="622" y="0" type="line"/>
      <point x="756" y="640" type="line" smooth="yes"/>
      <point x="792" y="813"/>
      <point x="714" y="935"/>
      <point x="562" y="938" type="curve" smooth="yes"/>
      <point x="420" y="941"/>
      <point x="289" y="837"/>
      <point x="204" y="655" type="curve"/>
      <point x="260" y="920" type="line"/>
      <point x="240" y="920" type="line"/>
    </contour>
  </outline>
</glyph>
<glyph name="o" format="2">
  <advance width="1046"/>
  <unicode hex="006F"/>
  <anchor x="523" y="0" name="bottom"/>
  <anchor x="458" y="460" name="center"/>
  <anchor x="461" y="0" name="ogonek"/>
  <anchor x="610" y="938" name="top"/>
  <anchor x="896" y="920" name="topright"/>
  <outline>
    <contour>
      <point x="452" y="-18" type="curve" smooth="yes"/>
      <point x="705" y="-22"/>
      <point x="977" y="224"/>
      <point x="977" y="538" type="curve" smooth="yes"/>
      <point x="977" y="770"/>
      <point x="820" y="934"/>
      <point x="610" y="938" type="curve" smooth="yes"/>
      <point x="337" y="943"/>
      <point x="85" y="675"/>
      <point x="85" y="383" type="curve" smooth="yes"/>
      <point x="85" y="155"/>
      <point x="238" y="-14"/>
    </contour>
    <contour>
      <point x="451" y="2" type="curve" smooth="yes"/>
      <point x="248" y="6"/>
      <point x="105" y="168"/>
      <point x="105" y="382" type="curve" smooth="yes"/>
      <point x="105" y="663"/>
      <point x="352" y="924"/>
      <point x="611" y="918" type="curve" smooth="yes"/>
      <point x="813" y="914"/>
      <point x="957" y="750"/>
      <point x="957" y="534" type="curve" smooth="yes"/>
      <point x="957" y="243"/>
      <point x="698" y="-2"/>
    </contour>
  </outline>
</glyph>
<glyph name="p" format="2">
  <advance width="1018"/>
  <unicode hex="0070"/>
  <anchor x="509" y="0" name="bottom"/>
  <anchor x="460" y="920" name="top"/>
  <outline>
    <contour>
      <point x="-50" y="-438" type="line"/>
      <point x="-30" y="-438" type="line"/>
      <point x="249" y="918" type="line"/>
      <point x="229" y="918" type="line"/>
    </contour>
    <contour>
      <point x="434" y="-18" type="curve" smooth="yes"/>
      <point x="684" y="-18"/>
      <point x="929" y="258"/>
      <point x="929" y="562" type="curve" smooth="yes"/>
      <point x="929" y="783"/>
      <point x="799" y="938"/>
      <point x="612" y="938" type="curve" smooth="yes"/>
      <point x="375" y="938"/>
      <point x="133" y="678"/>
      <point x="133" y="354" type="curve" smooth="yes"/>
      <point x="133" y="132"/>
      <point x="250" y="-18"/>
    </contour>
    <contour>
      <point x="416" y="2" type="curve" smooth="yes"/>
      <point x="258" y="10"/>
      <point x="147" y="145"/>
      <point x="147" y="353" type="curve" smooth="yes"/>
      <point x="147" y="645"/>
      <point x="365" y="918"/>
      <point x="607" y="918" type="curve" smooth="yes"/>
      <point x="786" y="918"/>
      <point x="909" y="770"/>
      <point x="909" y="562" type="curve" smooth="yes"/>
      <point x="909" y="261"/>
      <point x="651" y="-11"/>
    </contour>
  </outline>
</glyph>
<glyph name="q" format="2">
  <advance width="1018"/>
  <unicode hex="0071"/>
  <anchor x="509" y="0" name="bottom"/>
  <anchor x="380" y="920" name="top"/>
  <outline>
    <contour>
      <point x="375" y="-18" type="curve" smooth="yes"/>
      <point x="629" y="-16"/>
      <point x="853" y="265"/>
      <point x="853" y="568" type="curve" smooth="yes"/>
      <point x="853" y="789"/>
      <point x="735" y="938"/>
      <point x="552" y="938" type="curve" smooth="yes"/>
      <point x="303" y="938"/>
      <point x="58" y="660"/>
      <point x="58" y="356" type="curve" smooth="yes"/>
      <point x="58" y="135"/>
      <point x="188" y="-19"/>
    </contour>
    <contour>
      <point x="375" y="2" type="curve" smooth="yes"/>
      <point x="199" y="2"/>
      <point x="78" y="148"/>
      <point x="78" y="356" type="curve" smooth="yes"/>
      <point x="78" y="642"/>
      <point x="305" y="918"/>
      <point x="548" y="918" type="curve" smooth="yes"/>
      <point x="726" y="918"/>
      <point x="843" y="770"/>
      <point x="843" y="561" type="curve" smooth="yes"/>
      <point x="843" y="267"/>
      <point x="612" y="2"/>
    </contour>
    <contour>
      <point x="650" y="-438" type="line"/>
      <point x="668" y="-438" type="line"/>
      <point x="947" y="918" type="line"/>
      <point x="927" y="918" type="line"/>
    </contour>
  </outline>
</glyph>
<glyph name="r" format="2">
  <advance width="544"/>
  <unicode hex="0072"/>
  <guideline x="591" y="939" angle="0"/>
  <anchor x="227" y="0" name="bottom"/>
  <anchor x="438" y="920" name="top"/>
  <outline>
    <contour>
      <point x="48" y="0" type="line"/>
      <point x="68" y="0" type="line"/>
      <point x="259" y="918" type="line"/>
      <point x="239" y="918" type="line"/>
    </contour>
    <contour>
      <point x="169" y="562" type="curve"/>
      <point x="180" y="562" type="line"/>
      <point x="255" y="810"/>
      <point x="346" y="922"/>
      <point x="465" y="922" type="curve" smooth="yes"/>
      <point x="501" y="922"/>
      <point x="528" y="912"/>
      <point x="579" y="878" type="curve"/>
      <point x="588" y="893" type="line"/>
      <point x="534" y="928"/>
      <point x="502" y="939"/>
      <point x="464" y="939" type="curve" smooth="yes"/>
      <point x="336" y="939"/>
      <point x="243" y="819"/>
    </contour>
  </outline>
</glyph>
<glyph name="s" format="2">
  <advance width="758"/>
  <unicode hex="0073"/>
  <anchor x="241" y="-13" name="bottom"/>
  <anchor x="525" y="930" name="top"/>
  <outline>
    <contour>
      <point x="302" y="-22" type="curve" smooth="yes"/>
      <point x="462" y="-22"/>
      <point x="601" y="91"/>
      <point x="601" y="237" type="curve" smooth="yes"/>
      <point x="601" y="391"/>
      <point x="448" y="457"/>
      <point x="380" y="485" type="curve" smooth="yes"/>
      <point x="307" y="515"/>
      <point x="193" y="570"/>
      <point x="193" y="684" type="curve" smooth="yes"/>
      <point x="193" y="806"/>
      <point x="322" y="909"/>
      <point x="461" y="909" type="curve" smooth="yes"/>
      <point x="532" y="909"/>
      <point x="591" y="882"/>
      <point x="630" y="831" type="curve"/>
      <point x="641" y="844" type="line"/>
      <point x="600" y="897"/>
      <point x="538" y="925"/>
      <point x="458" y="925" type="curve" smooth="yes"/>
      <point x="301" y="925"/>
      <point x="173" y="817"/>
      <point x="173" y="687" type="curve" smooth="yes"/>
      <point x="173" y="544"/>
      <point x="329" y="484"/>
      <point x="375" y="465" type="curve" smooth="yes"/>
      <point x="473" y="425"/>
      <point x="581" y="363"/>
      <point x="581" y="244" type="curve" smooth="yes"/>
      <point x="581" y="112"/>
      <point x="450" y="-6"/>
      <point x="299" y="-6" type="curve" smooth="yes"/>
      <point x="212" y="-6"/>
      <point x="147" y="33"/>
      <point x="100" y="109" type="curve"/>
      <point x="95" y="87" type="line"/>
      <point x="142" y="14"/>
      <point x="211" y="-22"/>
    </contour>
  </outline>
</glyph>
<glyph name="u" format="2">
  <advance width="892"/>
  <unicode hex="0075"/>
  <anchor x="446" y="0" name="bottom"/>
  <anchor x="624" y="0" name="ogonek"/>
  <anchor x="500" y="920" name="top"/>
  <anchor x="743" y="920" name="topright"/>
  <outline>
    <contour>
      <point x="299" y="-18" type="curve" smooth="yes"/>
      <point x="451" y="-21"/>
      <point x="599" y="96"/>
      <point x="659" y="268" type="curve"/>
      <point x="604" y="0" type="line"/>
      <point x="624" y="0" type="line"/>
      <point x="813" y="918" type="line"/>
      <point x="793" y="918" type="line"/>
      <point x="693" y="428" type="line" smooth="yes"/>
      <point x="640" y="166"/>
      <point x="484" y="-2"/>
      <point x="300" y="2" type="curve" smooth="yes"/>
      <point x="154" y="5"/>
      <point x="91" y="115"/>
      <point x="130" y="300" type="curve" smooth="yes"/>
      <point x="259" y="918" type="line"/>
      <point x="239" y="918" type="line"/>
      <point x="110" y="300" type="line" smooth="yes"/>
      <point x="70" y="110"/>
      <point x="144" y="-15"/>
    </contour>
  </outline>
</glyph>
<glyph name="v" format="2">
  <advance width="790"/>
  <unicode hex="0076"/>
  <anchor x="395" y="0" name="bottom"/>
  <anchor x="266" y="920" name="top"/>
  <outline>
    <contour>
      <point x="321" y="-30" type="line"/>
      <point x="861" y="918" type="line"/>
      <point x="837" y="918" type="line"/>
      <point x="327" y="22" type="line"/>
      <point x="127" y="920" type="line"/>
      <point x="105" y="920" type="line"/>
    </contour>
  </outline>
</glyph>
<glyph name="w" format="2">
  <advance width="1166"/>
  <unicode hex="0077"/>
  <anchor x="583" y="0" name="bottom"/>
  <anchor x="662" y="920" name="top"/>
  <outline>
    <contour>
      <point x="187" y="-32" type="line"/>
      <point x="647" y="880" type="line"/>
      <point x="745" y="-32" type="line"/>
      <point x="1219" y="918" type="line"/>
      <point x="1199" y="918" type="line"/>
      <point x="757" y="38" type="line"/>
      <point x="659" y="952" type="line"/>
      <point x="201" y="40" type="line"/>
      <point x="125" y="920" type="line"/>
      <point x="107" y="920" type="line"/>
    </contour>
  </outline>
</glyph>
<glyph name="x" format="2">
  <advance width="714"/>
  <unicode hex="0078"/>
  <anchor x="357" y="0" name="bottom"/>
  <anchor x="228" y="920" name="top"/>
  <outline>
    <contour>
      <point x="-52" y="0" type="line"/>
      <point x="-22" y="0" type="line"/>
      <point x="368" y="458" type="line"/>
      <point x="604" y="0" type="line"/>
      <point x="628" y="0" type="line"/>
      <point x="382" y="472" type="line"/>
      <point x="765" y="916" type="line"/>
      <point x="737" y="916" type="line"/>
      <point x="371" y="490" type="line"/>
      <point x="147" y="920" type="line"/>
      <point x="123" y="920" type="line"/>
      <point x="357" y="476" type="line"/>
    </contour>
  </outline>
</glyph>
<glyph name="y" format="2">
  <advance width="798"/>
  <unicode hex="0079"/>
  <anchor x="399" y="0" name="bottom"/>
  <anchor x="485" y="920" name="top"/>
  <outline>
    <contour>
      <point x="-5" y="-437" type="line"/>
      <point x="17" y="-437" type="line"/>
      <point x="861" y="918" type="line"/>
      <point x="839" y="918" type="line"/>
      <point x="292" y="42" type="line"/>
      <point x="316" y="40" type="line"/>
      <point x="114" y="920" type="line"/>
      <point x="94" y="920" type="line"/>
      <point x="296" y="42" type="line"/>
    </contour>
  </outline>
</glyph>
<glyph name="z" format="2">
  <advance width="808"/>
  <unicode hex="007A"/>
  <anchor x="404" y="0" name="bottom"/>
  <anchor x="339" y="460" name="center"/>
  <anchor x="560" y="920" name="top"/>
  <outline>
    <contour>
      <point x="-74" y="0" type="line"/>
      <point x="664" y="0" type="line"/>
      <point x="667" y="22" type="line"/>
      <point x="-27" y="22" type="line"/>
      <point x="831" y="918" type="line"/>
      <point x="151" y="918" type="line"/>
      <point x="148" y="898" type="line"/>
      <point x="784" y="898" type="line"/>
    </contour>
  </outline>
</glyph>
<glyph name="braceleft" format="2">
  <advance width="528"/>
  <unicode hex="007B"/>
  <outline>
    <contour>
      <point x="300" y="-400" type="curve" smooth="yes"/>
      <point x="338" y="-400" type="line"/>
      <point x="342" y="-380" type="line"/>
      <point x="302" y="-380" type="line" smooth="yes"/>
      <point x="198" y="-380"/>
      <point x="162" y="-297"/>
      <point x="191" y="-120" type="curve" smooth="yes"/>
      <point x="259" y="300" type="line" smooth="yes"/>
      <point x="281" y="437"/>
      <point x="270" y="525"/>
      <point x="180" y="584" type="curve"/>
      <point x="177" y="578" type="line"/>
      <point x="274" y="624"/>
      <point x="327" y="713"/>
      <point x="353" y="860" type="curve" smooth="yes"/>
      <point x="425" y="1280" type="line" smooth="yes"/>
      <point x="461" y="1492"/>
      <point x="538" y="1540"/>
      <point x="626" y="1540" type="curve" smooth="yes"/>
      <point x="664" y="1540" type="line"/>
      <point x="667" y="1558" type="line"/>
      <point x="627" y="1558" type="line" smooth="yes"/>
      <point x="489" y="1558"/>
      <point x="435" y="1444"/>
      <point x="406" y="1280" type="curve" smooth="yes"/>
      <point x="333" y="860" type="line" smooth="yes"/>
      <point x="311" y="735"/>
      <point x="262" y="651"/>
      <point x="179" y="590" type="curve"/>
      <point x="176" y="570" type="line"/>
      <point x="244" y="502"/>
      <point x="262" y="426"/>
      <point x="241" y="300" type="curve" smooth="yes"/>
      <point x="171" y="-120" type="line" smooth="yes"/>
      <point x="140" y="-305"/>
      <point x="187" y="-400"/>
    </contour>
  </outline>
</glyph>
<glyph name="braceright" format="2">
  <advance width="528"/>
  <unicode hex="007D"/>
  <outline>
    <contour>
      <point x="-80" y="-400" type="line"/>
      <point x="-42" y="-400" type="line" smooth="yes"/>
      <point x="77" y="-400"/>
      <point x="148" y="-314"/>
      <point x="181" y="-120" type="curve" smooth="yes"/>
      <point x="253" y="300" type="line" smooth="yes"/>
      <point x="272" y="413"/>
      <point x="319" y="505"/>
      <point x="408" y="570" type="curve"/>
      <point x="411" y="590" type="line"/>
      <point x="343" y="658"/>
      <point x="324" y="737"/>
      <point x="344" y="860" type="curve" smooth="yes"/>
      <point x="413" y="1280" type="line" smooth="yes"/>
      <point x="444" y="1466"/>
      <point x="397" y="1560"/>
      <point x="285" y="1560" type="curve" smooth="yes"/>
      <point x="249" y="1560" type="line"/>
      <point x="245" y="1540" type="line"/>
      <point x="283" y="1540" type="line" smooth="yes"/>
      <point x="387" y="1540"/>
      <point x="423" y="1457"/>
      <point x="394" y="1280" type="curve" smooth="yes"/>
      <point x="326" y="860" type="line" smooth="yes"/>
      <point x="304" y="722"/>
      <point x="319" y="636"/>
      <point x="407" y="576" type="curve"/>
      <point x="408" y="582" type="line"/>
      <point x="298" y="528"/>
      <point x="253" y="426"/>
      <point x="232" y="300" type="curve" smooth="yes"/>
      <point x="159" y="-120" type="line" smooth="yes"/>
      <point x="126" y="-310"/>
      <point x="64" y="-382"/>
      <point x="-41" y="-382" type="curve" smooth="yes"/>
      <point x="-77" y="-382" type="line"/>
    </contour>
  </outline>
</glyph>
<glyph name="asciitilde" format="2">
  <advance width="1082"/>
  <unicode hex="007E"/>
  <outline>
    <contour>
      <point x="781" y="345" type="curve" smooth="yes"/>
      <point x="901" y="345"/>
      <point x="975" y="448"/>
      <point x="975" y="634" type="curve"/>
      <point x="956" y="640" type="line"/>
      <point x="954" y="467"/>
      <point x="886" y="364"/>
      <point x="771" y="366" type="curve" smooth="yes"/>
      <point x="693" y="367"/>
      <point x="649" y="415"/>
      <point x="582" y="500" type="curve" smooth="yes"/>
      <point x="499" y="605"/>
      <point x="463" y="651"/>
      <point x="386" y="652" type="curve" smooth="yes"/>
      <point x="255" y="653"/>
      <point x="135" y="513"/>
      <point x="137" y="364" type="curve"/>
      <point x="156" y="358" type="line"/>
      <point x="156" y="511"/>
      <point x="263" y="636"/>
      <point x="387" y="632" type="curve" smooth="yes"/>
      <point x="451" y="630"/>
      <point x="483" y="589"/>
      <point x="567" y="487" type="curve" smooth="yes"/>
      <point x="652" y="384"/>
      <point x="707" y="345"/>
    </contour>
  </outline>
</glyph>
<glyph name="exclamdown" format="2">
  <advance width="564"/>
  <unicode hex="00A1"/>
  <outline>
    <contour>
      <point x="95" y="-488" type="line"/>
      <point x="123" y="-488" type="line"/>
      <point x="321" y="508" type="line"/>
      <point x="309" y="508" type="line"/>
    </contour>
    <contour>
      <point x="388" y="886" type="curve" smooth="yes"/>
      <point x="397" y="886"/>
      <point x="413" y="899"/>
      <point x="413" y="909" type="curve" smooth="yes"/>
      <point x="413" y="916"/>
      <point x="406" y="930"/>
      <point x="396" y="930" type="curve" smooth="yes"/>
      <point x="387" y="930"/>
      <point x="371" y="917"/>
      <point x="371" y="906" type="curve" smooth="yes"/>
      <point x="371" y="899"/>
      <point x="378" y="886"/>
    </contour>
  </outline>
</glyph>
<glyph name="cent" format="2">
  <advance width="1090"/>
  <unicode hex="00A2"/>
  <outline>
    <contour>
      <point x="429" y="-222" type="line"/>
      <point x="455" y="-222" type="line"/>
      <point x="493" y="-18" type="line"/>
      <point x="596" y="-17"/>
      <point x="698" y="19"/>
      <point x="804" y="94" type="curve"/>
      <point x="809" y="118" type="line"/>
      <point x="695" y="39"/>
      <point x="591" y="1"/>
      <point x="489" y="2" type="curve" smooth="yes"/>
      <point x="295" y="5"/>
      <point x="154" y="161"/>
      <point x="154" y="373" type="curve" smooth="yes"/>
      <point x="154" y="657"/>
      <point x="407" y="918"/>
      <point x="678" y="918" type="curve" smooth="yes"/>
      <point x="784" y="918"/>
      <point x="874" y="878"/>
      <point x="945" y="800" type="curve"/>
      <point x="950" y="824" type="line"/>
      <point x="871" y="899"/>
      <point x="781" y="936"/>
      <point x="680" y="938" type="curve"/>
      <point x="739" y="1154" type="line"/>
      <point x="711" y="1154" type="line"/>
      <point x="671" y="938" type="line"/>
      <point x="385" y="933"/>
      <point x="136" y="657"/>
      <point x="136" y="373" type="curve" smooth="yes"/>
      <point x="136" y="150"/>
      <point x="284" y="-16"/>
      <point x="485" y="-18" type="curve"/>
    </contour>
  </outline>
</glyph>
<glyph name="sterling" format="2">
  <advance width="1090"/>
  <unicode hex="00A3"/>
  <outline>
    <contour>
      <point x="68" y="0" type="curve"/>
      <point x="828" y="0" type="line"/>
      <point x="831" y="20" type="line"/>
      <point x="91" y="22" type="line"/>
      <point x="94" y="2" type="line"/>
      <point x="248" y="142"/>
      <point x="462" y="299"/>
      <point x="504" y="531" type="curve" smooth="yes"/>
      <point x="533" y="741"/>
      <point x="347" y="878"/>
      <point x="381" y="1076" type="curve" smooth="yes"/>
      <point x="409" y="1238"/>
      <point x="576" y="1401"/>
      <point x="762" y="1398" type="curve" smooth="yes"/>
      <point x="984" y="1394"/>
      <point x="1009" y="1156"/>
      <point x="994" y="996" type="curve"/>
      <point x="1014" y="996" type="line"/>
      <point x="1030" y="1168"/>
      <point x="997" y="1416"/>
      <point x="761" y="1418" type="curve" smooth="yes"/>
      <point x="560" y="1419"/>
      <point x="387" y="1243"/>
      <point x="361" y="1076" type="curve" smooth="yes"/>
      <point x="330" y="875"/>
      <point x="516" y="739"/>
      <point x="484" y="530" type="curve" smooth="yes"/>
      <point x="450" y="307"/>
      <point x="178" y="118"/>
    </contour>
    <contour>
      <point x="173" y="590" type="line"/>
      <point x="757" y="590" type="line"/>
      <point x="762" y="610" type="line"/>
      <point x="176" y="610" type="line"/>
    </contour>
  </outline>
</glyph>
<glyph name="currency" format="2">
  <advance width="1052"/>
  <unicode hex="00A4"/>
  <outline>
    <contour>
      <point x="1" y="98" type="line"/>
      <point x="183" y="251" type="line"/>
      <point x="240" y="175"/>
      <point x="329" y="123"/>
      <point x="445" y="122" type="curve" smooth="yes"/>
      <point x="567" y="120"/>
      <point x="686" y="174"/>
      <point x="775" y="255" type="curve"/>
      <point x="894" y="95" type="line"/>
      <point x="915" y="117" type="line"/>
      <point x="795" y="274" type="line"/>
      <point x="885" y="363"/>
      <point x="947" y="480"/>
      <point x="970" y="601" type="curve" smooth="yes"/>
      <point x="990" y="709"/>
      <point x="973" y="823"/>
      <point x="917" y="916" type="curve"/>
      <point x="1110" y="1079" type="line"/>
      <point x="1094" y="1102" type="line"/>
      <point x="902" y="938" type="line"/>
      <point x="845" y="1020"/>
      <point x="754" y="1077"/>
      <point x="632" y="1078" type="curve" smooth="yes"/>
      <point x="513" y="1080"/>
      <point x="399" y="1029"/>
      <point x="314" y="955" type="curve"/>
      <point x="204" y="1105" type="line"/>
      <point x="179" y="1083" type="line"/>
      <point x="292" y="936" type="line"/>
      <point x="197" y="846"/>
      <point x="131" y="722"/>
      <point x="108" y="601" type="curve" smooth="yes"/>
      <point x="86" y="485"/>
      <point x="107" y="365"/>
      <point x="169" y="271" type="curve"/>
      <point x="-15" y="121" type="line"/>
    </contour>
    <contour>
      <point x="444" y="142" type="curve" smooth="yes"/>
      <point x="192" y="147"/>
      <point x="88" y="388"/>
      <point x="128" y="601" type="curve" smooth="yes"/>
      <point x="170" y="827"/>
      <point x="383" y="1061"/>
      <point x="633" y="1058" type="curve" smooth="yes"/>
      <point x="888" y="1054"/>
      <point x="988" y="807"/>
      <point x="950" y="601" type="curve" smooth="yes"/>
      <point x="910" y="382"/>
      <point x="701" y="137"/>
    </contour>
  </outline>
</glyph>
<glyph name="yen" format="2">
  <advance width="1062"/>
  <unicode hex="00A5"/>
  <outline>
    <contour>
      <point x="374" y="0" type="line"/>
      <point x="396" y="0" type="line"/>
      <point x="504" y="528" type="line"/>
      <point x="1130" y="1396" type="line"/>
      <point x="1104" y="1396" type="line"/>
      <point x="498" y="564" type="line"/>
      <point x="253" y="1400" type="line"/>
      <point x="229" y="1400" type="line"/>
      <point x="486" y="536" type="line"/>
    </contour>
    <contour>
      <point x="5" y="290" type="line"/>
      <point x="905" y="290" type="line"/>
      <point x="908" y="310" type="line"/>
      <point x="10" y="310" type="line"/>
    </contour>
    <contour>
      <point x="56" y="540" type="line"/>
      <point x="954" y="540" type="line"/>
      <point x="957" y="560" type="line"/>
      <point x="59" y="560" type="line"/>
    </contour>
  </outline>
</glyph>
<glyph name="brokenbar" format="2">
  <advance width="394"/>
  <unicode hex="00A6"/>
  <outline>
    <contour>
      <point x="258" y="912" type="line"/>
      <point x="278" y="912" type="line"/>
      <point x="383" y="1388" type="line"/>
      <point x="363" y="1388" type="line"/>
    </contour>
    <contour>
      <point x="76" y="12" type="line"/>
      <point x="96" y="12" type="line"/>
      <point x="201" y="488" type="line"/>
      <point x="181" y="488" type="line"/>
    </contour>
  </outline>
</glyph>
<glyph name="section" format="2">
  <advance width="748"/>
  <unicode hex="00A7"/>
  <outline>
    <contour>
      <point x="304" y="-18" type="curve" smooth="yes"/>
      <point x="483" y="-18"/>
      <point x="629" y="97"/>
      <point x="629" y="237" type="curve" smooth="yes"/>
      <point x="629" y="364"/>
      <point x="509" y="424"/>
      <point x="394" y="482" type="curve" smooth="yes"/>
      <point x="265" y="547"/>
      <point x="163" y="591"/>
      <point x="163" y="702" type="curve" smooth="yes"/>
      <point x="163" y="824"/>
      <point x="285" y="915"/>
      <point x="505" y="958" type="curve"/>
      <point x="491" y="970" type="line"/>
      <point x="264" y="928"/>
      <point x="142" y="835"/>
      <point x="142" y="702" type="curve" smooth="yes"/>
      <point x="142" y="592"/>
      <point x="223" y="548"/>
      <point x="380" y="467" type="curve" smooth="yes"/>
      <point x="511" y="399"/>
      <point x="610" y="345"/>
      <point x="610" y="237" type="curve" smooth="yes"/>
      <point x="610" y="109"/>
      <point x="472" y="0"/>
      <point x="305" y="0" type="curve" smooth="yes"/>
      <point x="152" y="0"/>
      <point x="42" y="95"/>
      <point x="14" y="254" type="curve"/>
      <point x="-3" y="246" type="line"/>
      <point x="25" y="82"/>
      <point x="137" y="-18"/>
    </contour>
    <contour>
      <point x="374" y="482" type="line"/>
      <point x="597" y="503"/>
      <point x="733" y="594"/>
      <point x="733" y="733" type="curve" smooth="yes"/>
      <point x="733" y="853"/>
      <point x="633" y="904"/>
      <point x="505" y="966" type="curve" smooth="yes"/>
      <point x="349" y="1041"/>
      <point x="260" y="1074"/>
      <point x="260" y="1172" type="curve" smooth="yes"/>
      <point x="260" y="1294"/>
      <point x="398" y="1398"/>
      <point x="555" y="1398" type="curve" smooth="yes"/>
      <point x="672" y="1398"/>
      <point x="761" y="1340"/>
      <point x="812" y="1232" type="curve"/>
      <point x="825" y="1240" type="line"/>
      <point x="775" y="1356"/>
      <point x="682" y="1418"/>
      <point x="556" y="1418" type="curve" smooth="yes"/>
      <point x="386" y="1418"/>
      <point x="239" y="1303"/>
      <point x="239" y="1169" type="curve" smooth="yes"/>
      <point x="239" y="1061"/>
      <point x="335" y="1022"/>
      <point x="489" y="950" type="curve" smooth="yes"/>
      <point x="624" y="887"/>
      <point x="712" y="837"/>
      <point x="712" y="737" type="curve" smooth="yes"/>
      <point x="712" y="614"/>
      <point x="580" y="522"/>
      <point x="360" y="493" type="curve"/>
    </contour>
  </outline>
</glyph>
<glyph name="copyright" format="2">
  <advance width="1504"/>
  <unicode hex="00A9"/>
  <outline>
    <contour>
      <point x="683" y="-20" type="curve" smooth="yes"/>
      <point x="1092" y="-27"/>
      <point x="1425" y="334"/>
      <point x="1480" y="700" type="curve" smooth="yes"/>
      <point x="1534" y="1059"/>
      <point x="1319" y="1414"/>
      <point x="919" y="1420" type="curve" smooth="yes"/>
      <point x="509" y="1427"/>
      <point x="179" y="1065"/>
      <point x="124" y="700" type="curve" smooth="yes"/>
      <point x="70" y="338"/>
      <point x="285" y="-14"/>
    </contour>
    <contour>
      <point x="682" y="0" type="curve" smooth="yes"/>
      <point x="296" y="7"/>
      <point x="90" y="354"/>
      <point x="144" y="700" type="curve" smooth="yes"/>
      <point x="200" y="1056"/>
      <point x="529" y="1407"/>
      <point x="922" y="1400" type="curve" smooth="yes"/>
      <point x="1308" y="1393"/>
      <point x="1514" y="1046"/>
      <point x="1460" y="700" type="curve" smooth="yes"/>
      <point x="1404" y="344"/>
      <point x="1075" y="-7"/>
    </contour>
    <contour>
      <point x="710" y="272" type="curve" smooth="yes"/>
      <point x="814" y="270"/>
      <point x="899" y="313"/>
      <point x="981" y="364" type="curve"/>
      <point x="985" y="382" type="line"/>
      <point x="904" y="330"/>
      <point x="817" y="284"/>
      <point x="710" y="286" type="curve" smooth="yes"/>
      <point x="482" y="290"/>
      <point x="390" y="513"/>
      <point x="422" y="701" type="curve" smooth="yes"/>
      <point x="454" y="908"/>
      <point x="626" y="1113"/>
      <point x="855" y="1114" type="curve" smooth="yes"/>
      <point x="950" y="1114"/>
      <point x="1022" y="1079"/>
      <point x="1089" y="1018" type="curve"/>
      <point x="1093" y="1036" type="line"/>
      <point x="1018" y="1096"/>
      <point x="947" y="1129"/>
      <point x="852" y="1128" type="curve" smooth="yes"/>
      <point x="616" y="1126"/>
      <point x="438" y="915"/>
      <point x="406" y="700" type="curve" smooth="yes"/>
      <point x="375" y="493"/>
      <point x="478" y="275"/>
    </contour>
  </outline>
</glyph>
<glyph name="ordfeminine" format="2">
  <advance width="446"/>
  <unicode hex="00AA"/>
  <outline>
    <contour>
      <point x="272" y="912" type="curve" smooth="yes"/>
      <point x="338" y="912"/>
      <point x="397" y="958"/>
      <point x="441" y="1035" type="curve"/>
      <point x="416" y="922" type="line"/>
      <point x="426" y="922" type="line"/>
      <point x="493" y="1251" type="line" smooth="yes"/>
      <point x="510" y="1336"/>
      <point x="470" y="1391"/>
      <point x="401" y="1398" type="curve" smooth="yes"/>
      <point x="362" y="1402"/>
      <point x="325" y="1388"/>
      <point x="240" y="1334" type="curve"/>
      <point x="247" y="1326" type="line"/>
      <point x="323" y="1375"/>
      <point x="356" y="1389"/>
      <point x="390" y="1389" type="curve" smooth="yes"/>
      <point x="463" y="1389"/>
      <point x="502" y="1330"/>
      <point x="486" y="1250" type="curve" smooth="yes"/>
      <point x="468" y="1158" type="line"/>
      <point x="413" y="1188"/>
      <point x="381" y="1198"/>
      <point x="345" y="1198" type="curve" smooth="yes"/>
      <point x="240" y="1198"/>
      <point x="148" y="1117"/>
      <point x="148" y="1031" type="curve" smooth="yes"/>
      <point x="148" y="964"/>
      <point x="202" y="912"/>
    </contour>
    <contour>
      <point x="270" y="922" type="curve" smooth="yes"/>
      <point x="205" y="922"/>
      <point x="157" y="970"/>
      <point x="157" y="1032" type="curve" smooth="yes"/>
      <point x="157" y="1115"/>
      <point x="243" y="1190"/>
      <point x="342" y="1190" type="curve" smooth="yes"/>
      <point x="380" y="1190"/>
      <point x="412" y="1179"/>
      <point x="466" y="1146" type="curve"/>
      <point x="448" y="1066" type="line"/>
      <point x="393" y="968"/>
      <point x="334" y="922"/>
    </contour>
  </outline>
</glyph>
<glyph name="guillemetleft" format="2">
  <advance width="912"/>
  <unicode hex="00AB"/>
  <outline>
    <contour>
      <point x="329" y="40" type="line"/>
      <point x="343" y="54" type="line"/>
      <point x="47" y="510" type="line"/>
      <point x="529" y="962" type="line"/>
      <point x="517" y="976" type="line"/>
      <point x="28" y="514" type="line"/>
    </contour>
    <contour>
      <point x="669" y="40" type="line"/>
      <point x="685" y="54" type="line"/>
      <point x="389" y="510" type="line"/>
      <point x="869" y="962" type="line"/>
      <point x="857" y="976" type="line"/>
      <point x="368" y="514" type="line"/>
    </contour>
  </outline>
</glyph>
<glyph name="logicalnot" format="2">
  <advance width="1166"/>
  <unicode hex="00AC"/>
  <outline>
    <contour>
      <point x="982" y="352" type="line"/>
      <point x="1002" y="352" type="line"/>
      <point x="1088" y="750" type="line"/>
      <point x="164" y="750" type="line"/>
      <point x="159" y="730" type="line"/>
      <point x="1065" y="730" type="line"/>
    </contour>
  </outline>
</glyph>
<glyph name="registered" format="2">
  <advance width="1504"/>
  <unicode hex="00AE"/>
  <outline>
    <contour>
      <point x="683" y="-20" type="curve" smooth="yes"/>
      <point x="1092" y="-27"/>
      <point x="1425" y="334"/>
      <point x="1480" y="700" type="curve" smooth="yes"/>
      <point x="1534" y="1059"/>
      <point x="1319" y="1414"/>
      <point x="919" y="1420" type="curve" smooth="yes"/>
      <point x="509" y="1427"/>
      <point x="179" y="1065"/>
      <point x="124" y="700" type="curve" smooth="yes"/>
      <point x="70" y="338"/>
      <point x="285" y="-14"/>
    </contour>
    <contour>
      <point x="682" y="0" type="curve" smooth="yes"/>
      <point x="296" y="7"/>
      <point x="90" y="354"/>
      <point x="144" y="700" type="curve" smooth="yes"/>
      <point x="200" y="1056"/>
      <point x="529" y="1407"/>
      <point x="922" y="1400" type="curve" smooth="yes"/>
      <point x="1308" y="1393"/>
      <point x="1514" y="1046"/>
      <point x="1460" y="700" type="curve" smooth="yes"/>
      <point x="1404" y="344"/>
      <point x="1075" y="-7"/>
    </contour>
    <contour>
      <point x="544" y="300" type="line"/>
      <point x="558" y="300" type="line"/>
      <point x="623" y="676" type="line"/>
      <point x="732" y="678" type="line"/>
      <point x="918" y="300" type="line"/>
      <point x="936" y="300" type="line"/>
      <point x="748" y="679" type="line"/>
      <point x="903" y="679"/>
      <point x="1027" y="770"/>
      <point x="1047" y="906" type="curve" smooth="yes"/>
      <point x="1068" y="1053"/>
      <point x="952" y="1140"/>
      <point x="816" y="1140" type="curve" smooth="yes"/>
      <point x="688" y="1140" type="line"/>
    </contour>
    <contour>
      <point x="626" y="688" type="line"/>
      <point x="702" y="1126" type="line"/>
      <point x="816" y="1124" type="line" smooth="yes"/>
      <point x="942" y="1122"/>
      <point x="1054" y="1048"/>
      <point x="1033" y="909" type="curve" smooth="yes"/>
      <point x="1014" y="779"/>
      <point x="891" y="688"/>
      <point x="740" y="688" type="curve" smooth="yes"/>
    </contour>
  </outline>
</glyph>
<glyph name="degree" format="2">
  <advance width="522"/>
  <unicode hex="00B0"/>
  <outline>
    <contour>
      <point x="347" y="962" type="curve" smooth="yes"/>
      <point x="487" y="958"/>
      <point x="623" y="1098"/>
      <point x="623" y="1244" type="curve" smooth="yes"/>
      <point x="623" y="1354"/>
      <point x="546" y="1435"/>
      <point x="442" y="1438" type="curve" smooth="yes"/>
      <point x="299" y="1442"/>
      <point x="163" y="1301"/>
      <point x="163" y="1158" type="curve" smooth="yes"/>
      <point x="163" y="1052"/>
      <point x="237" y="965"/>
    </contour>
    <contour>
      <point x="352" y="982" type="curve" smooth="yes"/>
      <point x="256" y="982"/>
      <point x="183" y="1058"/>
      <point x="183" y="1159" type="curve" smooth="yes"/>
      <point x="183" y="1290"/>
      <point x="307" y="1418"/>
      <point x="433" y="1418" type="curve" smooth="yes"/>
      <point x="530" y="1418"/>
      <point x="603" y="1342"/>
      <point x="603" y="1242" type="curve" smooth="yes"/>
      <point x="603" y="1113"/>
      <point x="480" y="982"/>
    </contour>
  </outline>
</glyph>
<glyph name="plusminus" format="2">
  <advance width="1146"/>
  <unicode hex="00B1"/>
  <outline>
    <contour>
      <point x="544" y="300" type="line"/>
      <point x="564" y="300" type="line"/>
      <point x="643" y="760" type="line"/>
      <point x="1085" y="760" type="line"/>
      <point x="1088" y="780" type="line"/>
      <point x="646" y="780" type="line"/>
      <point x="726" y="1240" type="line"/>
      <point x="706" y="1240" type="line"/>
      <point x="626" y="780" type="line"/>
      <point x="184" y="780" type="line"/>
      <point x="181" y="760" type="line"/>
      <point x="623" y="760" type="line"/>
    </contour>
    <contour>
      <point x="54" y="0" type="line"/>
      <point x="958" y="0" type="line"/>
      <point x="961" y="20" type="line"/>
      <point x="57" y="20" type="line"/>
    </contour>
  </outline>
</glyph>
<glyph name="paragraph" format="2">
  <advance width="842"/>
  <unicode hex="00B6"/>
  <outline>
    <contour>
      <point x="342" y="-438" type="line"/>
      <point x="362" y="-438" type="line"/>
      <point x="734" y="1380" type="line"/>
      <point x="882" y="1380" type="line"/>
      <point x="512" y="-438" type="line"/>
      <point x="532" y="-438" type="line"/>
      <point x="903" y="1401" type="line"/>
      <point x="714" y="1401" type="line" smooth="yes"/>
      <point x="449" y="1401"/>
      <point x="242" y="1216"/>
      <point x="198" y="970" type="curve" smooth="yes"/>
      <point x="153" y="719"/>
      <point x="303" y="570"/>
      <point x="539" y="540" type="curve"/>
    </contour>
  </outline>
</glyph>
<glyph name="periodcentered" format="2">
  <advance width="454"/>
  <unicode hex="00B7"/>
  <outline>
    <contour>
      <point x="205" y="420" type="curve" smooth="yes"/>
      <point x="215" y="420"/>
      <point x="230" y="434"/>
      <point x="230" y="442" type="curve" smooth="yes"/>
      <point x="230" y="451"/>
      <point x="221" y="464"/>
      <point x="211" y="464" type="curve" smooth="yes"/>
      <point x="201" y="464"/>
      <point x="186" y="450"/>
      <point x="186" y="442" type="curve" smooth="yes"/>
      <point x="186" y="433"/>
      <point x="195" y="420"/>
    </contour>
  </outline>
</glyph>
<glyph name="ordmasculine" format="2">
  <advance width="522"/>
  <unicode hex="00BA"/>
  <outline>
    <contour>
      <point x="339" y="922" type="curve" smooth="yes"/>
      <point x="471" y="920"/>
      <point x="590" y="1036"/>
      <point x="612" y="1160" type="curve" smooth="yes"/>
      <point x="632" y="1276"/>
      <point x="566" y="1396"/>
      <point x="434" y="1398" type="curve" smooth="yes"/>
      <point x="302" y="1401"/>
      <point x="184" y="1284"/>
      <point x="161" y="1162" type="curve" smooth="yes"/>
      <point x="140" y="1044"/>
      <point x="206" y="924"/>
    </contour>
    <contour>
      <point x="338" y="942" type="curve" smooth="yes"/>
      <point x="217" y="946"/>
      <point x="158" y="1059"/>
      <point x="179" y="1159" type="curve" smooth="yes"/>
      <point x="200" y="1268"/>
      <point x="311" y="1381"/>
      <point x="435" y="1378" type="curve" smooth="yes"/>
      <point x="555" y="1374"/>
      <point x="615" y="1263"/>
      <point x="593" y="1158" type="curve" smooth="yes"/>
      <point x="571" y="1050"/>
      <point x="459" y="938"/>
    </contour>
  </outline>
</glyph>
<glyph name="guillemetright" format="2">
  <advance width="912"/>
  <unicode hex="00BB"/>
  <outline>
    <contour>
      <point x="42" y="44" type="line"/>
      <point x="533" y="506" type="line"/>
      <point x="230" y="980" type="line"/>
      <point x="216" y="966" type="line"/>
      <point x="512" y="510" type="line"/>
      <point x="32" y="58" type="line"/>
    </contour>
    <contour>
      <point x="384" y="44" type="line"/>
      <point x="873" y="506" type="line"/>
      <point x="572" y="980" type="line"/>
      <point x="558" y="966" type="line"/>
      <point x="854" y="510" type="line"/>
      <point x="372" y="58" type="line"/>
    </contour>
  </outline>
</glyph>
<glyph name="questiondown" format="2">
  <advance width="1018"/>
  <unicode hex="00BF"/>
  <outline>
    <contour>
      <point x="412" y="-18" type="curve" smooth="yes"/>
      <point x="590" y="-21"/>
      <point x="726" y="94"/>
      <point x="836" y="210" type="curve"/>
      <point x="818" y="222" type="line"/>
      <point x="716" y="113"/>
      <point x="581" y="-2"/>
      <point x="411" y="2" type="curve" smooth="yes"/>
      <point x="217" y="7"/>
      <point x="85" y="165"/>
      <point x="133" y="357" type="curve" smooth="yes"/>
      <point x="164" y="481"/>
      <point x="282" y="670"/>
      <point x="640" y="712" type="curve"/>
      <point x="640" y="710" type="line"/>
      <point x="697" y="1060" type="line"/>
      <point x="683" y="1060" type="line"/>
      <point x="612" y="726" type="line"/>
      <point x="392" y="698"/>
      <point x="161" y="590"/>
      <point x="113" y="360" type="curve" smooth="yes"/>
      <point x="72" y="160"/>
      <point x="199" y="-15"/>
    </contour>
    <contour>
      <point x="764" y="1376" type="curve" smooth="yes"/>
      <point x="774" y="1376"/>
      <point x="789" y="1390"/>
      <point x="789" y="1400" type="curve" smooth="yes"/>
      <point x="789" y="1407"/>
      <point x="782" y="1420"/>
      <point x="772" y="1420" type="curve" smooth="yes"/>
      <point x="763" y="1420"/>
      <point x="747" y="1406"/>
      <point x="747" y="1398" type="curve" smooth="yes"/>
      <point x="747" y="1389"/>
      <point x="754" y="1376"/>
    </contour>
  </outline>
</glyph>
<glyph name="AE" format="2">
  <advance width="1686"/>
  <unicode hex="00C6"/>
  <anchor x="843" y="0" name="bottom"/>
  <anchor x="1254" y="1400" name="top"/>
  <outline>
    <contour>
      <point x="-102" y="0" type="line"/>
      <point x="-76" y="0" type="line"/>
      <point x="401" y="560" type="line"/>
      <point x="925" y="560" type="line"/>
      <point x="810" y="0" type="line"/>
      <point x="1428" y="0" type="line"/>
      <point x="1431" y="20" type="line"/>
      <point x="836" y="20" type="line"/>
      <point x="990" y="768" type="line"/>
      <point x="1544" y="768" type="line"/>
      <point x="1547" y="788" type="line"/>
      <point x="994" y="788" type="line"/>
      <point x="1116" y="1380" type="line"/>
      <point x="1704" y="1380" type="line"/>
      <point x="1709" y="1400" type="line"/>
      <point x="1085" y="1400" type="line"/>
    </contour>
    <contour>
      <point x="418" y="580" type="line"/>
      <point x="1091" y="1370" type="line"/>
      <point x="929" y="580" type="line"/>
    </contour>
  </outline>
</glyph>
<glyph name="Eth" format="2">
  <advance width="1278"/>
  <unicode hex="00D0"/>
  <outline>
    <contour>
      <point x="58" y="0" type="line"/>
      <point x="364" y="0" type="line" smooth="yes"/>
      <point x="796" y="0"/>
      <point x="1150" y="406"/>
      <point x="1150" y="836" type="curve" smooth="yes"/>
      <point x="1150" y="1169"/>
      <point x="938" y="1400"/>
      <point x="641" y="1400" type="curve" smooth="yes"/>
      <point x="343" y="1400" type="line"/>
      <point x="203" y="710" type="line"/>
      <point x="42" y="710" type="line"/>
      <point x="39" y="690" type="line"/>
      <point x="199" y="690" type="line"/>
    </contour>
    <contour>
      <point x="85" y="22" type="line"/>
      <point x="221" y="690" type="line"/>
      <point x="605" y="690" type="line"/>
      <point x="608" y="710" type="line"/>
      <point x="225" y="710" type="line"/>
      <point x="361" y="1378" type="line"/>
      <point x="640" y="1378" type="line" smooth="yes"/>
      <point x="925" y="1378"/>
      <point x="1129" y="1156"/>
      <point x="1129" y="837" type="curve" smooth="yes"/>
      <point x="1129" y="422"/>
      <point x="783" y="22"/>
      <point x="365" y="22" type="curve" smooth="yes"/>
    </contour>
  </outline>
</glyph>
<glyph name="multiply" format="2">
  <advance width="1086"/>
  <unicode hex="00D7"/>
  <outline>
    <contour>
      <point x="75" y="91" type="line"/>
      <point x="536" y="494" type="line"/>
      <point x="835" y="92" type="line"/>
      <point x="849" y="106" type="line"/>
      <point x="546" y="508" type="line"/>
      <point x="1008" y="913" type="line"/>
      <point x="996" y="927" type="line"/>
      <point x="536" y="522" type="line"/>
      <point x="238" y="926" type="line"/>
      <point x="224" y="912" type="line"/>
      <point x="528" y="508" type="line"/>
      <point x="63" y="105" type="line"/>
    </contour>
  </outline>
</glyph>
<glyph name="Oslash" format="2">
  <advance width="1486"/>
  <unicode hex="00D8"/>
  <anchor x="743" y="0" name="bottom"/>
  <anchor x="630" y="700" name="center"/>
  <anchor x="1309" y="10" name="ogonek"/>
  <anchor x="546" y="1400" name="top"/>
  <anchor x="-167" y="1400" name="topleft"/>
  <anchor x="1239" y="1400" name="topright"/>
  <outline>
    <contour>
      <point x="17" y="-64" type="line"/>
      <point x="246" y="162" type="line"/>
      <point x="251" y="167" type="line"/>
      <point x="1294" y="1201" type="line"/>
      <point x="1299" y="1205" type="line"/>
      <point x="1546" y="1450" type="line"/>
      <point x="1526" y="1464" type="line"/>
      <point x="1284" y="1223" type="line"/>
      <point x="1280" y="1219" type="line"/>
      <point x="237" y="187" type="line"/>
      <point x="231" y="181" type="line"/>
      <point x="-3" y="-50" type="line"/>
    </contour>
    <contour>
      <point x="620" y="-16" type="curve" smooth="yes"/>
      <point x="1019" y="-20"/>
      <point x="1410" y="397"/>
      <point x="1410" y="847" type="curve" smooth="yes"/>
      <point x="1410" y="1176"/>
      <point x="1200" y="1413"/>
      <point x="901" y="1416" type="curve" smooth="yes"/>
      <point x="499" y="1420"/>
      <point x="112" y="1001"/>
      <point x="112" y="553" type="curve" smooth="yes"/>
      <point x="112" y="221"/>
      <point x="325" y="-13"/>
    </contour>
    <contour>
      <point x="619" y="6" type="curve" smooth="yes"/>
      <point x="333" y="9"/>
      <point x="133" y="234"/>
      <point x="133" y="551" type="curve" smooth="yes"/>
      <point x="133" y="989"/>
      <point x="514" y="1398"/>
      <point x="902" y="1394" type="curve" smooth="yes"/>
      <point x="1187" y="1391"/>
      <point x="1389" y="1165"/>
      <point x="1389" y="845" type="curve" smooth="yes"/>
      <point x="1389" y="406"/>
      <point x="1007" y="1"/>
    </contour>
  </outline>
</glyph>
<glyph name="Thorn" format="2">
  <advance width="978"/>
  <unicode hex="00DE"/>
  <anchor x="489" y="0" name="bottom"/>
  <anchor x="292" y="1400" name="top"/>
  <outline>
    <contour>
      <point x="40" y="0" type="line"/>
      <point x="58" y="0" type="line"/>
      <point x="116" y="286" type="line"/>
      <point x="401" y="286" type="line" smooth="yes"/>
      <point x="693" y="286"/>
      <point x="942" y="521"/>
      <point x="942" y="773" type="curve" smooth="yes"/>
      <point x="942" y="968"/>
      <point x="794" y="1116"/>
      <point x="567" y="1116" type="curve" smooth="yes"/>
      <point x="289" y="1116" type="line"/>
      <point x="346" y="1398" type="line"/>
      <point x="326" y="1398" type="line"/>
    </contour>
    <contour>
      <point x="120" y="307" type="line"/>
      <point x="284" y="1094" type="line"/>
      <point x="565" y="1094" type="line" smooth="yes"/>
      <point x="778" y="1094"/>
      <point x="920" y="956"/>
      <point x="920" y="773" type="curve" smooth="yes"/>
      <point x="920" y="536"/>
      <point x="680" y="307"/>
      <point x="402" y="307" type="curve" smooth="yes"/>
    </contour>
  </outline>
</glyph>
<glyph name="germandbls" format="2">
  <advance width="996"/>
  <unicode hex="00DF"/>
  <outline>
    <contour>
      <point x="463" y="-18" type="curve" smooth="yes"/>
      <point x="693" y="-18"/>
      <point x="914" y="232"/>
      <point x="914" y="480" type="curve" smooth="yes"/>
      <point x="914" y="780"/>
      <point x="592" y="708"/>
      <point x="592" y="838" type="curve" smooth="yes"/>
      <point x="592" y="971"/>
      <point x="930" y="1123"/>
      <point x="930" y="1359" type="curve" smooth="yes"/>
      <point x="930" y="1492"/>
      <point x="822" y="1599"/>
      <point x="683" y="1599" type="curve" smooth="yes"/>
      <point x="491" y="1599"/>
      <point x="315" y="1409"/>
      <point x="266" y="1156" type="curve" smooth="yes"/>
      <point x="44" y="0" type="line"/>
      <point x="64" y="0" type="line"/>
      <point x="287" y="1166" type="line" smooth="yes"/>
      <point x="332" y="1403"/>
      <point x="501" y="1581"/>
      <point x="674" y="1581" type="curve" smooth="yes"/>
      <point x="806" y="1581"/>
      <point x="911" y="1476"/>
      <point x="911" y="1354" type="curve" smooth="yes"/>
      <point x="911" y="1136"/>
      <point x="573" y="986"/>
      <point x="573" y="832" type="curve" smooth="yes"/>
      <point x="573" y="682"/>
      <point x="893" y="767"/>
      <point x="893" y="478" type="curve" smooth="yes"/>
      <point x="893" y="257"/>
      <point x="705" y="-4"/>
      <point x="467" y="-1" type="curve" smooth="yes"/>
      <point x="371" y="0"/>
      <point x="230" y="44"/>
      <point x="180" y="109" type="curve"/>
      <point x="167" y="98" type="line"/>
      <point x="216" y="29"/>
      <point x="363" y="-18"/>
    </contour>
  </outline>
</glyph>
<glyph name="ae" format="2">
  <advance width="1552"/>
  <unicode hex="00E6"/>
  <guideline x="1567" y="609" angle="90"/>
  <guideline x="1547" y="647" angle="90"/>
  <anchor x="776" y="0" name="bottom"/>
  <anchor x="647" y="920" name="top"/>
  <outline>
    <contour>
      <point x="257" y="-18" type="curve" smooth="yes"/>
      <point x="443" y="-18"/>
      <point x="625" y="150"/>
      <point x="648" y="344" type="curve"/>
      <point x="642" y="344" type="line"/>
      <point x="647" y="115"/>
      <point x="759" y="-18"/>
      <point x="949" y="-18" type="curve" smooth="yes"/>
      <point x="1101" y="-18"/>
      <point x="1264" y="64"/>
      <point x="1405" y="210" type="curve"/>
      <point x="1389" y="222" type="line"/>
      <point x="1254" y="83"/>
      <point x="1092" y="2"/>
      <point x="948" y="2" type="curve" smooth="yes"/>
      <point x="734" y="2"/>
      <point x="622" y="190"/>
      <point x="673" y="462" type="curve"/>
      <point x="661" y="456" type="line"/>
      <point x="1459" y="456" type="line"/>
      <point x="1474" y="501"/>
      <point x="1481" y="544"/>
      <point x="1481" y="591" type="curve" smooth="yes"/>
      <point x="1481" y="789"/>
      <point x="1356" y="932"/>
      <point x="1176" y="938" type="curve" smooth="yes"/>
      <point x="968" y="945"/>
      <point x="750" y="766"/>
      <point x="674" y="525" type="curve"/>
      <point x="677" y="525" type="line"/>
      <point x="764" y="760"/>
      <point x="703" y="928"/>
      <point x="526" y="938" type="curve" smooth="yes"/>
      <point x="431" y="943"/>
      <point x="325" y="902"/>
      <point x="197" y="810" type="curve"/>
      <point x="209" y="792" type="line"/>
      <point x="330" y="881"/>
      <point x="432" y="922"/>
      <point x="521" y="918" type="curve" smooth="yes"/>
      <point x="655" y="912"/>
      <point x="720" y="807"/>
      <point x="689" y="647" type="curve" smooth="yes"/>
      <point x="654" y="468" type="line"/>
      <point x="665" y="468" type="line"/>
      <point x="598" y="529"/>
      <point x="518" y="560"/>
      <point x="423" y="560" type="curve" smooth="yes"/>
      <point x="229" y="560"/>
      <point x="53" y="432"/>
      <point x="19" y="266" type="curve" smooth="yes"/>
      <point x="-13" y="111"/>
      <point x="95" y="-18"/>
    </contour>
    <contour>
      <point x="255" y="2" type="curve" smooth="yes"/>
      <point x="99" y="2"/>
      <point x="3" y="118"/>
      <point x="37" y="264" type="curve" smooth="yes"/>
      <point x="74" y="421"/>
      <point x="241" y="540"/>
      <point x="424" y="540" type="curve" smooth="yes"/>
      <point x="518" y="540"/>
      <point x="601" y="508"/>
      <point x="656" y="451" type="curve"/>
      <point x="652" y="459" type="line"/>
      <point x="640" y="355" type="line"/>
      <point x="651" y="433" type="line"/>
      <point x="622" y="184"/>
      <point x="455" y="2"/>
    </contour>
    <contour>
      <point x="674" y="466" type="line"/>
      <point x="745" y="734"/>
      <point x="949" y="923"/>
      <point x="1165" y="920" type="curve" smooth="yes"/>
      <point x="1340" y="917"/>
      <point x="1460" y="784"/>
      <point x="1460" y="593" type="curve" smooth="yes"/>
      <point x="1460" y="552"/>
      <point x="1454" y="512"/>
      <point x="1442" y="467" type="curve"/>
      <point x="1459" y="476" type="line"/>
      <point x="668" y="476" type="line"/>
    </contour>
  </outline>
</glyph>
<glyph name="eth" format="2">
  <advance width="1008"/>
  <unicode hex="00F0"/>
  <outline>
    <contour>
      <point x="395" y="-18" type="curve" smooth="yes"/>
      <point x="664" y="-26"/>
      <point x="904" y="239"/>
      <point x="904" y="538" type="curve" smooth="yes"/>
      <point x="904" y="682"/>
      <point x="859" y="777"/>
      <point x="545" y="1405" type="curve"/>
      <point x="524" y="1393" type="line"/>
      <point x="623" y="1213"/>
      <point x="704" y="1035"/>
      <point x="855" y="704" type="curve"/>
      <point x="859" y="701" type="line"/>
      <point x="779" y="814"/>
      <point x="674" y="872"/>
      <point x="551" y="872" type="curve" smooth="yes"/>
      <point x="293" y="872"/>
      <point x="62" y="615"/>
      <point x="62" y="344" type="curve" smooth="yes"/>
      <point x="62" y="139"/>
      <point x="194" y="-12"/>
    </contour>
    <contour>
      <point x="394" y="2" type="curve" smooth="yes"/>
      <point x="210" y="6"/>
      <point x="83" y="153"/>
      <point x="83" y="346" type="curve" smooth="yes"/>
      <point x="83" y="601"/>
      <point x="305" y="849"/>
      <point x="550" y="852" type="curve" smooth="yes"/>
      <point x="744" y="854"/>
      <point x="883" y="705"/>
      <point x="883" y="509" type="curve" smooth="yes"/>
      <point x="883" y="248"/>
      <point x="636" y="-3"/>
    </contour>
    <contour>
      <point x="429" y="1075" type="line"/>
      <point x="896" y="1224" type="line"/>
      <point x="893" y="1245" type="line"/>
      <point x="428" y="1096" type="line"/>
    </contour>
  </outline>
</glyph>
<glyph name="divide" format="2">
  <advance width="1172"/>
  <unicode hex="00F7"/>
  <outline>
    <contour>
      <point x="653" y="880" type="curve" smooth="yes"/>
      <point x="662" y="880"/>
      <point x="678" y="893"/>
      <point x="678" y="904" type="curve" smooth="yes"/>
      <point x="678" y="911"/>
      <point x="670" y="924"/>
      <point x="660" y="924" type="curve" smooth="yes"/>
      <point x="651" y="924"/>
      <point x="636" y="911"/>
      <point x="636" y="900" type="curve" smooth="yes"/>
      <point x="636" y="893"/>
      <point x="643" y="880"/>
    </contour>
    <contour>
      <point x="94" y="500" type="line"/>
      <point x="1036" y="500" type="line"/>
      <point x="1039" y="520" type="line"/>
      <point x="99" y="520" type="line"/>
    </contour>
    <contour>
      <point x="484" y="40" type="curve" smooth="yes"/>
      <point x="494" y="40"/>
      <point x="510" y="54"/>
      <point x="510" y="64" type="curve" smooth="yes"/>
      <point x="510" y="72"/>
      <point x="500" y="84"/>
      <point x="491" y="84" type="curve" smooth="yes"/>
      <point x="481" y="84"/>
      <point x="466" y="70"/>
      <point x="466" y="60" type="curve" smooth="yes"/>
      <point x="466" y="53"/>
      <point x="475" y="40"/>
    </contour>
  </outline>
</glyph>
<glyph name="oslash" format="2">
  <advance width="1046"/>
  <unicode hex="00F8"/>
  <anchor x="523" y="0" name="bottom"/>
  <anchor x="458" y="460" name="center"/>
  <anchor x="461" y="0" name="ogonek"/>
  <anchor x="610" y="938" name="top"/>
  <anchor x="897" y="920" name="topright"/>
  <outline>
    <contour>
      <point x="453" y="-18" type="curve" smooth="yes"/>
      <point x="715" y="-21"/>
      <point x="977" y="235"/>
      <point x="977" y="536" type="curve" smooth="yes"/>
      <point x="977" y="768"/>
      <point x="822" y="935"/>
      <point x="610" y="938" type="curve" smooth="yes"/>
      <point x="337" y="942"/>
      <point x="85" y="674"/>
      <point x="85" y="384" type="curve" smooth="yes"/>
      <point x="85" y="150"/>
      <point x="244" y="-16"/>
    </contour>
    <contour>
      <point x="452" y="2" type="curve" smooth="yes"/>
      <point x="252" y="5"/>
      <point x="105" y="165"/>
      <point x="105" y="382" type="curve" smooth="yes"/>
      <point x="105" y="662"/>
      <point x="350" y="923"/>
      <point x="611" y="918" type="curve" smooth="yes"/>
      <point x="810" y="914"/>
      <point x="958" y="754"/>
      <point x="958" y="535" type="curve" smooth="yes"/>
      <point x="958" y="241"/>
      <point x="696" y="-2"/>
    </contour>
    <contour>
      <point x="54" y="22" type="line"/>
      <point x="168" y="131" type="line"/>
      <point x="172" y="139" type="line"/>
      <point x="878" y="792" type="line"/>
      <point x="880" y="804" type="line"/>
      <point x="1002" y="922" type="line"/>
      <point x="992" y="937" type="line"/>
      <point x="868" y="817" type="line"/>
      <point x="867" y="809" type="line"/>
      <point x="164" y="153" type="line"/>
      <point x="159" y="142" type="line"/>
      <point x="40" y="36" type="line"/>
    </contour>
  </outline>
</glyph>
<glyph name="thorn" format="2">
  <advance width="1018"/>
  <unicode hex="00FE"/>
  <anchor x="509" y="0" name="bottom"/>
  <anchor x="380" y="920" name="top"/>
  <outline>
    <contour>
      <point x="-48" y="-438" type="line"/>
      <point x="-30" y="-438" type="line"/>
      <point x="377" y="1558" type="line"/>
      <point x="357" y="1558" type="line"/>
    </contour>
    <contour>
      <point x="435" y="-18" type="curve" smooth="yes"/>
      <point x="683" y="-18"/>
      <point x="929" y="256"/>
      <point x="929" y="562" type="curve" smooth="yes"/>
      <point x="929" y="784"/>
      <point x="799" y="938"/>
      <point x="611" y="938" type="curve" smooth="yes"/>
      <point x="357" y="938"/>
      <point x="135" y="655"/>
      <point x="135" y="351" type="curve" smooth="yes"/>
      <point x="135" y="131"/>
      <point x="252" y="-18"/>
    </contour>
    <contour>
      <point x="416" y="2" type="curve" smooth="yes"/>
      <point x="252" y="11"/>
      <point x="145" y="149"/>
      <point x="145" y="353" type="curve" smooth="yes"/>
      <point x="145" y="645"/>
      <point x="366" y="918"/>
      <point x="608" y="918" type="curve" smooth="yes"/>
      <point x="786" y="918"/>
      <point x="909" y="771"/>
      <point x="909" y="565" type="curve" smooth="yes"/>
      <point x="909" y="276"/>
      <point x="665" y="-12"/>
    </contour>
  </outline>
</glyph>
<glyph name="idotless" format="2">
  <advance width="257"/>
  <unicode hex="0131"/>
  <anchor x="208" y="0" name="bottom"/>
  <anchor x="68" y="0" name="ogonek"/>
  <anchor x="159" y="920" name="top"/>
  <outline>
    <contour>
      <point x="48" y="0" type="line"/>
      <point x="68" y="0" type="line"/>
      <point x="132" y="920" type="line"/>
      <point x="112" y="920" type="line"/>
    </contour>
  </outline>
</glyph>
<glyph name="Lslash" format="2">
  <advance width="808"/>
  <unicode hex="0141"/>
  <anchor x="404" y="0" name="bottom"/>
  <anchor x="214" y="700" name="center"/>
  <anchor x="657" y="1400" name="top"/>
  <anchor x="591" y="1400" name="topright"/>
  <outline>
    <contour>
      <point x="60" y="0" type="line"/>
      <point x="664" y="0" type="line"/>
      <point x="667" y="20" type="line"/>
      <point x="83" y="20" type="line"/>
      <point x="364" y="1398" type="line"/>
      <point x="344" y="1398" type="line"/>
    </contour>
    <contour>
      <point x="83" y="811" type="line"/>
      <point x="491" y="1053" type="line"/>
      <point x="483" y="1069" type="line"/>
      <point x="75" y="827" type="line"/>
    </contour>
  </outline>
</glyph>
<glyph name="lslash" format="2">
  <advance width="338"/>
  <unicode hex="0142"/>
  <anchor x="169" y="0" name="bottom"/>
  <anchor x="57" y="800" name="center"/>
  <anchor x="367" y="1558" name="top"/>
  <anchor x="432" y="1564" name="topright"/>
  <outline>
    <contour>
      <point x="48" y="0" type="line"/>
      <point x="68" y="0" type="line"/>
      <point x="259" y="928" type="line"/>
      <point x="410" y="1061" type="line"/>
      <point x="398" y="1075" type="line"/>
      <point x="264" y="958" type="line"/>
      <point x="387" y="1558" type="line"/>
      <point x="367" y="1558" type="line"/>
      <point x="239" y="937" type="line"/>
      <point x="96" y="811" type="line"/>
      <point x="108" y="797" type="line"/>
      <point x="234" y="907" type="line"/>
    </contour>
  </outline>
</glyph>
<glyph name="Eng" format="2">
  <advance width="1250"/>
  <unicode hex="014A"/>
  <anchor x="434" y="0" name="bottom"/>
  <anchor x="800" y="1400" name="top"/>
  <outline>
    <contour>
      <point x="737" y="-438" type="curve" smooth="yes"/>
      <point x="852" y="-438"/>
      <point x="945" y="-330"/>
      <point x="979" y="-164" type="curve" smooth="yes"/>
      <point x="1296" y="1398" type="line"/>
      <point x="1274" y="1398" type="line"/>
      <point x="995" y="34" type="line"/>
      <point x="273" y="1430" type="line"/>
      <point x="-18" y="0" type="line"/>
      <point x="4" y="0" type="line"/>
      <point x="281" y="1356" type="line"/>
      <point x="992" y="-5" type="line"/>
      <point x="959" y="-164" type="line" smooth="yes"/>
      <point x="928" y="-315"/>
      <point x="837" y="-418"/>
      <point x="740" y="-418" type="curve" smooth="yes"/>
      <point x="688" y="-418"/>
      <point x="641" y="-389"/>
      <point x="592" y="-330" type="curve"/>
      <point x="576" y="-344" type="line"/>
      <point x="637" y="-413"/>
      <point x="682" y="-438"/>
    </contour>
  </outline>
</glyph>
<glyph name="eng" format="2">
  <advance width="892"/>
  <unicode hex="014B"/>
  <outline>
    <contour>
      <point x="333" y="-438" type="curve" smooth="yes"/>
      <point x="453" y="-438"/>
      <point x="560" y="-325"/>
      <point x="592" y="-164" type="curve" smooth="yes"/>
      <point x="753" y="641" type="line" smooth="yes"/>
      <point x="788" y="817"/>
      <point x="710" y="935"/>
      <point x="562" y="938" type="curve" smooth="yes"/>
      <point x="418" y="941"/>
      <point x="286" y="833"/>
      <point x="204" y="655" type="curve"/>
      <point x="260" y="920" type="line"/>
      <point x="240" y="920" type="line"/>
      <point x="48" y="0" type="line"/>
      <point x="68" y="0" type="line"/>
      <point x="193" y="602" type="line"/>
      <point x="276" y="801"/>
      <point x="412" y="918"/>
      <point x="558" y="918" type="curve" smooth="yes"/>
      <point x="696" y="918"/>
      <point x="766" y="813"/>
      <point x="732" y="641" type="curve" smooth="yes"/>
      <point x="572" y="-164" type="line" smooth="yes"/>
      <point x="544" y="-306"/>
      <point x="435" y="-418"/>
      <point x="330" y="-418" type="curve" smooth="yes"/>
      <point x="283" y="-418"/>
      <point x="254" y="-398"/>
      <point x="205" y="-330" type="curve"/>
      <point x="189" y="-344" type="line"/>
      <point x="244" y="-414"/>
      <point x="277" y="-438"/>
    </contour>
  </outline>
</glyph>
<glyph name="OE" format="2">
  <advance width="1788"/>
  <unicode hex="0152"/>
  <anchor x="894" y="0" name="bottom"/>
  <anchor x="1159" y="1400" name="top"/>
  <outline>
    <contour>
      <point x="628" y="6" type="curve" smooth="yes"/>
      <point x="1532" y="6" type="line"/>
      <point x="1535" y="20" type="line"/>
      <point x="882" y="20" type="line"/>
      <point x="1036" y="770" type="line"/>
      <point x="1646" y="770" type="line"/>
      <point x="1649" y="790" type="line"/>
      <point x="1040" y="790" type="line"/>
      <point x="1161" y="1380" type="line"/>
      <point x="1806" y="1380" type="line"/>
      <point x="1809" y="1394" type="line"/>
      <point x="903" y="1394" type="line" smooth="yes"/>
      <point x="471" y="1394"/>
      <point x="92" y="996"/>
      <point x="92" y="567" type="curve" smooth="yes"/>
      <point x="92" y="249"/>
      <point x="301" y="6"/>
    </contour>
    <contour>
      <point x="627" y="26" type="line" smooth="yes"/>
      <point x="322" y="26"/>
      <point x="112" y="262"/>
      <point x="112" y="570" type="curve" smooth="yes"/>
      <point x="112" y="980"/>
      <point x="484" y="1374"/>
      <point x="904" y="1374" type="curve" smooth="yes"/>
      <point x="1141" y="1374" type="line"/>
      <point x="862" y="26" type="line"/>
    </contour>
  </outline>
</glyph>
<glyph name="oe" format="2">
  <advance width="1742"/>
  <unicode hex="0153"/>
  <anchor x="871" y="0" name="bottom"/>
  <anchor x="741" y="920" name="top"/>
  <outline>
    <contour>
      <point x="369" y="-18" type="curve" smooth="yes"/>
      <point x="572" y="-18"/>
      <point x="761" y="155"/>
      <point x="833" y="406" type="curve"/>
      <point x="828" y="406" type="line"/>
      <point x="803" y="160"/>
      <point x="943" y="-18"/>
      <point x="1158" y="-18" type="curve" smooth="yes"/>
      <point x="1300" y="-18"/>
      <point x="1445" y="59"/>
      <point x="1580" y="208" type="curve"/>
      <point x="1567" y="222" type="line"/>
      <point x="1441" y="76"/>
      <point x="1293" y="-1"/>
      <point x="1145" y="2" type="curve" smooth="yes"/>
      <point x="929" y="7"/>
      <point x="815" y="183"/>
      <point x="847" y="459" type="curve"/>
      <point x="840" y="456" type="line"/>
      <point x="1638" y="456" type="line"/>
      <point x="1651" y="508"/>
      <point x="1657" y="557"/>
      <point x="1657" y="596" type="curve" smooth="yes"/>
      <point x="1657" y="784"/>
      <point x="1519" y="932"/>
      <point x="1334" y="938" type="curve" smooth="yes"/>
      <point x="1117" y="945"/>
      <point x="900" y="751"/>
      <point x="844" y="495" type="curve"/>
      <point x="851" y="495" type="line"/>
      <point x="880" y="747"/>
      <point x="756" y="933"/>
      <point x="554" y="938" type="curve" smooth="yes"/>
      <point x="294" y="945"/>
      <point x="57" y="654"/>
      <point x="57" y="352" type="curve" smooth="yes"/>
      <point x="57" y="132"/>
      <point x="183" y="-18"/>
    </contour>
    <contour>
      <point x="369" y="2" type="curve" smooth="yes"/>
      <point x="193" y="2"/>
      <point x="77" y="144"/>
      <point x="77" y="351" type="curve" smooth="yes"/>
      <point x="77" y="639"/>
      <point x="303" y="918"/>
      <point x="547" y="918" type="curve" smooth="yes"/>
      <point x="723" y="918"/>
      <point x="838" y="774"/>
      <point x="838" y="563" type="curve" smooth="yes"/>
      <point x="838" y="264"/>
      <point x="607" y="2"/>
    </contour>
    <contour>
      <point x="850" y="466" type="line"/>
      <point x="902" y="719"/>
      <point x="1119" y="920"/>
      <point x="1337" y="916" type="curve" smooth="yes"/>
      <point x="1507" y="911"/>
      <point x="1637" y="772"/>
      <point x="1637" y="593" type="curve" smooth="yes"/>
      <point x="1637" y="546"/>
      <point x="1628" y="506"/>
      <point x="1613" y="463" type="curve"/>
      <point x="1631" y="476" type="line"/>
      <point x="846" y="476" type="line"/>
    </contour>
  </outline>
</glyph>
<glyph name="Tbar" format="2">
  <advance width="810"/>
  <unicode hex="0166"/>
  <anchor x="228" y="-3" name="bottom"/>
  <anchor x="307" y="700" name="center"/>
  <anchor x="582" y="1400" name="top"/>
  <outline>
    <contour>
      <point x="284" y="0" type="line"/>
      <point x="306" y="0" type="line"/>
      <point x="585" y="1378" type="line"/>
      <point x="943" y="1378" type="line"/>
      <point x="948" y="1400" type="line"/>
      <point x="210" y="1400" type="line"/>
      <point x="207" y="1378" type="line"/>
      <point x="563" y="1378" type="line"/>
    </contour>
    <contour>
      <point x="169" y="978" type="line"/>
      <point x="893" y="978" type="line"/>
      <point x="896" y="1000" type="line"/>
      <point x="172" y="1000" type="line"/>
    </contour>
  </outline>
</glyph>
<glyph name="tbar" format="2">
  <advance width="356"/>
  <unicode hex="0167"/>
  <anchor x="0" y="-6" name="bottom"/>
  <anchor x="113" y="460" name="center"/>
  <anchor x="416" y="1072" name="top"/>
  <anchor x="485" y="1239" name="topright"/>
  <outline>
    <contour>
      <point x="58" y="0" type="line"/>
      <point x="78" y="0" type="line"/>
      <point x="242" y="800" type="line"/>
      <point x="391" y="800" type="line"/>
      <point x="396" y="820" type="line"/>
      <point x="246" y="820" type="line"/>
      <point x="263" y="900" type="line"/>
      <point x="410" y="900" type="line"/>
      <point x="415" y="920" type="line"/>
      <point x="267" y="920" type="line"/>
      <point x="332" y="1238" type="line"/>
      <point x="312" y="1238" type="line"/>
      <point x="247" y="920" type="line"/>
      <point x="113" y="920" type="line"/>
      <point x="108" y="900" type="line"/>
      <point x="243" y="900" type="line"/>
      <point x="226" y="820" type="line"/>
      <point x="94" y="820" type="line"/>
      <point x="89" y="800" type="line"/>
      <point x="222" y="800" type="line"/>
    </contour>
  </outline>
</glyph>
<glyph name="florin" format="2">
  <advance width="1200"/>
  <unicode hex="0192"/>
  <outline>
    <contour>
      <point x="118" y="-400" type="curve" smooth="yes"/>
      <point x="230" y="-400"/>
      <point x="329" y="-298"/>
      <point x="364" y="-126" type="curve" smooth="yes"/>
      <point x="571" y="900" type="line"/>
      <point x="734" y="900" type="line"/>
      <point x="737" y="920" type="line"/>
      <point x="575" y="920" type="line"/>
      <point x="652" y="1300" type="line" smooth="yes"/>
      <point x="685" y="1462"/>
      <point x="776" y="1554"/>
      <point x="878" y="1554" type="curve" smooth="yes"/>
      <point x="930" y="1554"/>
      <point x="968" y="1530"/>
      <point x="1018" y="1466" type="curve"/>
      <point x="1032" y="1480" type="line"/>
      <point x="981" y="1546"/>
      <point x="934" y="1574"/>
      <point x="876" y="1574" type="curve" smooth="yes"/>
      <point x="765" y="1574"/>
      <point x="663" y="1472"/>
      <point x="629" y="1300" type="curve" smooth="yes"/>
      <point x="553" y="920" type="line"/>
      <point x="371" y="920" type="line"/>
      <point x="366" y="900" type="line"/>
      <point x="549" y="900" type="line"/>
      <point x="341" y="-126" type="line" smooth="yes"/>
      <point x="308" y="-288"/>
      <point x="217" y="-380"/>
      <point x="115" y="-380" type="curve" smooth="yes"/>
      <point x="63" y="-380"/>
      <point x="25" y="-356"/>
      <point x="-25" y="-292" type="curve"/>
      <point x="-39" y="-306" type="line"/>
      <point x="12" y="-372"/>
      <point x="60" y="-400"/>
    </contour>
  </outline>
</glyph>
<glyph name="gravecomb" format="2">
  <unicode hex="0300"/>
  <anchor x="-8" y="920" name="_top"/>
  <anchor x="-75" y="1398" name="top"/>
  <outline>
    <contour>
      <point x="83" y="1072" type="line"/>
      <point x="92" y="1080" type="line"/>
      <point x="-179" y="1398" type="line"/>
      <point x="-195" y="1384" type="line"/>
    </contour>
  </outline>
</glyph>
<glyph name="acutecomb" format="2">
  <unicode hex="0301"/>
  <anchor x="-25" y="920" name="_top"/>
  <anchor x="45" y="1436" name="top"/>
  <outline>
    <contour>
      <point x="-119" y="1114" type="line"/>
      <point x="264" y="1420" type="line"/>
      <point x="250" y="1436" type="line"/>
      <point x="-128" y="1124" type="line"/>
    </contour>
  </outline>
</glyph>
<glyph name="circumflexcomb" format="2">
  <unicode hex="0302"/>
  <anchor x="164" y="920" name="_top"/>
  <anchor x="88" y="1458" name="top"/>
  <outline>
    <contour>
      <point x="-147" y="1162" type="line"/>
      <point x="170" y="1447" type="line"/>
      <point x="156" y="1447" type="line"/>
      <point x="447" y="1171" type="line"/>
      <point x="462" y="1186" type="line"/>
      <point x="162" y="1467" type="line"/>
      <point x="-165" y="1176" type="line"/>
    </contour>
  </outline>
</glyph>
<glyph name="tildecomb" format="2">
  <unicode hex="0303"/>
  <anchor x="126" y="920" name="_top"/>
  <anchor x="57" y="1414" name="top"/>
  <outline>
    <contour>
      <point x="-105" y="1298" type="line"/>
      <point x="-66" y="1365"/>
      <point x="-27" y="1396"/>
      <point x="21" y="1396" type="curve" smooth="yes"/>
      <point x="102" y="1396"/>
      <point x="150" y="1306"/>
      <point x="230" y="1306" type="curve" smooth="yes"/>
      <point x="294" y="1306"/>
      <point x="338" y="1364"/>
      <point x="374" y="1408" type="curve"/>
      <point x="355" y="1414" type="line"/>
      <point x="324" y="1376"/>
      <point x="293" y="1322"/>
      <point x="232" y="1322" type="curve" smooth="yes"/>
      <point x="154" y="1322"/>
      <point x="106" y="1412"/>
      <point x="16" y="1412" type="curve" smooth="yes"/>
      <point x="-57" y="1412"/>
      <point x="-95" y="1354"/>
      <point x="-123" y="1300" type="curve"/>
    </contour>
  </outline>
</glyph>
<glyph name="macroncomb" format="2">
  <unicode hex="0304"/>
  <anchor x="83" y="920" name="_top"/>
  <anchor x="22" y="1350" name="top"/>
  <outline>
    <contour>
      <point x="-187" y="1330" type="line"/>
      <point x="471" y="1330" type="line"/>
      <point x="474" y="1350" type="line"/>
      <point x="-184" y="1350" type="line"/>
    </contour>
  </outline>
</glyph>
<glyph name="brevecomb" format="2">
  <unicode hex="0306"/>
  <anchor x="48" y="920" name="_top"/>
  <anchor x="-21" y="1410" name="top"/>
  <outline>
    <contour>
      <point x="68" y="1163" type="curve" smooth="yes"/>
      <point x="233" y="1163"/>
      <point x="352" y="1253"/>
      <point x="367" y="1389" type="curve"/>
      <point x="351" y="1389" type="line"/>
      <point x="324" y="1259"/>
      <point x="219" y="1181"/>
      <point x="69" y="1182" type="curve" smooth="yes"/>
      <point x="-81" y="1183"/>
      <point x="-176" y="1263"/>
      <point x="-177" y="1390" type="curve"/>
      <point x="-189" y="1390" type="line"/>
      <point x="-201" y="1254"/>
      <point x="-96" y="1163"/>
    </contour>
  </outline>
</glyph>
<glyph name="dotaccentcomb" format="2">
  <unicode hex="0307"/>
  <anchor x="-108" y="920" name="_top"/>
  <anchor x="-172" y="1412" name="top"/>
  <outline>
    <contour>
      <point x="-169" y="1318" type="curve" smooth="yes"/>
      <point x="-157" y="1318"/>
      <point x="-146" y="1330"/>
      <point x="-146" y="1343" type="curve" smooth="yes"/>
      <point x="-146" y="1355"/>
      <point x="-154" y="1362"/>
      <point x="-165" y="1362" type="curve" smooth="yes"/>
      <point x="-178" y="1362"/>
      <point x="-188" y="1352"/>
      <point x="-188" y="1340" type="curve" smooth="yes"/>
      <point x="-188" y="1327"/>
      <point x="-180" y="1318"/>
    </contour>
  </outline>
</glyph>
<glyph name="dieresiscomb" format="2">
  <unicode hex="0308"/>
  <anchor x="-60" y="920" name="_top"/>
  <anchor x="-127" y="1400" name="top"/>
  <outline>
    <contour>
      <point x="-162" y="1256" type="curve" smooth="yes"/>
      <point x="-149" y="1256"/>
      <point x="-138" y="1265"/>
      <point x="-137" y="1278" type="curve" smooth="yes"/>
      <point x="-136" y="1291"/>
      <point x="-143" y="1300"/>
      <point x="-156" y="1300" type="curve" smooth="yes"/>
      <point x="-168" y="1300"/>
      <point x="-179" y="1292"/>
      <point x="-179" y="1277" type="curve" smooth="yes"/>
      <point x="-179" y="1266"/>
      <point x="-173" y="1256"/>
    </contour>
    <contour>
      <point x="214" y="1256" type="curve" smooth="yes"/>
      <point x="227" y="1256"/>
      <point x="238" y="1265"/>
      <point x="239" y="1278" type="curve" smooth="yes"/>
      <point x="240" y="1291"/>
      <point x="233" y="1300"/>
      <point x="220" y="1300" type="curve" smooth="yes"/>
      <point x="208" y="1300"/>
      <point x="197" y="1292"/>
      <point x="197" y="1277" type="curve" smooth="yes"/>
      <point x="197" y="1266"/>
      <point x="203" y="1256"/>
    </contour>
  </outline>
</glyph>
<glyph name="ringcomb" format="2">
  <unicode hex="030A"/>
  <anchor x="74" y="920" name="_top"/>
  <anchor x="-3" y="1468" name="top"/>
  <outline>
    <contour>
      <point x="91" y="1072" type="curve" smooth="yes"/>
      <point x="205" y="1072"/>
      <point x="322" y="1185"/>
      <point x="322" y="1303" type="curve" smooth="yes"/>
      <point x="322" y="1394"/>
      <point x="251" y="1468"/>
      <point x="161" y="1468" type="curve" smooth="yes"/>
      <point x="42" y="1468"/>
      <point x="-72" y="1351"/>
      <point x="-72" y="1237" type="curve" smooth="yes"/>
      <point x="-72" y="1146"/>
      <point x="-1" y="1072"/>
    </contour>
    <contour>
      <point x="92" y="1092" type="curve" smooth="yes"/>
      <point x="11" y="1092"/>
      <point x="-52" y="1156"/>
      <point x="-52" y="1237" type="curve" smooth="yes"/>
      <point x="-52" y="1344"/>
      <point x="56" y="1448"/>
      <point x="158" y="1448" type="curve" smooth="yes"/>
      <point x="239" y="1448"/>
      <point x="303" y="1383"/>
      <point x="303" y="1303" type="curve" smooth="yes"/>
      <point x="303" y="1200"/>
      <point x="198" y="1092"/>
    </contour>
  </outline>
</glyph>
<glyph name="hungarumlautcomb" format="2">
  <unicode hex="030B"/>
  <anchor x="-59" y="920" name="_top"/>
  <anchor x="-137" y="1476" name="top"/>
  <outline>
    <contour>
      <point x="-139" y="1058" type="line"/>
      <point x="137" y="1464" type="line"/>
      <point x="119" y="1476" type="line"/>
      <point x="-150" y="1065" type="line"/>
    </contour>
    <contour>
      <point x="61" y="1058" type="line"/>
      <point x="337" y="1464" type="line"/>
      <point x="319" y="1476" type="line"/>
      <point x="50" y="1065" type="line"/>
    </contour>
  </outline>
</glyph>
<glyph name="caroncomb" format="2">
  <unicode hex="030C"/>
  <anchor x="185" y="920" name="_top"/>
  <anchor x="108" y="1467" name="top"/>
  <outline>
    <contour>
      <point x="96" y="1162" type="line"/>
      <point x="424" y="1453" type="line"/>
      <point x="406" y="1467" type="line"/>
      <point x="89" y="1182" type="line"/>
      <point x="103" y="1182" type="line"/>
      <point x="-188" y="1458" type="line"/>
      <point x="-203" y="1443" type="line"/>
    </contour>
  </outline>
</glyph>
<glyph name="commaturnedabovecomb" format="2">
  <unicode hex="0312"/>
  <anchor x="69" y="920" name="_top"/>
  <anchor x="-20" y="1554" name="top"/>
  <outline>
    <contour>
      <point x="-130" y="1052" type="line"/>
      <point x="178" y="1550" type="line"/>
      <point x="166" y="1554" type="line"/>
      <point x="-149" y="1062" type="line"/>
    </contour>
  </outline>
</glyph>
<glyph name="commaaccentcomb" format="2">
  <unicode hex="0326"/>
  <anchor x="224" y="-4" name="_bottom"/>
  <anchor x="208" y="-445" name="bottom"/>
  <outline>
    <contour>
      <point x="62" y="-381" type="line"/>
      <point x="366" y="-67" type="line"/>
      <point x="352" y="-58" type="line"/>
      <point x="53" y="-376" type="line"/>
    </contour>
  </outline>
</glyph>
<glyph name="cedillacomb" format="2">
  <unicode hex="0327"/>
  <anchor x="208" y="0" name="_bottom"/>
  <anchor x="270" y="-442" name="bottom"/>
  <outline>
    <contour>
      <point x="221" y="-442" type="curve" smooth="yes"/>
      <point x="347" y="-442"/>
      <point x="448" y="-350"/>
      <point x="448" y="-240" type="curve" smooth="yes"/>
      <point x="448" y="-158"/>
      <point x="393" y="-100"/>
      <point x="311" y="-100" type="curve" smooth="yes"/>
      <point x="260" y="-100"/>
      <point x="196" y="-123"/>
      <point x="167" y="-151" type="curve"/>
      <point x="188" y="-145" type="line"/>
      <point x="286" y="6" type="line"/>
      <point x="266" y="6" type="line"/>
      <point x="146" y="-173" type="line"/>
      <point x="192" y="-142"/>
      <point x="259" y="-120"/>
      <point x="310" y="-120" type="curve" smooth="yes"/>
      <point x="383" y="-120"/>
      <point x="425" y="-165"/>
      <point x="425" y="-237" type="curve" smooth="yes"/>
      <point x="425" y="-341"/>
      <point x="337" y="-422"/>
      <point x="222" y="-422" type="curve" smooth="yes"/>
      <point x="158" y="-422"/>
      <point x="107" y="-397"/>
      <point x="68" y="-349" type="curve"/>
      <point x="51" y="-364" type="line"/>
      <point x="98" y="-417"/>
      <point x="154" y="-442"/>
    </contour>
  </outline>
</glyph>
<glyph name="ogonekcomb" format="2">
  <unicode hex="0328"/>
  <anchor x="394" y="0" name="_ogonek"/>
  <outline>
    <contour>
      <point x="213" y="-438" type="curve" smooth="yes"/>
      <point x="292" y="-440"/>
      <point x="352" y="-402"/>
      <point x="411" y="-362" type="curve"/>
      <point x="399" y="-348" type="line"/>
      <point x="344" y="-384"/>
      <point x="285" y="-420"/>
      <point x="213" y="-418" type="curve" smooth="yes"/>
      <point x="132" y="-416"/>
      <point x="53" y="-370"/>
      <point x="62" y="-276" type="curve" smooth="yes"/>
      <point x="77" y="-129"/>
      <point x="299" y="-50"/>
      <point x="394" y="0" type="curve"/>
      <point x="383" y="18" type="line"/>
      <point x="262" y="-40"/>
      <point x="58" y="-120"/>
      <point x="43" y="-278" type="curve" smooth="yes"/>
      <point x="35" y="-381"/>
      <point x="118" y="-436"/>
    </contour>
  </outline>
</glyph>
<glyph name="Delta" format="2">
  <advance width="1200"/>
  <unicode hex="0394"/>
  <outline>
    <contour>
      <point x="83" y="3" type="line"/>
      <point x="1105" y="3" type="line"/>
      <point x="798" y="1493" type="line"/>
    </contour>
    <contour>
      <point x="114" y="21" type="line"/>
      <point x="789" y="1426" type="line"/>
      <point x="1078" y="21" type="line"/>
    </contour>
  </outline>
</glyph>
<glyph name="Omega" format="2">
  <advance width="1200"/>
  <unicode hex="03A9"/>
  <outline>
    <contour>
      <point x="62" y="0" type="line"/>
      <point x="453" y="0" type="line"/>
      <point x="453" y="4" type="line"/>
      <point x="290" y="95"/>
      <point x="172" y="319"/>
      <point x="172" y="537" type="curve" smooth="yes"/>
      <point x="172" y="842"/>
      <point x="404" y="1101"/>
      <point x="688" y="1101" type="curve" smooth="yes"/>
      <point x="912" y="1101"/>
      <point x="1068" y="939"/>
      <point x="1068" y="711" type="curve" smooth="yes"/>
      <point x="1068" y="450"/>
      <point x="862" y="125"/>
      <point x="606" y="4" type="curve"/>
      <point x="606" y="0" type="line"/>
      <point x="997" y="0" type="line"/>
      <point x="999" y="16" type="line"/>
      <point x="666" y="16" type="line"/>
      <point x="907" y="163"/>
      <point x="1086" y="464"/>
      <point x="1086" y="712" type="curve" smooth="yes"/>
      <point x="1086" y="949"/>
      <point x="924" y="1117"/>
      <point x="690" y="1117" type="curve" smooth="yes"/>
      <point x="394" y="1117"/>
      <point x="153" y="849"/>
      <point x="153" y="536" type="curve" smooth="yes"/>
      <point x="153" y="337"/>
      <point x="252" y="126"/>
      <point x="398" y="16" type="curve"/>
      <point x="64" y="16" type="line"/>
    </contour>
  </outline>
</glyph>
<glyph name="mu" format="2">
  <advance width="892"/>
  <unicode hex="03BC"/>
  <outline>
    <contour>
      <point x="-80" y="-638" type="line"/>
      <point x="-60" y="-638" type="line"/>
      <point x="105" y="165" type="line"/>
      <point x="116" y="67"/>
      <point x="167" y="-16"/>
      <point x="299" y="-18" type="curve" smooth="yes"/>
      <point x="475" y="-22"/>
      <point x="593" y="117"/>
      <point x="659" y="265" type="curve"/>
      <point x="604" y="0" type="line"/>
      <point x="624" y="0" type="line"/>
      <point x="813" y="918" type="line"/>
      <point x="793" y="918" type="line"/>
      <point x="701" y="474" type="line" smooth="yes"/>
      <point x="636" y="161"/>
      <point x="488" y="-6"/>
      <point x="300" y="2" type="curve" smooth="yes"/>
      <point x="135" y="9"/>
      <point x="106" y="144"/>
      <point x="130" y="264" type="curve" smooth="yes"/>
      <point x="259" y="918" type="line"/>
      <point x="239" y="918" type="line"/>
    </contour>
  </outline>
</glyph>
<glyph name="pi" format="2">
  <advance width="884"/>
  <unicode hex="03C0"/>
  <outline>
    <contour>
      <point x="646" y="-16" type="curve"/>
      <point x="650" y="2" type="line"/>
      <point x="538" y="58"/>
      <point x="577" y="145"/>
      <point x="598" y="242" type="curve" smooth="yes"/>
      <point x="741" y="900" type="line"/>
      <point x="882" y="900" type="line"/>
      <point x="885" y="920" type="line"/>
      <point x="133" y="920" type="line"/>
      <point x="128" y="900" type="line"/>
      <point x="251" y="900" type="line"/>
      <point x="58" y="0" type="line"/>
      <point x="78" y="0" type="line"/>
      <point x="271" y="900" type="line"/>
      <point x="721" y="900" type="line"/>
      <point x="580" y="242" type="line" smooth="yes"/>
      <point x="558" y="140"/>
      <point x="514" y="32"/>
    </contour>
  </outline>
</glyph>
<glyph name="A-cy" format="2">
  <advance width="1240"/>
  <unicode hex="0410"/>
  <outline>
    <contour>
      <point x="-84" y="0" type="line"/>
      <point x="-60" y="0" type="line"/>
      <point x="257" y="544" type="line"/>
      <point x="880" y="544" type="line"/>
      <point x="968" y="0" type="line"/>
      <point x="992" y="0" type="line"/>
      <point x="745" y="1430" type="line"/>
    </contour>
    <contour>
      <point x="266" y="564" type="line"/>
      <point x="737" y="1376" type="line"/>
      <point x="877" y="564" type="line"/>
    </contour>
  </outline>
</glyph>
<glyph name="Be-cy" format="2">
  <advance width="954"/>
  <unicode hex="0411"/>
  <outline>
    <contour>
      <point x="40" y="0" type="line"/>
      <point x="330" y="0" type="line" smooth="yes"/>
      <point x="588" y="0"/>
      <point x="818" y="182"/>
      <point x="859" y="420" type="curve" smooth="yes"/>
      <point x="901" y="662"/>
      <point x="724" y="840"/>
      <point x="484" y="840" type="curve" smooth="yes"/>
      <point x="230" y="840" type="line"/>
      <point x="340" y="1380" type="line"/>
      <point x="950" y="1380" type="line"/>
      <point x="953" y="1400" type="line"/>
      <point x="323" y="1400" type="line"/>
    </contour>
    <contour>
      <point x="62" y="20" type="line"/>
      <point x="226" y="820" type="line"/>
      <point x="491" y="820" type="line" smooth="yes"/>
      <point x="720" y="820"/>
      <point x="880" y="646"/>
      <point x="839" y="420" type="curve" smooth="yes"/>
      <point x="797" y="190"/>
      <point x="571" y="20"/>
      <point x="325" y="20" type="curve" smooth="yes"/>
    </contour>
  </outline>
</glyph>
<glyph name="Ve-cy" format="2">
  <advance width="1050"/>
  <unicode hex="0412"/>
  <outline>
    <contour>
      <point x="58" y="0" type="line"/>
      <point x="288" y="0" type="line" smooth="yes"/>
      <point x="541" y="0"/>
      <point x="762" y="164"/>
      <point x="792" y="401" type="curve" smooth="yes"/>
      <point x="818" y="604"/>
      <point x="688" y="755"/>
      <point x="512" y="780" type="curve"/>
      <point x="693" y="804"/>
      <point x="828" y="919"/>
      <point x="858" y="1076" type="curve" smooth="yes"/>
      <point x="898" y="1277"/>
      <point x="740" y="1400"/>
      <point x="547" y="1400" type="curve" smooth="yes"/>
      <point x="343" y="1400" type="line"/>
    </contour>
    <contour>
      <point x="83" y="22" type="line"/>
      <point x="234" y="768" type="line"/>
      <point x="442" y="768" type="line" smooth="yes"/>
      <point x="643" y="768"/>
      <point x="800" y="616"/>
      <point x="770" y="402" type="curve" smooth="yes"/>
      <point x="740" y="184"/>
      <point x="533" y="22"/>
      <point x="289" y="22" type="curve" smooth="yes"/>
    </contour>
    <contour>
      <point x="240" y="792" type="line"/>
      <point x="358" y="1378" type="line"/>
      <point x="546" y="1378" type="line" smooth="yes"/>
      <point x="728" y="1378"/>
      <point x="873" y="1272"/>
      <point x="836" y="1082" type="curve" smooth="yes"/>
      <point x="800" y="895"/>
      <point x="618" y="792"/>
      <point x="423" y="792" type="curve" smooth="yes"/>
    </contour>
  </outline>
</glyph>
<glyph name="Ge-cy" format="2">
  <advance width="818"/>
  <unicode hex="0413"/>
  <anchor x="798" y="0" name="bottomright"/>
  <anchor x="212" y="1400" name="top"/>
  <outline>
    <contour>
      <point x="40" y="0" type="line"/>
      <point x="58" y="0" type="line"/>
      <point x="340" y="1380" type="line"/>
      <point x="968" y="1380" type="line"/>
      <point x="973" y="1400" type="line"/>
      <point x="323" y="1400" type="line"/>
    </contour>
  </outline>
</glyph>
<glyph name="De-cy" format="2">
  <advance width="1604"/>
  <unicode hex="0414"/>
  <outline>
    <contour>
      <point x="230" y="11" type="curve"/>
      <point x="260" y="11" type="line"/>
      <point x="504" y="233"/>
      <point x="589" y="479"/>
      <point x="750" y="1434" type="curve"/>
      <point x="729" y="1424" type="line"/>
      <point x="1352" y="1423" type="line"/>
      <point x="1342" y="1433" type="line"/>
      <point x="1246" y="11" type="line"/>
      <point x="1265" y="11" type="line"/>
      <point x="1360" y="1441" type="line"/>
      <point x="731" y="1442" type="line"/>
      <point x="569" y="478"/>
      <point x="488" y="250"/>
    </contour>
    <contour>
      <point x="55" y="-228" type="line"/>
      <point x="75" y="-228" type="line"/>
      <point x="90" y="14" type="line"/>
      <point x="74" y="-1" type="line"/>
      <point x="1459" y="-4" type="line"/>
      <point x="1445" y="12" type="line"/>
      <point x="1429" y="-228" type="line"/>
      <point x="1449" y="-228" type="line"/>
      <point x="1466" y="17" type="line"/>
      <point x="71" y="19" type="line"/>
    </contour>
  </outline>
</glyph>
<glyph name="Ie-cy" format="2">
  <advance width="1034"/>
  <unicode hex="0415"/>
  <anchor x="648" y="1400" name="top"/>
  <outline>
    <contour>
      <point x="58" y="0" type="line"/>
      <point x="702" y="0" type="line"/>
      <point x="705" y="20" type="line"/>
      <point x="84" y="20" type="line"/>
      <point x="237" y="768" type="line"/>
      <point x="818" y="768" type="line"/>
      <point x="821" y="788" type="line"/>
      <point x="241" y="788" type="line"/>
      <point x="362" y="1380" type="line"/>
      <point x="978" y="1380" type="line"/>
      <point x="981" y="1400" type="line"/>
      <point x="344" y="1400" type="line"/>
    </contour>
  </outline>
</glyph>
<glyph name="Zhe-cy" format="2">
  <advance width="1204"/>
  <unicode hex="0416"/>
  <anchor x="1184" y="0" name="bottomright"/>
  <anchor x="777" y="1400" name="top"/>
  <outline>
    <contour>
      <point x="-106" y="0" type="line"/>
      <point x="-72" y="0" type="line"/>
      <point x="640" y="730" type="line"/>
      <point x="490" y="0" type="line"/>
      <point x="510" y="0" type="line"/>
      <point x="661" y="733" type="line"/>
      <point x="1060" y="0" type="line"/>
      <point x="1084" y="0" type="line"/>
      <point x="676" y="738" type="line"/>
      <point x="1346" y="1396" type="line"/>
      <point x="1312" y="1396" type="line"/>
      <point x="664" y="751" type="line"/>
      <point x="798" y="1398" type="line"/>
      <point x="778" y="1398" type="line"/>
      <point x="643" y="746" type="line"/>
      <point x="237" y="1400" type="line"/>
      <point x="213" y="1400" type="line"/>
      <point x="628" y="742" type="line"/>
    </contour>
  </outline>
</glyph>
<glyph name="Ze-cy" format="2">
  <advance width="1140"/>
  <unicode hex="0417"/>
  <anchor x="461" y="-11" name="bottom"/>
  <anchor x="556" y="1414" name="top"/>
  <outline>
    <contour>
      <point x="479" y="-32" type="curve" smooth="yes"/>
      <point x="777" y="-32"/>
      <point x="977" y="120"/>
      <point x="993" y="368" type="curve" smooth="yes"/>
      <point x="1007" y="584"/>
      <point x="869" y="705"/>
      <point x="580" y="728" type="curve"/>
      <point x="833" y="756"/>
      <point x="988" y="877"/>
      <point x="1000" y="1063" type="curve" smooth="yes"/>
      <point x="1014" y="1274"/>
      <point x="839" y="1435"/>
      <point x="580" y="1435" type="curve" smooth="yes"/>
      <point x="324" y="1435"/>
      <point x="128" y="1278"/>
      <point x="113" y="1061" type="curve"/>
      <point x="133" y="1061" type="line"/>
      <point x="147" y="1268"/>
      <point x="335" y="1414"/>
      <point x="577" y="1414" type="curve" smooth="yes"/>
      <point x="827" y="1414"/>
      <point x="993" y="1256"/>
      <point x="980" y="1064" type="curve" smooth="yes"/>
      <point x="967" y="867"/>
      <point x="775" y="736"/>
      <point x="471" y="736" type="curve"/>
      <point x="470" y="716" type="line"/>
      <point x="817" y="715"/>
      <point x="988" y="596"/>
      <point x="973" y="370" type="curve" smooth="yes"/>
      <point x="959" y="139"/>
      <point x="766" y="-11"/>
      <point x="478" y="-11" type="curve" smooth="yes"/>
      <point x="191" y="-11"/>
      <point x="13" y="138"/>
      <point x="28" y="366" type="curve"/>
      <point x="9" y="366" type="line"/>
      <point x="-7" y="125"/>
      <point x="177" y="-32"/>
    </contour>
  </outline>
</glyph>
<glyph name="Ii-cy" format="2">
  <advance width="1364"/>
  <unicode hex="0418"/>
  <anchor x="1344" y="0" name="bottomright"/>
  <anchor x="921" y="1400" name="top"/>
  <outline>
    <contour>
      <point x="44" y="-68" type="line"/>
      <point x="1351" y="1397" type="line"/>
      <point x="1064" y="0" type="line"/>
      <point x="1084" y="0" type="line"/>
      <point x="1386" y="1468" type="line"/>
      <point x="77" y="1" type="line"/>
      <point x="364" y="1398" type="line"/>
      <point x="344" y="1398" type="line"/>
    </contour>
  </outline>
</glyph>
<glyph name="Ka-cy" format="2">
  <advance width="1062"/>
  <unicode hex="041A"/>
  <anchor x="1042" y="0" name="bottomright"/>
  <anchor x="588" y="1384" name="top"/>
  <outline>
    <contour>
      <point x="688" y="0" type="line"/>
      <point x="714" y="0" type="line"/>
      <point x="244" y="740" type="line"/>
      <point x="974" y="1396" type="line"/>
      <point x="942" y="1396" type="line"/>
      <point x="217" y="746" type="line"/>
    </contour>
    <contour>
      <point x="48" y="0" type="line"/>
      <point x="70" y="0" type="line"/>
      <point x="356" y="1398" type="line"/>
      <point x="336" y="1398" type="line"/>
    </contour>
  </outline>
</glyph>
<glyph name="El-cy" format="2">
  <advance width="1152"/>
  <unicode hex="041B"/>
  <outline>
    <contour>
      <point x="-89" y="-18" type="line"/>
      <point x="61" y="29"/>
      <point x="143" y="183"/>
      <point x="203" y="480" type="curve" smooth="yes"/>
      <point x="383" y="1380" type="line"/>
      <point x="1155" y="1380" type="line"/>
      <point x="872" y="0" type="line"/>
      <point x="892" y="0" type="line"/>
      <point x="1178" y="1400" type="line"/>
      <point x="368" y="1400" type="line"/>
      <point x="181" y="480" type="line" smooth="yes"/>
      <point x="128" y="221"/>
      <point x="63" y="59"/>
      <point x="-84" y="2" type="curve"/>
    </contour>
  </outline>
</glyph>
<glyph name="Em-cy" format="2">
  <advance width="1524"/>
  <unicode hex="041C"/>
  <outline>
    <contour>
      <point x="2" y="0" type="line"/>
      <point x="22" y="0" type="line"/>
      <point x="433" y="1348" type="line"/>
      <point x="714" y="210" type="line"/>
      <point x="1461" y="1344" type="line"/>
      <point x="1318" y="0" type="line"/>
      <point x="1338" y="0" type="line"/>
      <point x="1491" y="1432" type="line"/>
      <point x="723" y="264" type="line"/>
      <point x="435" y="1430" type="line"/>
    </contour>
  </outline>
</glyph>
<glyph name="En-cy" format="2">
  <advance width="1344"/>
  <unicode hex="041D"/>
  <anchor x="1324" y="0" name="bottomright"/>
  <outline>
    <contour>
      <point x="58" y="0" type="line"/>
      <point x="80" y="0" type="line"/>
      <point x="234" y="754" type="line"/>
      <point x="1070" y="754" type="line"/>
      <point x="916" y="0" type="line"/>
      <point x="938" y="0" type="line"/>
      <point x="1224" y="1398" type="line"/>
      <point x="1202" y="1398" type="line"/>
      <point x="1074" y="774" type="line"/>
      <point x="238" y="774" type="line"/>
      <point x="366" y="1398" type="line"/>
      <point x="344" y="1398" type="line"/>
    </contour>
  </outline>
</glyph>
<glyph name="Pe-cy" format="2">
  <advance width="1204"/>
  <unicode hex="041F"/>
  <anchor x="1184" y="0" name="bottomright"/>
  <outline>
    <contour>
      <point x="40" y="0" type="line"/>
      <point x="58" y="0" type="line"/>
      <point x="340" y="1380" type="line"/>
      <point x="1206" y="1380" type="line"/>
      <point x="924" y="0" type="line"/>
      <point x="944" y="0" type="line"/>
      <point x="1227" y="1400" type="line"/>
      <point x="323" y="1400" type="line"/>
    </contour>
  </outline>
</glyph>
<glyph name="Te-cy" format="2">
  <advance width="874"/>
  <unicode hex="0422"/>
  <anchor x="854" y="0" name="bottomright"/>
  <outline>
    <contour>
      <point x="284" y="0" type="line"/>
      <point x="306" y="0" type="line"/>
      <point x="584" y="1378" type="line"/>
      <point x="942" y="1378" type="line"/>
      <point x="947" y="1400" type="line"/>
      <point x="209" y="1400" type="line"/>
      <point x="206" y="1378" type="line"/>
      <point x="562" y="1378" type="line"/>
    </contour>
  </outline>
</glyph>
<glyph name="U-cy" format="2">
  <advance width="902"/>
  <unicode hex="0423"/>
  <anchor x="254" y="1400" name="top"/>
  <outline>
    <contour>
      <point x="154" y="0" type="line"/>
      <point x="174" y="0" type="line"/>
      <point x="1080" y="1398" type="line"/>
      <point x="1060" y="1398" type="line"/>
      <point x="449" y="462" type="line"/>
      <point x="459" y="460" type="line"/>
      <point x="191" y="1400" type="line"/>
      <point x="173" y="1400" type="line"/>
      <point x="447" y="450" type="line"/>
    </contour>
  </outline>
</glyph>
<glyph name="Ef-cy" format="2">
  <advance width="1372"/>
  <unicode hex="0424"/>
  <outline>
    <contour>
      <point x="603" y="167" type="curve" smooth="yes"/>
      <point x="621" y="167" type="line" smooth="yes"/>
      <point x="1009" y="167"/>
      <point x="1342" y="464"/>
      <point x="1342" y="793" type="curve" smooth="yes"/>
      <point x="1342" y="1049"/>
      <point x="1139" y="1235"/>
      <point x="835" y="1235" type="curve" smooth="yes"/>
      <point x="817" y="1235" type="line" smooth="yes"/>
      <point x="429" y="1235"/>
      <point x="95" y="936"/>
      <point x="95" y="607" type="curve" smooth="yes"/>
      <point x="95" y="348"/>
      <point x="301" y="167"/>
    </contour>
    <contour>
      <point x="602" y="185" type="line" smooth="yes"/>
      <point x="312" y="185"/>
      <point x="115" y="359"/>
      <point x="115" y="608" type="curve" smooth="yes"/>
      <point x="115" y="927"/>
      <point x="439" y="1212"/>
      <point x="818" y="1212" type="curve" smooth="yes"/>
      <point x="836" y="1212" type="line" smooth="yes"/>
      <point x="1126" y="1212"/>
      <point x="1323" y="1041"/>
      <point x="1323" y="793" type="curve" smooth="yes"/>
      <point x="1323" y="472"/>
      <point x="995" y="185"/>
      <point x="620" y="185" type="curve" smooth="yes"/>
    </contour>
    <contour>
      <point x="566" y="0" type="line"/>
      <point x="586" y="0" type="line"/>
      <point x="872" y="1398" type="line"/>
      <point x="852" y="1398" type="line"/>
    </contour>
  </outline>
</glyph>
<glyph name="Ha-cy" format="2">
  <advance width="1044"/>
  <unicode hex="0425"/>
  <anchor x="1024" y="0" name="bottomright"/>
  <outline>
    <contour>
      <point x="-74" y="0" type="line"/>
      <point x="-46" y="0" type="line"/>
      <point x="512" y="710" type="line"/>
      <point x="768" y="0" type="line"/>
      <point x="796" y="0" type="line"/>
      <point x="525" y="732" type="line"/>
      <point x="1052" y="1396" type="line"/>
      <point x="1024" y="1396" type="line"/>
      <point x="516" y="756" type="line"/>
      <point x="283" y="1400" type="line"/>
      <point x="257" y="1400" type="line"/>
      <point x="503" y="736" type="line"/>
    </contour>
  </outline>
</glyph>
<glyph name="Tse-cy" format="2">
  <advance width="1288"/>
  <unicode hex="0426"/>
  <outline>
    <contour>
      <point x="1039" y="-218" type="line"/>
      <point x="1059" y="-218" type="line"/>
      <point x="1111" y="20" type="line"/>
      <point x="949" y="20" type="line"/>
      <point x="1230" y="1398" type="line"/>
      <point x="1210" y="1398" type="line"/>
      <point x="929" y="20" type="line"/>
      <point x="63" y="20" type="line"/>
      <point x="346" y="1398" type="line"/>
      <point x="326" y="1398" type="line"/>
      <point x="40" y="0" type="line"/>
      <point x="1088" y="0" type="line"/>
    </contour>
  </outline>
</glyph>
<glyph name="Che-cy" format="2">
  <advance width="1016"/>
  <unicode hex="0427"/>
  <anchor x="996" y="0" name="bottomright"/>
  <anchor x="311" y="1400" name="top"/>
  <outline>
    <contour>
      <point x="736" y="0" type="line"/>
      <point x="756" y="0" type="line"/>
      <point x="1041" y="1398" type="line"/>
      <point x="1021" y="1398" type="line"/>
      <point x="854" y="580" type="line"/>
      <point x="552" y="580" type="line" smooth="yes"/>
      <point x="319" y="580"/>
      <point x="221" y="813"/>
      <point x="268" y="1036" type="curve" smooth="yes"/>
      <point x="345" y="1398" type="line"/>
      <point x="325" y="1398" type="line"/>
      <point x="248" y="1036" type="line" smooth="yes"/>
      <point x="199" y="807"/>
      <point x="307" y="560"/>
      <point x="549" y="560" type="curve" smooth="yes"/>
      <point x="850" y="560" type="line"/>
    </contour>
  </outline>
</glyph>
<glyph name="Sha-cy" format="2">
  <advance width="1710"/>
  <unicode hex="0428"/>
  <outline>
    <contour>
      <point x="40" y="0" type="line"/>
      <point x="1454" y="0" type="line"/>
      <point x="1738" y="1398" type="line"/>
      <point x="1718" y="1398" type="line"/>
      <point x="1437" y="20" type="line"/>
      <point x="761" y="20" type="line"/>
      <point x="1042" y="1398" type="line"/>
      <point x="1022" y="1398" type="line"/>
      <point x="741" y="20" type="line"/>
      <point x="65" y="20" type="line"/>
      <point x="346" y="1398" type="line"/>
      <point x="326" y="1398" type="line"/>
    </contour>
  </outline>
</glyph>
<glyph name="Shcha-cy" format="2">
  <advance width="1796"/>
  <unicode hex="0429"/>
  <outline>
    <contour>
      <point x="1547" y="-218" type="line"/>
      <point x="1567" y="-218" type="line"/>
      <point x="1619" y="20" type="line"/>
      <point x="1457" y="20" type="line"/>
      <point x="1738" y="1398" type="line"/>
      <point x="1718" y="1398" type="line"/>
      <point x="1437" y="20" type="line"/>
      <point x="761" y="20" type="line"/>
      <point x="1042" y="1398" type="line"/>
      <point x="1022" y="1398" type="line"/>
      <point x="741" y="20" type="line"/>
      <point x="65" y="20" type="line"/>
      <point x="346" y="1398" type="line"/>
      <point x="326" y="1398" type="line"/>
      <point x="40" y="0" type="line"/>
      <point x="1596" y="0" type="line"/>
    </contour>
  </outline>
</glyph>
<glyph name="Hardsign-cy" format="2">
  <advance width="1158"/>
  <unicode hex="042A"/>
  <anchor x="382" y="1400" name="top"/>
  <outline>
    <contour>
      <point x="246" y="0" type="line"/>
      <point x="530" y="0" type="line" smooth="yes"/>
      <point x="794" y="0"/>
      <point x="1021" y="182"/>
      <point x="1062" y="419" type="curve" smooth="yes"/>
      <point x="1104" y="665"/>
      <point x="926" y="840"/>
      <point x="694" y="840" type="curve" smooth="yes"/>
      <point x="437" y="840" type="line"/>
      <point x="551" y="1400" type="line"/>
      <point x="191" y="1400" type="line"/>
      <point x="188" y="1380" type="line"/>
      <point x="528" y="1380" type="line"/>
    </contour>
    <contour>
      <point x="270" y="20" type="line"/>
      <point x="433" y="820" type="line"/>
      <point x="695" y="820" type="line" smooth="yes"/>
      <point x="924" y="820"/>
      <point x="1082" y="646"/>
      <point x="1041" y="420" type="curve" smooth="yes"/>
      <point x="998" y="184"/>
      <point x="767" y="20"/>
      <point x="529" y="20" type="curve" smooth="yes"/>
    </contour>
  </outline>
</glyph>
<glyph name="Yeru-cy" format="2">
  <advance width="1288"/>
  <unicode hex="042B"/>
  <anchor x="447" y="1400" name="top"/>
  <outline>
    <contour>
      <point x="30" y="0" type="line"/>
      <point x="314" y="0" type="line" smooth="yes"/>
      <point x="566" y="0"/>
      <point x="801" y="171"/>
      <point x="845" y="413" type="curve" smooth="yes"/>
      <point x="888" y="654"/>
      <point x="722" y="840"/>
      <point x="478" y="840" type="curve" smooth="yes"/>
      <point x="222" y="840" type="line"/>
      <point x="336" y="1398" type="line"/>
      <point x="316" y="1398" type="line"/>
    </contour>
    <contour>
      <point x="54" y="20" type="line"/>
      <point x="218" y="820" type="line"/>
      <point x="477" y="820" type="line" smooth="yes"/>
      <point x="706" y="820"/>
      <point x="866" y="646"/>
      <point x="825" y="419" type="curve" smooth="yes"/>
      <point x="784" y="191"/>
      <point x="557" y="20"/>
      <point x="313" y="20" type="curve" smooth="yes"/>
    </contour>
    <contour>
      <point x="998" y="0" type="line"/>
      <point x="1018" y="0" type="line"/>
      <point x="1306" y="1398" type="line"/>
      <point x="1286" y="1398" type="line"/>
    </contour>
  </outline>
</glyph>
<glyph name="Ereversed-cy" format="2">
  <advance width="1318"/>
  <unicode hex="042D"/>
  <outline>
    <contour>
      <point x="597" y="-16" type="curve" smooth="yes"/>
      <point x="990" y="-14"/>
      <point x="1259" y="296"/>
      <point x="1259" y="711" type="curve" smooth="yes"/>
      <point x="1259" y="1119"/>
      <point x="999" y="1411"/>
      <point x="638" y="1415" type="curve" smooth="yes"/>
      <point x="481" y="1417"/>
      <point x="324" y="1362"/>
      <point x="197" y="1257" type="curve"/>
      <point x="197" y="1228" type="line"/>
      <point x="315" y="1333"/>
      <point x="476" y="1392"/>
      <point x="640" y="1391" type="curve" smooth="yes"/>
      <point x="988" y="1388"/>
      <point x="1230" y="1110"/>
      <point x="1234" y="710" type="curve"/>
      <point x="340" y="710" type="line"/>
      <point x="340" y="690" type="line"/>
      <point x="1234" y="690" type="line"/>
      <point x="1222" y="289"/>
      <point x="961" y="10"/>
      <point x="596" y="8" type="curve" smooth="yes"/>
      <point x="429" y="7"/>
      <point x="281" y="64"/>
      <point x="165" y="175" type="curve"/>
      <point x="164" y="143" type="line"/>
      <point x="290" y="36"/>
      <point x="435" y="-17"/>
    </contour>
  </outline>
</glyph>
<glyph name="Iu-cy" format="2">
  <advance width="1926"/>
  <unicode hex="042E"/>
  <anchor x="766" y="1400" name="top"/>
  <outline>
    <contour>
      <point x="1088" y="-18" type="curve" smooth="yes"/>
      <point x="1490" y="-26"/>
      <point x="1804" y="351"/>
      <point x="1867" y="704" type="curve" smooth="yes"/>
      <point x="1928" y="1042"/>
      <point x="1768" y="1414"/>
      <point x="1373" y="1420" type="curve" smooth="yes"/>
      <point x="972" y="1427"/>
      <point x="661" y="1055"/>
      <point x="597" y="704" type="curve" smooth="yes"/>
      <point x="537" y="371"/>
      <point x="688" y="-11"/>
    </contour>
    <contour>
      <point x="40" y="0" type="line"/>
      <point x="58" y="0" type="line"/>
      <point x="346" y="1398" type="line"/>
      <point x="326" y="1398" type="line"/>
    </contour>
    <contour>
      <point x="205" y="750" type="line"/>
      <point x="621" y="750" type="line"/>
      <point x="624" y="770" type="line"/>
      <point x="210" y="770" type="line"/>
    </contour>
    <contour>
      <point x="1089" y="6" type="curve" smooth="yes"/>
      <point x="700" y="13"/>
      <point x="559" y="383"/>
      <point x="619" y="704" type="curve" smooth="yes"/>
      <point x="682" y="1040"/>
      <point x="979" y="1405"/>
      <point x="1373" y="1398" type="curve" smooth="yes"/>
      <point x="1768" y="1391"/>
      <point x="1903" y="1020"/>
      <point x="1845" y="704" type="curve" smooth="yes"/>
      <point x="1782" y="362"/>
      <point x="1479" y="-1"/>
    </contour>
  </outline>
</glyph>
<glyph name="Ia-cy" format="2">
  <advance width="880"/>
  <unicode hex="042F"/>
  <anchor x="718" y="1400" name="top"/>
  <outline>
    <contour>
      <point x="-46" y="0" type="line"/>
      <point x="-18" y="0" type="line"/>
      <point x="528" y="628" type="line"/>
      <point x="708" y="628" type="line"/>
      <point x="580" y="0" type="line"/>
      <point x="600" y="0" type="line"/>
      <point x="887" y="1400" type="line"/>
      <point x="665" y="1400" type="line" smooth="yes"/>
      <point x="384" y="1400"/>
      <point x="139" y="1196"/>
      <point x="139" y="945" type="curve" smooth="yes"/>
      <point x="139" y="753"/>
      <point x="283" y="632"/>
      <point x="502" y="628" type="curve"/>
    </contour>
    <contour>
      <point x="515" y="648" type="line" smooth="yes"/>
      <point x="296" y="648"/>
      <point x="158" y="766"/>
      <point x="158" y="946" type="curve" smooth="yes"/>
      <point x="158" y="1182"/>
      <point x="393" y="1378"/>
      <point x="664" y="1378" type="curve" smooth="yes"/>
      <point x="859" y="1378" type="line"/>
      <point x="712" y="648" type="line"/>
    </contour>
  </outline>
</glyph>
<glyph name="be-cy" format="2">
  <advance width="1026"/>
  <unicode hex="0431"/>
  <outline>
    <contour>
      <point x="444" y="-18" type="curve" smooth="yes"/>
      <point x="715" y="-18"/>
      <point x="933" y="210"/>
      <point x="971" y="460" type="curve" smooth="yes"/>
      <point x="1009" y="711"/>
      <point x="857" y="938"/>
      <point x="609" y="938" type="curve" smooth="yes"/>
      <point x="381" y="938"/>
      <point x="177" y="747"/>
      <point x="108" y="532" type="curve"/>
      <point x="150" y="798"/>
      <point x="336" y="1162"/>
      <point x="614" y="1292" type="curve" smooth="yes"/>
      <point x="750" y="1356"/>
      <point x="849" y="1401"/>
      <point x="937" y="1558" type="curve"/>
      <point x="917" y="1558" type="line"/>
      <point x="816" y="1391"/>
      <point x="695" y="1356"/>
      <point x="607" y="1312" type="curve" smooth="yes"/>
      <point x="323" y="1169"/>
      <point x="88" y="787"/>
      <point x="88" y="434" type="curve" smooth="yes"/>
      <point x="88" y="256"/>
      <point x="148" y="-18"/>
    </contour>
    <contour>
      <point x="444" y="2" type="curve" smooth="yes"/>
      <point x="181" y="2"/>
      <point x="115" y="236"/>
      <point x="115" y="388" type="curve" smooth="yes"/>
      <point x="115" y="672"/>
      <point x="344" y="918"/>
      <point x="603" y="918" type="curve" smooth="yes"/>
      <point x="846" y="918"/>
      <point x="991" y="701"/>
      <point x="951" y="460" type="curve" smooth="yes"/>
      <point x="912" y="224"/>
      <point x="701" y="2"/>
    </contour>
  </outline>
</glyph>
<glyph name="ve-cy" format="2">
  <advance width="772"/>
  <unicode hex="0432"/>
  <outline>
    <contour>
      <point x="30" y="0" type="line"/>
      <point x="332" y="2" type="line" smooth="yes"/>
      <point x="484" y="3"/>
      <point x="635" y="90"/>
      <point x="661" y="246" type="curve" smooth="yes"/>
      <point x="689" y="412"/>
      <point x="540" y="453"/>
      <point x="409" y="461" type="curve"/>
      <point x="543" y="474"/>
      <point x="676" y="528"/>
      <point x="706" y="666" type="curve" smooth="yes"/>
      <point x="742" y="828"/>
      <point x="603" y="920"/>
      <point x="457" y="920" type="curve" smooth="yes"/>
      <point x="219" y="920" type="line"/>
    </contour>
    <contour>
      <point x="54" y="20" type="line"/>
      <point x="143" y="448" type="line"/>
      <point x="385" y="448" type="line" smooth="yes"/>
      <point x="525" y="448"/>
      <point x="665" y="405"/>
      <point x="641" y="251" type="curve" smooth="yes"/>
      <point x="618" y="103"/>
      <point x="472" y="20"/>
      <point x="331" y="20" type="curve" smooth="yes"/>
    </contour>
    <contour>
      <point x="146" y="473" type="line"/>
      <point x="235" y="900" type="line"/>
      <point x="456" y="900" type="line" smooth="yes"/>
      <point x="587" y="900"/>
      <point x="721" y="818"/>
      <point x="688" y="671" type="curve" smooth="yes"/>
      <point x="656" y="528"/>
      <point x="502" y="473"/>
      <point x="366" y="473" type="curve" smooth="yes"/>
    </contour>
  </outline>
</glyph>
<glyph name="ge-cy" format="2">
  <advance width="564"/>
  <unicode hex="0433"/>
  <anchor x="544" y="0" name="bottomright"/>
  <anchor x="365" y="920" name="top"/>
  <outline>
    <contour>
      <point x="38" y="0" type="line"/>
      <point x="58" y="0" type="line"/>
      <point x="244" y="900" type="line"/>
      <point x="628" y="900" type="line"/>
      <point x="633" y="920" type="line"/>
      <point x="227" y="920" type="line"/>
    </contour>
  </outline>
</glyph>
<glyph name="de-cy" format="2">
  <advance width="1232"/>
  <unicode hex="0434"/>
  <outline>
    <contour>
      <point x="249" y="9" type="curve"/>
      <point x="283" y="9" type="line"/>
      <point x="485" y="131"/>
      <point x="763" y="648"/>
      <point x="785" y="934" type="curve"/>
      <point x="763" y="924" type="line"/>
      <point x="1031" y="923" type="line"/>
      <point x="1021" y="933" type="line"/>
      <point x="922" y="17" type="line"/>
      <point x="940" y="17" type="line"/>
      <point x="1041" y="941" type="line"/>
      <point x="767" y="942" type="line"/>
      <point x="741" y="647"/>
      <point x="477" y="145"/>
    </contour>
    <contour>
      <point x="87" y="-185" type="line"/>
      <point x="106" y="-185" type="line"/>
      <point x="133" y="16" type="line"/>
      <point x="116" y="0" type="line"/>
      <point x="1121" y="-2" type="line"/>
      <point x="1108" y="13" type="line"/>
      <point x="1082" y="-185" type="line"/>
      <point x="1101" y="-185" type="line"/>
      <point x="1128" y="18" type="line"/>
      <point x="114" y="21" type="line"/>
    </contour>
  </outline>
</glyph>
<glyph name="zhe-cy" format="2">
  <advance width="854"/>
  <unicode hex="0436"/>
  <anchor x="834" y="0" name="bottomright"/>
  <anchor x="497" y="918" name="top"/>
  <outline>
    <contour>
      <point x="-92" y="0" type="line"/>
      <point x="-66" y="0" type="line"/>
      <point x="416" y="529" type="line"/>
      <point x="306" y="0" type="line"/>
      <point x="326" y="0" type="line"/>
      <point x="437" y="533" type="line"/>
      <point x="704" y="0" type="line"/>
      <point x="728" y="0" type="line"/>
      <point x="454" y="538" type="line"/>
      <point x="877" y="916" type="line"/>
      <point x="851" y="916" type="line"/>
      <point x="441" y="552" type="line"/>
      <point x="517" y="918" type="line"/>
      <point x="497" y="918" type="line"/>
      <point x="419" y="545" type="line"/>
      <point x="155" y="920" type="line"/>
      <point x="131" y="920" type="line"/>
      <point x="398" y="540" type="line"/>
    </contour>
  </outline>
</glyph>
<glyph name="ze-cy" format="2">
  <advance width="894"/>
  <unicode hex="0437"/>
  <anchor x="447" y="0" name="bottom"/>
  <anchor x="538" y="938" name="top"/>
  <outline>
    <contour>
      <point x="356" y="-18" type="curve" smooth="yes"/>
      <point x="551" y="-20"/>
      <point x="736" y="112"/>
      <point x="758" y="268" type="curve" smooth="yes"/>
      <point x="776" y="393"/>
      <point x="685" y="472"/>
      <point x="503" y="493" type="curve"/>
      <point x="684" y="506"/>
      <point x="779" y="562"/>
      <point x="801" y="669" type="curve" smooth="yes"/>
      <point x="829" y="813"/>
      <point x="701" y="938"/>
      <point x="538" y="938" type="curve" smooth="yes"/>
      <point x="389" y="938"/>
      <point x="258" y="833"/>
      <point x="188" y="656" type="curve"/>
      <point x="208" y="656" type="line"/>
      <point x="277" y="821"/>
      <point x="402" y="918"/>
      <point x="540" y="918" type="curve" smooth="yes"/>
      <point x="699" y="918"/>
      <point x="812" y="798"/>
      <point x="780" y="668" type="curve" smooth="yes"/>
      <point x="754" y="563"/>
      <point x="649" y="511"/>
      <point x="449" y="502" type="curve"/>
      <point x="443" y="486" type="line"/>
      <point x="651" y="473"/>
      <point x="759" y="394"/>
      <point x="740" y="271" type="curve" smooth="yes"/>
      <point x="718" y="129"/>
      <point x="537" y="2"/>
      <point x="355" y="2" type="curve" smooth="yes"/>
      <point x="192" y="2"/>
      <point x="93" y="107"/>
      <point x="83" y="290" type="curve"/>
      <point x="63" y="290" type="line"/>
      <point x="72" y="96"/>
      <point x="179" y="-17"/>
    </contour>
  </outline>
</glyph>
<glyph name="ii-cy" format="2">
  <advance width="892"/>
  <unicode hex="0438"/>
  <anchor x="872" y="0" name="bottomright"/>
  <anchor x="637" y="920" name="top"/>
  <outline>
    <contour>
      <point x="26" y="-68" type="line"/>
      <point x="800" y="908" type="line"/>
      <point x="612" y="0" type="line"/>
      <point x="632" y="0" type="line"/>
      <point x="838" y="988" type="line"/>
      <point x="62" y="12" type="line"/>
      <point x="249" y="918" type="line"/>
      <point x="229" y="918" type="line"/>
    </contour>
  </outline>
</glyph>
<glyph name="ka-cy" format="2">
  <advance width="826"/>
  <unicode hex="043A"/>
  <anchor x="806" y="0" name="bottomright"/>
  <anchor x="422" y="920" name="top"/>
  <outline>
    <contour>
      <point x="548" y="0" type="line"/>
      <point x="574" y="0" type="line"/>
      <point x="190" y="540" type="line"/>
      <point x="725" y="916" type="line"/>
      <point x="693" y="916" type="line"/>
      <point x="164" y="542" type="line"/>
    </contour>
    <contour>
      <point x="38" y="0" type="line"/>
      <point x="58" y="0" type="line"/>
      <point x="249" y="918" type="line"/>
      <point x="229" y="918" type="line"/>
    </contour>
  </outline>
</glyph>
<glyph name="el-cy" format="2">
  <advance width="918"/>
  <unicode hex="043B"/>
  <outline>
    <contour>
      <point x="-99" y="-18" type="line"/>
      <point x="55" y="34"/>
      <point x="102" y="179"/>
      <point x="126" y="300" type="curve" smooth="yes"/>
      <point x="250" y="900" type="line"/>
      <point x="822" y="900" type="line"/>
      <point x="638" y="0" type="line"/>
      <point x="658" y="0" type="line"/>
      <point x="847" y="920" type="line"/>
      <point x="233" y="920" type="line"/>
      <point x="104" y="300" type="line" smooth="yes"/>
      <point x="73" y="150"/>
      <point x="23" y="49"/>
      <point x="-94" y="2" type="curve"/>
    </contour>
  </outline>
</glyph>
<glyph name="em-cy" format="2">
  <advance width="1142"/>
  <unicode hex="043C"/>
  <outline>
    <contour>
      <point x="444" y="-55" type="line"/>
      <point x="980" y="902" type="line"/>
      <point x="1000" y="0" type="line"/>
      <point x="1022" y="0" type="line"/>
      <point x="998" y="981" type="line"/>
      <point x="459" y="19" type="line"/>
      <point x="328" y="981" type="line"/>
      <point x="-102" y="0" type="line"/>
      <point x="-76" y="2" type="line"/>
      <point x="317" y="906" type="line"/>
    </contour>
  </outline>
</glyph>
<glyph name="en-cy" format="2">
  <advance width="930"/>
  <unicode hex="043D"/>
  <anchor x="910" y="0" name="bottomright"/>
  <outline>
    <contour>
      <point x="30" y="0" type="line"/>
      <point x="50" y="0" type="line"/>
      <point x="149" y="480" type="line"/>
      <point x="760" y="480" type="line"/>
      <point x="660" y="0" type="line"/>
      <point x="680" y="0" type="line"/>
      <point x="871" y="918" type="line"/>
      <point x="851" y="918" type="line"/>
      <point x="764" y="500" type="line"/>
      <point x="153" y="500" type="line"/>
      <point x="239" y="918" type="line"/>
      <point x="219" y="918" type="line"/>
    </contour>
  </outline>
</glyph>
<glyph name="pe-cy" format="2">
  <advance width="856"/>
  <unicode hex="043F"/>
  <anchor x="836" y="0" name="bottomright"/>
  <outline>
    <contour>
      <point x="30" y="0" type="line"/>
      <point x="50" y="0" type="line"/>
      <point x="234" y="900" type="line"/>
      <point x="770" y="900" type="line"/>
      <point x="584" y="0" type="line"/>
      <point x="604" y="0" type="line"/>
      <point x="793" y="920" type="line"/>
      <point x="219" y="920" type="line"/>
    </contour>
  </outline>
</glyph>
<glyph name="es-cy" format="2">
  <advance width="898"/>
  <unicode hex="0441"/>
  <anchor x="878" y="0" name="bottomright"/>
  <outline>
    <contour>
      <point x="404" y="-18" type="curve" smooth="yes"/>
      <point x="523" y="-18"/>
      <point x="627" y="30"/>
      <point x="718" y="94" type="curve"/>
      <point x="723" y="118" type="line"/>
      <point x="630" y="54"/>
      <point x="524" y="1"/>
      <point x="403" y="2" type="curve" smooth="yes"/>
      <point x="148" y="4"/>
      <point x="38" y="247"/>
      <point x="76" y="458" type="curve" smooth="yes"/>
      <point x="116" y="682"/>
      <point x="332" y="918"/>
      <point x="590" y="918" type="curve" smooth="yes"/>
      <point x="696" y="918"/>
      <point x="784" y="878"/>
      <point x="859" y="800" type="curve"/>
      <point x="864" y="824" type="line"/>
      <point x="785" y="900"/>
      <point x="696" y="937"/>
      <point x="592" y="938" type="curve" smooth="yes"/>
      <point x="326" y="941"/>
      <point x="102" y="710"/>
      <point x="58" y="461" type="curve" smooth="yes"/>
      <point x="17" y="230"/>
      <point x="134" y="-18"/>
    </contour>
  </outline>
</glyph>
<glyph name="te-cy" format="2">
  <advance width="526"/>
  <unicode hex="0442"/>
  <anchor x="506" y="0" name="bottomright"/>
  <outline>
    <contour>
      <point x="142" y="0" type="line"/>
      <point x="162" y="0" type="line"/>
      <point x="349" y="900" type="line"/>
      <point x="590" y="900" type="line"/>
      <point x="595" y="920" type="line"/>
      <point x="85" y="920" type="line"/>
      <point x="82" y="900" type="line"/>
      <point x="329" y="900" type="line"/>
    </contour>
  </outline>
</glyph>
<glyph name="u-cy" format="2">
  <advance width="826"/>
  <unicode hex="0443"/>
  <anchor x="283" y="920" name="top"/>
  <outline>
    <contour>
      <point x="17" y="-438" type="line"/>
      <point x="861" y="918" type="line"/>
      <point x="837" y="918" type="line"/>
      <point x="294" y="42" type="line"/>
      <point x="314" y="40" type="line"/>
      <point x="116" y="920" type="line"/>
      <point x="94" y="920" type="line"/>
      <point x="292" y="42" type="line"/>
      <point x="-9" y="-436" type="line"/>
    </contour>
  </outline>
</glyph>
<glyph name="ef-cy" format="2">
  <advance width="1102"/>
  <unicode hex="0444"/>
  <outline>
    <contour>
      <point x="390" y="-198" type="line"/>
      <point x="410" y="-198" type="line"/>
      <point x="446" y="-18" type="line"/>
      <point x="766" y="-16"/>
      <point x="1030" y="260"/>
      <point x="1030" y="541" type="curve" smooth="yes"/>
      <point x="1030" y="765"/>
      <point x="869" y="930"/>
      <point x="644" y="938" type="curve"/>
      <point x="681" y="1118" type="line"/>
      <point x="661" y="1118" type="line"/>
      <point x="624" y="938" type="line"/>
      <point x="304" y="936"/>
      <point x="40" y="660"/>
      <point x="40" y="379" type="curve" smooth="yes"/>
      <point x="40" y="155"/>
      <point x="201" y="-10"/>
      <point x="426" y="-18" type="curve"/>
    </contour>
    <contour>
      <point x="431" y="2" type="line"/>
      <point x="213" y="9"/>
      <point x="58" y="166"/>
      <point x="58" y="378" type="curve" smooth="yes"/>
      <point x="58" y="652"/>
      <point x="321" y="913"/>
      <point x="620" y="918" type="curve"/>
    </contour>
    <contour>
      <point x="451" y="2" type="curve"/>
      <point x="640" y="918" type="line"/>
      <point x="855" y="911"/>
      <point x="1011" y="754"/>
      <point x="1011" y="541" type="curve" smooth="yes"/>
      <point x="1011" y="268"/>
      <point x="750" y="7"/>
    </contour>
  </outline>
</glyph>
<glyph name="ha-cy" format="2">
  <advance width="790"/>
  <unicode hex="0445"/>
  <anchor x="770" y="0" name="bottomright"/>
  <outline>
    <contour>
      <point x="-92" y="0" type="line"/>
      <point x="-62" y="0" type="line"/>
      <point x="344" y="456" type="line"/>
      <point x="560" y="0" type="line"/>
      <point x="588" y="0" type="line"/>
      <point x="355" y="474" type="line"/>
      <point x="755" y="916" type="line"/>
      <point x="727" y="916" type="line"/>
      <point x="345" y="492" type="line"/>
      <point x="141" y="920" type="line"/>
      <point x="113" y="920" type="line"/>
      <point x="333" y="474" type="line"/>
    </contour>
  </outline>
</glyph>
